<svg xmlns="http://www.w3.org/2000/svg" width="256" height="240">
    <path d="M231 240H25a25 25 0 0 1-25-25V41a25 25 0 0 1 25-25h47V0h16v16h80V0h16v16h47a25 25 0 0 1 25 25v174a25 25 0 0 1-25 25zm9-201a7 7 0 0 0-7-7h-49v16h-16V32H88v16H72V32H23a7 7 0 0 0-7 7v25h224V39zm0 41H16v137a7 7 0 0 0 7 7h210a7 7 0 0 0 7-7V80zm-32 128h-32a8 8 0 0 1-8-8v-32a8 8 0 0 1 8-8h32a8 8 0 0 1 8 8v32a8 8 0 0 1-8 8zm-8-32h-16v16h16v-16zm8-32h-32a8 8 0 0 1-8-8v-32a8 8 0 0 1 8-8h32a8 8 0 0 1 8 8v32a8 8 0 0 1-8 8zm-8-32h-16v16h16v-16zm-56 96h-32a8 8 0 0 1-8-8v-32a8 8 0 0 1 8-8h32a8 8 0 0 1 8 8v32a8 8 0 0 1-8 8zm-8-32h-16v16h16v-16zm8-32h-32a8 8 0 0 1-8-8v-32a8 8 0 0 1 8-8h32a8 8 0 0 1 8 8v32a8 8 0 0 1-8 8zm-8-32h-16v16h16v-16zm-56 96H48a8 8 0 0 1-8-8v-32a8 8 0 0 1 8-8h32a8 8 0 0 1 8 8v32a8 8 0 0 1-8 8zm-8-32H56v16h16v-16zm8-32H48a8 8 0 0 1-8-8v-32a8 8 0 0 1 8-8h32a8 8 0 0 1 8 8v32a8 8 0 0 1-8 8zm-8-32H56v16h16v-16z" fill="#fff" fill-rule="evenodd"/>
</svg>