<svg xmlns="http://www.w3.org/2000/svg" width="50" height="50">
    <path fill="none" d="M-1-1h52v52H-1z"/>
    <g>
        <path d="M31.46 22.491a5.2 5.2 0 0 0-4.115-4.108.809.809 0 1 0-.31 1.586 3.571 3.571 0 0 1 2.836 2.832.809.809 0 0 0 1.589-.31z" fill="#898988"/>
        <path d="M34.989 22.547a8.734 8.734 0 0 0-2.506-5.192 8.763 8.763 0 0 0-5.205-2.495.808.808 0 0 0-.179 1.606 7.067 7.067 0 0 1 6.28 6.262.809.809 0 0 0 1.61-.18zM31.905 27.064h-.007a10.524 10.524 0 0 1-2.294-.57 2.58 2.58 0 0 0-2.711.576l-.003.003-.671.67a13.268 13.268 0 0 1-4.135-4.128l.67-.67c.002 0 .003-.002.004-.003.703-.71.93-1.772.579-2.704a10.468 10.468 0 0 1-.572-2.292l-.001-.007a2.576 2.576 0 0 0-2.565-2.206h-2.637a2.57 2.57 0 0 0-2.557 2.795v.013a18.272 18.272 0 0 0 2.826 7.967 18.061 18.061 0 0 0 5.524 5.514 18.343 18.343 0 0 0 7.959 2.821c.077.007.155.01.232.01h.01a2.57 2.57 0 0 0 2.559-2.572v-2.626a2.566 2.566 0 0 0-2.21-2.59zm.59 2.583v2.64a.952.952 0 0 1-1.03.95 16.7 16.7 0 0 1-7.232-2.572c-.002 0-.004-.003-.006-.004a16.454 16.454 0 0 1-5.031-5.022l-.004-.006a16.633 16.633 0 0 1-2.575-7.255.95.95 0 0 1 .946-1.029h2.657c.47 0 .874.348.94.813.12.901.342 1.79.66 2.642a.95.95 0 0 1-.211 1l-1.116 1.114a.807.807 0 0 0-.131.971 14.892 14.892 0 0 0 5.583 5.574.81.81 0 0 0 .972-.13l1.116-1.115a.953.953 0 0 1 1.003-.21c.853.317 1.743.538 2.646.657a.95.95 0 0 1 .815.963l-.001.02z" fill="#898988"/>
    </g>
</svg>