<svg xmlns="http://www.w3.org/2000/svg" width="10" height="20">
    <path d="M9.376 16.345H7.5V6.7a.583.583 0 0 0-.624-.61H1.25a.583.583 0 0 0-.625.61v2.436a.583.583 0 0 0 .625.609H2.5v6.6H.625a.583.583 0 0 0-.625.609v2.437A.583.583 0 0 0 .625 20h8.75a.583.583 0 0 0 .625-.609v-2.437a.583.583 0 0 0-.624-.609zm-.625 2.437H1.25v-1.218h1.876a.583.583 0 0 0 .625-.609V9.136a.583.583 0 0 0-.625-.609H1.875V7.308h4.376v9.646a.583.583 0 0 0 .625.609h1.875v1.218zM4.376 4.872a2.476 2.476 0 0 0 2.5-2.436A2.476 2.476 0 0 0 4.376 0a2.476 2.476 0 0 0-2.5 2.437 2.476 2.476 0 0 0 2.5 2.435zm0-3.655a1.238 1.238 0 0 1 1.25 1.218 1.251 1.251 0 0 1-2.5 0 1.238 1.238 0 0 1 1.25-1.218z" fill="#fff" fill-rule="evenodd"/>
</svg>