<svg xmlns="http://www.w3.org/2000/svg" xmlns:xlink="http://www.w3.org/1999/xlink" version="1.1" id="Layer_1" x="0px" y="0px" viewBox="0 0 170 50" style="enable-background:new 0 0 170 50;" xml:space="preserve">
<style type="text/css">
	.st0{fill:#009E54;}
	.st1{display:none;}
	.st2{display:inline;fill:#FFFFFF;}
	.st3{display:none;fill:#FFFFFF;}
	.st4{fill:#FFFFFF;}
</style>
    <path class="st0" d="M0,0h170v50H0V0z"/>
    <g class="st1">
	<path class="st2" d="M99.4,22.7h-2.3v-6.6h-2.7v6.6h-2.3v-8.6h7.3V22.7L99.4,22.7z M106.5,21.6H103l-0.5,1.1h-2.2v-0.3l3.9-8.4h1   l4,8.4v0.3H107L106.5,21.6z M104.8,17.5l-1,2.3h2L104.8,17.5z M110.2,14.1h2.3v6.6h2.5v-6.6h2.3v6.7h0.9v2.9h-1.8v-1h-6.2   L110.2,14.1L110.2,14.1z M120.3,22.7h-0.8v-8.6h2.3v4.2l4.4-4.2h0.8v8.6h-2.3v-4.2L120.3,22.7z M134.5,16h-3.2v1.2h3v2h-3v1.5h3.4   v2h-5.6v-8.6h5.5C134.5,14.1,134.5,16,134.5,16z M143.7,22.7h-2.3v-3.4h-2.7v3.4h-2.3v-8.6h2.3v3.1h2.7v-3.1h2.3V22.7z M144.8,16   v-2h6.5v2h-2.1v6.6H147V16H144.8z M156.9,21.6h-3.5l-0.5,1.1h-2.2v-0.3l3.9-8.4h1l4,8.4v0.3h-2.2L156.9,21.6z M155.1,17.5l-1,2.3h2   L155.1,17.5z"/>
</g>
    <path class="st3" d="M276,40h-80.4c-2.4,0-4.4-2-4.4-4.4V14.5c0-2.4,2-4.4,4.4-4.4H276c2.4,0,4.4,2,4.4,4.4v21.1  C280.4,38,278.5,39.9,276,40z M195.6,11.1c-1.9,0-3.4,1.5-3.4,3.4v21.1c0,1.9,1.5,3.4,3.4,3.4H276c1.9,0,3.4-1.5,3.4-3.4V14.5  c0-1.9-1.5-3.4-3.4-3.4H195.6z"/>
    <g class="st1">
	<path class="st2" d="M220.8,18.8h-0.6c0-0.1-0.1-0.3-0.2-0.7h-0.9c-0.1,0.4-0.2,0.6-0.2,0.7h-0.6c0,0,0.1-0.4,0.4-1.2   c0.3-0.7,0.4-1.2,0.4-1.2h0.7c0,0.1,0.1,0.5,0.4,1.2S220.8,18.7,220.8,18.8L220.8,18.8z M220,17.7c-0.2-0.6-0.3-1-0.3-1l0,0   c0,0-0.1,0.4-0.3,1H220z M223.2,18.8h-0.5c0-0.1-0.2-0.3-0.5-0.8c-0.4-0.5-0.6-0.9-0.6-1l0,0c0,0.3,0,0.5,0,0.7c0,0.3,0,0.7,0,1.1   h-0.5c0-0.8,0-1.6,0-2.4h0.6c0,0.1,0.2,0.3,0.5,0.8s0.5,0.8,0.6,1l0,0c0-0.2,0-0.5,0-0.7c0-0.3,0-0.7,0-1h0.5c0,0.3,0,0.7,0,1.2   C223.2,18,223.2,18.4,223.2,18.8z M225.9,17.5c0,0.4-0.1,0.7-0.3,0.9c-0.2,0.3-0.5,0.4-0.9,0.4c-0.2,0-0.4,0-0.8,0   c0-0.8,0-1.6,0-2.4h0.3c0.1,0,0.1,0,0.2,0h0.2c0.4,0,0.8,0.1,1,0.3C225.8,16.9,225.9,17.2,225.9,17.5L225.9,17.5z M225.4,17.6   c0-0.2-0.1-0.4-0.2-0.6c-0.1-0.2-0.4-0.2-0.6-0.2c-0.1,0-0.1,0-0.2,0c0,0.2,0,0.5,0,0.8s0,0.6,0,0.9c0.1,0,0.2,0,0.2,0   c0.3,0,0.5-0.1,0.6-0.2C225.3,18,225.4,17.8,225.4,17.6z M228.4,18.8h-0.5c-0.1-0.4-0.3-0.7-0.3-0.8c-0.1-0.1-0.2-0.2-0.4-0.2H227   c0,0.3,0,0.6,0,1h-0.5c0-0.8,0-1.6,0-2.4h0.3h0.2c0.1,0,0.2,0,0.3,0c0.6,0,0.9,0.2,0.9,0.6c0,0.3-0.2,0.5-0.5,0.6l0,0   c0.1,0,0.2,0.1,0.3,0.3C228.1,18.1,228.2,18.4,228.4,18.8z M227.7,17.1c0-0.2-0.2-0.4-0.5-0.4c-0.1,0-0.2,0-0.3,0   c0,0.2,0,0.4,0,0.7c0.1,0,0.1,0,0.2,0C227.5,17.5,227.7,17.3,227.7,17.1z M231,17.5c0,0.4-0.1,0.7-0.3,0.9   c-0.2,0.3-0.5,0.4-0.9,0.4c-0.3,0-0.6-0.1-0.8-0.3c-0.2-0.2-0.3-0.5-0.3-0.9s0.1-0.7,0.3-0.9c0.2-0.2,0.5-0.4,0.9-0.4   c0.3,0,0.6,0.1,0.8,0.3S231,17.2,231,17.5z M230.5,17.6c0-0.3-0.1-0.5-0.2-0.6c-0.1-0.2-0.3-0.2-0.5-0.2s-0.4,0.1-0.5,0.2   c-0.1,0.2-0.2,0.4-0.2,0.6c0,0.3,0.1,0.5,0.2,0.6c0.1,0.2,0.3,0.2,0.5,0.2s0.3-0.1,0.5-0.2C230.5,18,230.5,17.8,230.5,17.6   L230.5,17.6z M232.1,18.8h-0.5c0-0.8,0-1.6,0-2.4h0.5C232.1,17.2,232.1,18,232.1,18.8z M234.8,17.5c0,0.4-0.1,0.7-0.3,0.9   c-0.2,0.3-0.5,0.4-0.9,0.4c-0.2,0-0.4,0-0.8,0c0-0.8,0-1.6,0-2.4h0.3c0.1,0,0.1,0,0.2,0h0.2c0.4,0,0.8,0.1,1,0.3   C234.7,16.9,234.8,17.2,234.8,17.5L234.8,17.5z M234.3,17.6c0-0.2-0.1-0.4-0.2-0.6c-0.1-0.2-0.4-0.2-0.6-0.2c-0.1,0-0.1,0-0.2,0   c0,0.2,0,0.5,0,0.8s0,0.6,0,0.9c0.1,0,0.2,0,0.2,0c0.3,0,0.5-0.1,0.6-0.2C234.2,18,234.3,17.8,234.3,17.6z M238.3,18.8h-0.6   c0-0.1-0.1-0.3-0.2-0.7h-0.9c-0.1,0.4-0.2,0.6-0.2,0.7H236c0,0,0.1-0.4,0.4-1.2c0.3-0.7,0.4-1.2,0.4-1.2h0.7c0,0.1,0.1,0.5,0.4,1.2   S238.3,18.7,238.3,18.8L238.3,18.8z M237.5,17.7c-0.2-0.6-0.3-1-0.3-1l0,0c0,0-0.1,0.4-0.3,1H237.5z M240.5,17   c0,0.3-0.1,0.5-0.3,0.7c-0.2,0.1-0.5,0.2-0.8,0.2c-0.1,0-0.1,0-0.1,0c0,0.2,0,0.5,0,0.9h-0.5c0-0.4,0-0.8,0-1.3c0-0.4,0-0.8,0-1.2   h0.3c0,0,0.1,0,0.3,0s0.2,0,0.3,0c0.2,0,0.4,0.1,0.6,0.2C240.4,16.6,240.5,16.8,240.5,17L240.5,17z M240,17.1   c0-0.3-0.2-0.4-0.5-0.4c-0.1,0-0.2,0-0.3,0c0,0.2,0,0.5,0,0.8h0.1C239.8,17.5,240,17.4,240,17.1z M242.7,17c0,0.3-0.1,0.5-0.3,0.7   c-0.2,0.1-0.5,0.2-0.8,0.2c-0.1,0-0.1,0-0.1,0c0,0.2,0,0.5,0,0.9H241c0-0.4,0-0.8,0-1.3c0-0.4,0-0.8,0-1.2h0.3c0,0,0.1,0,0.3,0   s0.2,0,0.3,0c0.2,0,0.4,0.1,0.6,0.2C242.6,16.6,242.7,16.8,242.7,17L242.7,17z M242.3,17.1c0-0.3-0.2-0.4-0.5-0.4   c-0.1,0-0.2,0-0.3,0c0,0.2,0,0.5,0,0.8h0.1C242,17.5,242.3,17.4,242.3,17.1z M246.4,17.5c0,0.4-0.1,0.7-0.3,0.9   c-0.2,0.3-0.5,0.4-0.9,0.4c-0.3,0-0.6-0.1-0.8-0.3c-0.2-0.2-0.3-0.5-0.3-0.9s0.1-0.7,0.3-0.9c0.2-0.2,0.5-0.4,0.9-0.4   c0.3,0,0.6,0.1,0.8,0.3S246.4,17.2,246.4,17.5z M245.9,17.6c0-0.3-0.1-0.5-0.2-0.6c-0.1-0.2-0.3-0.2-0.5-0.2s-0.4,0.1-0.5,0.2   c-0.1,0.2-0.2,0.4-0.2,0.6c0,0.3,0.1,0.5,0.2,0.6c0.1,0.2,0.3,0.2,0.5,0.2s0.3-0.1,0.5-0.2C245.8,18,245.9,17.8,245.9,17.6   L245.9,17.6z M248.9,18.8h-0.5c0-0.1-0.2-0.3-0.5-0.8c-0.4-0.5-0.6-0.9-0.6-1l0,0c0,0.3,0,0.5,0,0.7c0,0.3,0,0.7,0,1.1h-0.5   c0-0.8,0-1.6,0-2.4h0.6c0,0.1,0.2,0.3,0.5,0.8s0.5,0.8,0.6,1l0,0c0-0.2,0-0.5,0-0.7c0-0.3,0-0.7,0-1h0.5c0,0.3,0,0.7,0,1.2   C248.8,18,248.9,18.4,248.9,18.8z"/>
</g>
    <g class="st1">
	<path class="st2" d="M227,26.5c0,1.2-0.4,2.2-1.1,2.9c-0.8,0.8-1.9,1.3-3.1,1.3c-1.2,0-2.3-0.4-3.2-1.3s-1.3-1.9-1.3-3.2   s0.4-2.3,1.3-3.2s1.9-1.3,3.2-1.3c0.6,0,1.2,0.1,1.8,0.4c0.6,0.2,1,0.6,1.3,1l-0.8,0.8c-0.6-0.7-1.3-1-2.3-1c-0.9,0-1.7,0.3-2.3,1   s-1,1.5-1,2.5s0.3,1.8,1,2.5c0.7,0.6,1.4,1,2.3,1c1,0,1.8-0.3,2.4-1c0.4-0.4,0.7-1,0.7-1.7h-3.1v-1h4.2C227,26.1,227,26.3,227,26.5   z M228.3,25.3c0.6-0.6,1.3-0.9,2.2-0.9s1.6,0.3,2.2,0.9s0.9,1.3,0.9,2.2s-0.3,1.6-0.9,2.2s-1.3,0.9-2.2,0.9s-1.6-0.3-2.2-0.9   c-0.6-0.6-0.9-1.3-0.9-2.2S227.8,25.9,228.3,25.3z M229.1,29c0.4,0.4,0.8,0.6,1.3,0.6s1-0.2,1.3-0.6s0.6-0.9,0.6-1.5   s-0.2-1.2-0.6-1.5c-0.4-0.4-0.8-0.6-1.3-0.6s-1,0.2-1.3,0.6c-0.4,0.4-0.6,0.9-0.6,1.5S228.8,28.7,229.1,29z M234.7,25.3   c0.6-0.6,1.3-0.9,2.2-0.9s1.6,0.3,2.2,0.9s0.9,1.3,0.9,2.2s-0.3,1.6-0.9,2.2s-1.3,0.9-2.2,0.9s-1.6-0.3-2.2-0.9   c-0.6-0.6-0.9-1.3-0.9-2.2S234.2,25.9,234.7,25.3z M235.5,29c0.4,0.4,0.8,0.6,1.3,0.6s1-0.2,1.3-0.6s0.6-0.9,0.6-1.5   s-0.2-1.2-0.6-1.5c-0.4-0.4-0.8-0.6-1.3-0.6s-1,0.2-1.3,0.6c-0.4,0.4-0.6,0.9-0.6,1.5C235,28.2,235.2,28.7,235.5,29z M243.2,33.2   c-0.7,0-1.3-0.2-1.7-0.5s-0.8-0.7-0.9-1.2l1-0.4c0.1,0.3,0.3,0.6,0.6,0.8s0.6,0.3,1,0.3c0.6,0,1.1-0.2,1.4-0.5   c0.3-0.4,0.5-0.9,0.5-1.5v-0.6l0,0c-0.2,0.3-0.5,0.5-0.8,0.7c-0.4,0.2-0.8,0.3-1.2,0.3c-0.8,0-1.4-0.3-2-0.9s-0.8-1.3-0.8-2.2   s0.3-1.6,0.8-2.2c0.6-0.6,1.2-0.9,2-0.9c0.4,0,0.8,0.1,1.2,0.3c0.4,0.2,0.6,0.4,0.8,0.7l0,0v-0.8h1.1v5.6c0,1-0.3,1.8-0.9,2.3   C244.7,33,244,33.2,243.2,33.2z M243.3,29.6c0.5,0,1-0.2,1.3-0.6c0.4-0.4,0.5-0.9,0.5-1.5s-0.2-1.2-0.5-1.5   c-0.3-0.4-0.8-0.6-1.3-0.6s-0.9,0.2-1.3,0.6c-0.4,0.4-0.6,0.9-0.6,1.5s0.2,1.2,0.6,1.5C242.3,29.4,242.7,29.6,243.3,29.6z    M248.3,30.4h-1.1v-8.6h1.1V30.4z M252,30.6c-0.9,0-1.6-0.3-2.2-0.9c-0.6-0.6-0.8-1.3-0.8-2.2c0-0.9,0.3-1.6,0.8-2.2   s1.2-0.9,2.1-0.9s1.6,0.3,2.1,0.9s0.8,1.3,0.8,2.3v0.2h-4.6c0,0.6,0.2,1.1,0.6,1.4c0.4,0.3,0.8,0.5,1.3,0.5c0.8,0,1.3-0.3,1.6-1   l1,0.4c-0.2,0.5-0.5,0.9-0.9,1.1C253.1,30.5,252.6,30.6,252,30.6z M253.5,26.8c0-0.3-0.2-0.7-0.5-1s-0.7-0.5-1.3-0.5   c-0.4,0-0.8,0.1-1.1,0.4s-0.5,0.6-0.6,1h3.5L253.5,26.8L253.5,26.8z M259,30.4h-1.1v-8.6h2.9c0.7,0,1.4,0.2,1.9,0.7   s0.8,1.1,0.8,1.8c0,0.7-0.3,1.3-0.8,1.8s-1.2,0.7-1.9,0.7H259C259,27,259,30.4,259,30.4z M259,25.9h1.8c0.5,0,0.8-0.2,1.1-0.5   c0.3-0.3,0.4-0.7,0.4-1c0-0.4-0.1-0.7-0.4-1s-0.7-0.5-1.1-0.5H259V25.9z M265.4,30.4h-1.1v-8.6h1.1V30.4z M268.2,30.6   c-0.6,0-1.1-0.2-1.6-0.5c-0.4-0.4-0.6-0.8-0.6-1.4s0.2-1.1,0.7-1.5s1.1-0.5,1.8-0.5c0.6,0,1.2,0.1,1.6,0.4v-0.2   c0-0.4-0.1-0.8-0.4-1c-0.3-0.3-0.7-0.4-1.1-0.4c-0.3,0-0.6,0.1-0.9,0.2c-0.3,0.2-0.4,0.4-0.5,0.6l-1-0.4c0.1-0.4,0.4-0.7,0.8-1   s0.9-0.4,1.6-0.4c0.8,0,1.4,0.2,1.9,0.7c0.5,0.4,0.7,1.1,0.7,1.9v3.5h-1.1v-0.8l0,0C269.7,30.3,269.1,30.6,268.2,30.6L268.2,30.6z    M268.4,29.6c0.5,0,0.9-0.2,1.2-0.5c0.4-0.3,0.6-0.7,0.6-1.2c-0.3-0.3-0.8-0.4-1.4-0.4c-0.5,0-0.9,0.1-1.2,0.3   c-0.3,0.2-0.4,0.5-0.4,0.8s0.1,0.5,0.4,0.7C267.8,29.5,268.1,29.6,268.4,29.6L268.4,29.6z M273.6,33h-1.1l1.4-3l-2.4-5.5h1.2   l1.7,4.2l0,0l1.7-4.2h1.2L273.6,33L273.6,33z"/>
</g>
    <g class="st1">
	<path class="st2" d="M197.8,26c0-2.7,0-5.5,0-8.2c0-0.3,0.1-0.6,0.3-0.9c0.1-0.1,0.2-0.1,0.3,0c1.8,1.9,3.7,3.8,5.5,5.6   c1.2,1.2,2.4,2.4,3.6,3.6c0.1,0.1,0.1,0.2,0,0.3c-2.9,2.9-5.9,5.8-8.8,8.8c-0.2,0.2-0.3,0.2-0.5,0c-0.3-0.2-0.4-0.6-0.4-0.9   c0-1.6,0-3.2,0-4.9L197.8,26L197.8,26L197.8,26z M198.8,16.6c0.2,0,0.4,0.1,0.5,0.1c3.8,2.1,7.5,4.2,11.3,6.3   c0.2,0.1,0.2,0.1,0,0.3c-0.8,0.8-1.7,1.7-2.5,2.5c-0.1,0.1-0.1,0.1-0.3,0C204.8,22.8,201.8,19.7,198.8,16.6   C198.9,16.7,198.9,16.7,198.8,16.6L198.8,16.6z M199.7,35.2c2.7-2.8,5.4-5.5,8.2-8.3c0.2-0.2,0.2-0.1,0.4,0   c0.7,0.7,1.4,1.4,2.1,2.1c0.1,0.1,0.1,0.2,0,0.3c-3.5,1.9-7,3.8-10.5,5.7C199.8,35.1,199.7,35.2,199.7,35.2z M215.2,26.1   c0,0.3-0.1,0.5-0.4,0.7c-0.2,0.1-0.3,0.2-0.5,0.3c-1.1,0.6-2.1,1.2-3.2,1.8c-0.1,0.1-0.2,0.1-0.3,0c-0.8-0.8-1.5-1.5-2.3-2.3   c-0.1-0.1-0.1-0.2,0-0.3c0.9-0.9,1.8-1.8,2.6-2.6c0.1-0.1,0.2-0.1,0.3,0c1,0.6,2.1,1.2,3.1,1.8C215,25.5,215.2,25.7,215.2,26.1   L215.2,26.1z"/>
</g>
    <g class="st1">
	<path class="st2" d="M19.8,40.3c-0.1,0.8-0.5,1.5-1.1,1.9s-1.4,0.7-2.4,0.7c-1.1,0-1.9-0.3-2.6-1c-0.6-0.7-1-1.5-1-2.7v-0.8   c0-0.7,0.1-1.4,0.5-1.9c0.3-0.6,0.7-1,1.3-1.3c0.5-0.3,1.2-0.4,1.9-0.4c1,0,1.7,0.2,2.3,0.7s0.9,1.1,1,1.9h-1.2   c-0.1-0.6-0.3-1.1-0.7-1.4s-0.8-0.4-1.5-0.4c-0.8,0-1.4,0.2-1.8,0.7s-0.6,1.2-0.6,2.1v0.8c0,0.8,0.2,1.5,0.6,2s1,0.8,1.7,0.8   c0.7,0,1.2-0.1,1.5-0.4s0.6-0.7,0.7-1.4C18.6,40.3,19.8,40.3,19.8,40.3z M23.8,39.3h-1.1v3.5h-1.2V35h1.2v3.4h0.9l3.2-3.4h1.5   l-3.5,3.8l3.7,4H27C27.1,42.8,23.8,39.3,23.8,39.3z M34.6,40.8h-3.8l-0.9,2h-1.2l3.5-7.8h1l3.5,7.8h-1.2L34.6,40.8z M31.2,39.9h3.1   l-1.5-3.7L31.2,39.9z M44.1,35v7.8H43v-3.2c-0.4,0.1-0.8,0.2-1.2,0.2s-0.8,0.1-1.2,0.1c-1,0-1.8-0.2-2.3-0.6   c-0.5-0.4-0.8-1-0.8-1.8V35h1.2v2.5c0,0.5,0.1,0.9,0.4,1.2c0.3,0.2,0.8,0.4,1.4,0.4c0.8,0,1.6-0.1,2.4-0.3V35   C43,35,44.1,35,44.1,35z M51.4,40.8h-3.8l-0.9,2h-1.2L49,35h1l3.5,7.8h-1.2L51.4,40.8z M48,39.9h3.1l-1.5-3.7L48,39.9z M60.2,35.8   h-2.9v7h-1.2v-7h-2.9V35h7L60.2,35.8L60.2,35.8z M62.7,38.2H65c0.9,0,1.7,0.2,2.2,0.6s0.8,1,0.8,1.7s-0.3,1.3-0.8,1.7   s-1.3,0.6-2.2,0.7h-3.5V35h1.2V38.2z M62.7,39v3h2.2c0.6,0,1.1-0.1,1.4-0.4s0.5-0.6,0.5-1.1c0-0.4-0.2-0.8-0.5-1   C66,39.2,65.6,39,65,39H62.7L62.7,39z M79.6,42.8h-1.2v-7H74v7h-1.2V35h6.8C79.6,35,79.6,42.8,79.6,42.8z M83,39.7v3.1h-1.2V35h3.3   c1,0,1.8,0.2,2.3,0.7c0.6,0.4,0.8,1,0.8,1.7c0,0.8-0.3,1.3-0.8,1.8c-0.5,0.4-1.3,0.6-2.4,0.6L83,39.7C83,39.8,83,39.7,83,39.7z    M83,38.9h2.1c0.6,0,1.1-0.1,1.5-0.4c0.3-0.3,0.5-0.6,0.5-1.1s-0.2-0.8-0.5-1.1s-0.8-0.4-1.4-0.4H83C83,35.8,83,38.9,83,38.9z    M95.5,35h1.2v7.8h-1.2v-6l-4.5,6h-1.2V35H91v6L95.5,35z M105.8,35v7.8h-1.2v-7h-3.2l-0.2,3.1c-0.1,1-0.2,1.8-0.4,2.3   c-0.2,0.5-0.5,0.9-0.8,1.2s-0.8,0.4-1.4,0.4h-0.4V42h0.2c0.4,0,0.7-0.1,0.9-0.3s0.4-0.5,0.5-0.9s0.2-1.1,0.2-1.9l0.2-3.8L105.8,35   L105.8,35z M114.9,39.1c0,0.8-0.1,1.4-0.4,2s-0.7,1-1.3,1.3s-1.2,0.5-1.9,0.5c-0.7,0-1.3-0.2-1.9-0.5s-1-0.7-1.3-1.3   s-0.5-1.2-0.5-1.9v-0.6c0-0.8,0.2-1.4,0.5-2s0.7-1,1.3-1.3s1.2-0.5,1.9-0.5c0.7,0,1.4,0.2,1.9,0.5s1,0.7,1.3,1.3s0.4,1.2,0.4,2   C114.9,38.7,114.9,39.1,114.9,39.1z M113.8,38.6c0-0.9-0.2-1.6-0.6-2.1s-1-0.7-1.8-0.7s-1.3,0.2-1.8,0.7c-0.4,0.5-0.7,1.2-0.7,2.1   v0.6c0,0.9,0.2,1.6,0.7,2.1s1,0.8,1.8,0.8s1.4-0.2,1.8-0.7s0.6-1.2,0.7-2.1L113.8,38.6C113.9,38.6,113.8,38.6,113.8,38.6z    M122.9,39.2h-1v3.6h-1.2v-3.6h-1l-2.6,3.6h-1.5l3-4.1l-2.8-3.7h1.4l2.4,3.4h1V35h1.2v3.4h1l2.4-3.4h1.4l-2.8,3.7l3,4.1h-1.5   C125.5,42.8,122.9,39.2,122.9,39.2z M133.2,39.2h-3.9V42h4.6v0.8h-5.7V35h5.7v0.8h-4.5v2.5h3.9C133.2,38.3,133.2,39.2,133.2,39.2z    M142.3,42.8h-1.2v-3.6h-4.6v3.6h-1.2V35h1.2v3.4h4.6V35h1.2V42.8z M150.1,35h1.2v7.8h-1.2v-6l-4.5,6h-1.2V35h1.2v6L150.1,35z    M158.6,39.2h-3.9V42h4.6v0.8h-5.7V35h5.7v0.8h-4.5v2.5h3.9L158.6,39.2L158.6,39.2z"/>
</g>
    <g>
	<path class="st4" d="M53.2,21.4h-3.5l-0.5,1.1H47v-0.3l3.9-8.4h1l4,8.4v0.3h-2.2L53.2,21.4z M51.5,17.3l-1,2.3h2L51.5,17.3z    M55.3,15.9v-2h6.5v2h-2.1v6.6h-2.2v-6.6H55.3z M63.4,22.5h-2.2v-0.3l3.9-8.4h1l4,8.4v0.3h-2.2l-2.3-5L63.4,22.5z M76.7,21.4h-3.5   l-0.5,1.1h-2.2v-0.3l3.9-8.4h1l4,8.4v0.3h-2.2C77.2,22.5,76.7,21.4,76.7,21.4z M75,17.3l-1,2.3h2L75,17.3z M84,13.8   c1.8,0,3.8,1,4.1,3.3h-2.2c-0.3-0.9-1-1.3-1.9-1.3c-1.3,0-2.2,1-2.2,2.4c0,1.3,0.9,2.4,2.2,2.4c1,0,1.7-0.5,2-1.4h2.2   c-0.3,2.4-2.3,3.4-4.2,3.4c-2.2,0-4.5-1.5-4.5-4.4S81.7,13.8,84,13.8z M99.3,22.5H97v-6.6h-2.7v6.6H92v-8.6h7.3V22.5z M106.4,21.4   H103l-0.5,1.1h-2.2v-0.3l3.9-8.4h1l4,8.4v0.3H107L106.4,21.4z M104.7,17.3l-1,2.3h2L104.7,17.3z M110.1,13.9h2.3v6.6h2.5v-6.6h2.3   v6.7h0.9v2.9h-1.8v-1h-6.2L110.1,13.9L110.1,13.9z M120.3,22.5h-0.8v-8.6h2.3v4.2l4.4-4.2h0.8v8.6h-2.3v-4.2L120.3,22.5z    M134.5,15.9h-3.2v1.2h3v2h-3v1.5h3.4v2H129V14h5.5C134.5,13.9,134.5,15.9,134.5,15.9z M143.7,22.5h-2.3v-3.4h-2.7v3.4h-2.3v-8.6   h2.3V17h2.7v-3.1h2.3V22.5z M144.7,15.9v-2h6.5v2h-2.1v6.6h-2.2v-6.6H144.7z M156.8,21.4h-3.5l-0.5,1.1h-2.2v-0.3l3.9-8.4h1l4,8.4   v0.3h-2.2L156.8,21.4z M155.1,17.3l-1,2.3h2L155.1,17.3z"/>
</g>
    <g>
	<path class="st4" d="M39.1,12.4h-9c-0.1,0-0.1-0.1-0.1-0.1l0.1-0.1l0,0h9c0.1,0,0.1,0.1,0.1,0.1L39.1,12.4L39.1,12.4z M39.1,13.8   h-9c-0.1,0-0.1-0.1-0.1-0.1l0.1-0.1l0,0h9c0.1,0,0.1,0.1,0.1,0.1S39.1,13.7,39.1,13.8L39.1,13.8z M37.1,10.9H32   c-0.1,0-0.2-0.1-0.2-0.2c0-0.1,0.1-0.2,0.2-0.2h5.1c0.1,0,0.2,0.1,0.2,0.2C37.3,10.8,37.2,10.9,37.1,10.9z"/>
</g>
    <path class="st4" d="M43.7,12.9c0-2.9-1.6-4.7-1.8-5c-0.2-0.2-2-2.6-5.5-2.6c-3,0-5.2,1.9-6.2,2.8h-1.1c-0.6,0-1.2,0.5-1.2,1.1v0.9  c-0.5-0.5-1-1-1.5-1.4c-0.2-0.3-2.9-3.3-6.7-3.3c-3.6,0-5.4,2.3-5.5,2.5c-0.2,0.2-1.8,2-1.8,5c0,0.1,0,0.2,0,0.3l0,0  c0,0,0,0.1,0,0.3c0.1,1.7,0.8,3.3,1.9,4.6c0.2,0.3,2.6,2.5,2.6,2.5L28.1,30l0,0l0,0l12.7-10.9c0,0,0.6-0.4,1.2-1.3  c0.2-0.2,0.3-0.4,0.5-0.6c0.6-0.9,1-1.9,1.2-2.9c0-0.1,0-0.2,0-0.2l0,0C43.7,13.7,43.7,13.4,43.7,12.9z M24.2,14.3  c0,0.3-0.3,0.6-0.7,0.6h-2c-0.1,0-0.1,0-0.1,0.1v2c0,0.3-0.3,0.5-0.6,0.5h-2c-0.3,0-0.6-0.2-0.6-0.5v-2c0-0.1,0-0.1,0-0.1h-2  c-0.3,0-0.5-0.3-0.5-0.6v-2c0-0.3,0.2-0.6,0.5-0.6h2c0.1,0,0,0,0-0.1v-2c0-0.3,0.3-0.5,0.6-0.5h2c0.3,0,0.6,0.2,0.6,0.5v2  c0,0.1,0,0.1,0.1,0.1h2c0.3,0,0.7,0.3,0.7,0.6V14.3L24.2,14.3z M40.7,15c-2.9,0.5-7.6,0.2-12.3-4.4V9.3c0-0.4,0.3-0.7,0.7-0.7H40  c0.4,0,0.7,0.3,0.7,0.7V15L40.7,15z"/>
    <g>
	<path class="st4" d="M17.2,37.5c0-0.3-0.1-0.6-0.4-0.8c-0.3-0.2-0.6-0.3-1.1-0.3c-0.4,0-0.7,0.1-1,0.3c-0.3,0.2-0.4,0.4-0.4,0.7   h-1.4c0-0.4,0.1-0.8,0.4-1.1s0.6-0.6,1-0.7c0.4-0.2,0.9-0.3,1.4-0.3c0.9,0,1.6,0.2,2.2,0.5s0.8,0.9,0.8,1.5c0,0.3-0.1,0.6-0.3,0.9   c-0.2,0.3-0.5,0.5-0.9,0.7c0.5,0.1,0.8,0.4,1,0.6c0.2,0.3,0.4,0.6,0.4,1.1c0,0.7-0.3,1.2-0.8,1.6c-0.6,0.4-1.3,0.6-2.2,0.6   c-0.6,0-1.1-0.1-1.5-0.3c-0.5-0.2-0.8-0.4-1-0.8s-0.3-0.7-0.3-1.1h1.4c0,0.3,0.1,0.6,0.4,0.8c0.3,0.2,0.7,0.3,1.1,0.3   c0.5,0,0.9-0.1,1.2-0.3c0.3-0.2,0.5-0.5,0.5-0.8c0-0.4-0.1-0.7-0.4-0.9c-0.3-0.2-0.7-0.3-1.2-0.3h-0.9v-1h0.9   C16.7,38.6,17.2,38.2,17.2,37.5z"/>
        <path class="st4" d="M24.5,41.1h-3.1l-0.7,1.7h-1.5l3-7.3h1.3l3.1,7.3h-1.5L24.5,41.1z M21.8,40.1h2.3l-1.2-3L21.8,40.1z"/>
        <path class="st4" d="M33.9,42.8h-1.4v-6.3H29v6.3h-1.4v-7.3h6.3V42.8z"/>
        <path class="st4" d="M38.5,39.3l1.6-3.8h1.6l-2.8,6.1L38.6,42c-0.4,0.6-1,0.9-1.8,0.9l-0.6,0l0-1c0.1,0,0.2,0,0.5,0   c0.4,0,0.7-0.2,0.8-0.5l0.3-0.6l-2.8-5.3h1.5L38.5,39.3z"/>
        <path class="st4" d="M48.8,40.4c-0.1,0.8-0.4,1.4-1,1.8c-0.6,0.4-1.3,0.7-2.2,0.7c-0.6,0-1.2-0.1-1.7-0.4s-0.9-0.7-1.1-1.2   c-0.3-0.5-0.4-1.1-0.4-1.8v-0.7c0-0.7,0.1-1.3,0.4-1.8c0.3-0.5,0.7-0.9,1.2-1.2c0.5-0.3,1.1-0.4,1.7-0.4c0.9,0,1.6,0.2,2.1,0.7   c0.5,0.4,0.9,1.1,0.9,1.9h-1.4c-0.1-0.5-0.2-0.9-0.5-1.1c-0.3-0.2-0.7-0.3-1.2-0.3c-0.6,0-1.1,0.2-1.4,0.6c-0.3,0.4-0.5,1-0.5,1.8   v0.6c0,0.8,0.2,1.4,0.5,1.8c0.3,0.4,0.8,0.6,1.4,0.6c0.6,0,1-0.1,1.2-0.3c0.3-0.2,0.5-0.6,0.5-1.1H48.8z"/>
        <path class="st4" d="M55.7,36.5h-2.5v6.3h-1.4v-6.3h-2.5v-1h6.4V36.5z"/>
        <path class="st4" d="M61.7,35.5h1.4v7.3h-1.4v-5.2l-3.5,5.2h-1.4v-7.3h1.4v5.2L61.7,35.5z"/>
        <path class="st4" d="M70.4,36.5h-2.5v6.3h-1.4v-6.3H64v-1h6.4V36.5z"/>
        <path class="st4" d="M72.9,38.3h1.7c0.6,0,1.1,0.1,1.5,0.3c0.4,0.2,0.8,0.4,1,0.8c0.2,0.3,0.3,0.7,0.3,1.2c0,0.7-0.3,1.2-0.8,1.6   c-0.5,0.4-1.2,0.6-2.1,0.6h-3.1v-7.3h1.4V38.3z M72.9,39.3v2.5h1.6c0.5,0,0.8-0.1,1.1-0.3s0.4-0.5,0.4-0.9c0-0.4-0.1-0.7-0.4-0.9   s-0.6-0.3-1.1-0.3H72.9z"/>
        <path class="st4" d="M87.9,42.8h-1.4v-6.3H83v6.3h-1.4v-7.3h6.3V42.8z"/>
        <path class="st4" d="M91,40.1v2.7h-1.4v-7.3h3.1c0.9,0,1.6,0.2,2.1,0.6c0.5,0.4,0.8,1,0.8,1.7c0,0.7-0.3,1.3-0.8,1.7   s-1.2,0.6-2.2,0.6H91z M91,39.1h1.7c0.5,0,0.9-0.1,1.1-0.3c0.3-0.2,0.4-0.5,0.4-0.9c0-0.4-0.1-0.7-0.4-0.9s-0.6-0.4-1.1-0.4H91   V39.1z"/>
        <path class="st4" d="M101.8,35.5h1.4v7.3h-1.4v-5.2l-3.5,5.2h-1.4v-7.3h1.4v5.2L101.8,35.5z"/>
        <path class="st4" d="M111.3,35.5v7.3h-1.4v-6.3h-2.5l-0.1,2.8c-0.1,0.9-0.2,1.6-0.4,2.1c-0.2,0.5-0.4,0.8-0.8,1.1   c-0.3,0.2-0.8,0.3-1.4,0.3h-0.4v-1l0.2,0c0.3,0,0.6-0.1,0.7-0.3c0.2-0.2,0.3-0.4,0.4-0.8c0.1-0.4,0.2-0.9,0.2-1.6l0.2-3.6H111.3z"/>
        <path class="st4" d="M119.4,39.3c0,0.7-0.1,1.3-0.4,1.9s-0.7,1-1.2,1.2c-0.5,0.3-1.1,0.4-1.8,0.4c-0.7,0-1.2-0.1-1.7-0.4   s-0.9-0.7-1.2-1.2c-0.3-0.5-0.4-1.2-0.4-1.9V39c0-0.7,0.1-1.3,0.4-1.9c0.3-0.5,0.7-1,1.2-1.3c0.5-0.3,1.1-0.4,1.7-0.4   s1.2,0.1,1.7,0.4c0.5,0.3,0.9,0.7,1.2,1.2c0.3,0.5,0.4,1.2,0.4,1.9V39.3z M118,39c0-0.8-0.2-1.4-0.5-1.9c-0.3-0.4-0.8-0.6-1.4-0.6   c-0.6,0-1.1,0.2-1.4,0.6c-0.3,0.4-0.5,1-0.5,1.8v0.4c0,0.8,0.2,1.4,0.5,1.9c0.3,0.4,0.8,0.7,1.4,0.7c0.6,0,1.1-0.2,1.4-0.6   c0.3-0.4,0.5-1.1,0.5-1.9V39z"/>
        <path class="st4" d="M127,39.6h-0.9v3.2h-1.4v-3.2h-0.9l-2,3.2H120l2.6-3.9l-2.4-3.4h1.7l1.9,3.1h0.9v-3.1h1.4v3.1h0.8l1.9-3.1h1.7   l-2.4,3.4l2.6,3.9h-1.7L127,39.6z"/>
        <path class="st4" d="M136.2,39.5h-3.3v2.2h3.9v1h-5.3v-7.3h5.2v1h-3.8v2h3.3V39.5z"/>
        <path class="st4" d="M144.3,42.8h-1.4v-3.2h-3.6v3.2h-1.4v-7.3h1.4v3h3.6v-3h1.4V42.8z"/>
        <path class="st4" d="M150.9,35.5h1.4v7.3h-1.4v-5.2l-3.5,5.2H146v-7.3h1.4v5.2L150.9,35.5z"/>
        <path class="st4" d="M158.7,39.5h-3.3v2.2h3.9v1H154v-7.3h5.2v1h-3.8v2h3.3V39.5z"/>
</g>
</svg>