<svg xmlns="http://www.w3.org/2000/svg" viewBox="0 0 220 50">
    <path fill="#009e54" d="M0 0h220v50H0z"/>
    <g fill="#FFF">
        <path d="M36.782 43.834v-7.82h2.673c.888 0 1.555.176 2.002.526.448.351.671.87.671 1.558 0 .365-.109.688-.326.97a2.1 2.1 0 0 1-.888.652c.442.118.791.343 1.048.674.256.331.385.727.385 1.185 0 .702-.238 1.253-.713 1.654-.476.401-1.148.602-2.017.602h-2.835zm1.079-4.484h1.629c.472 0 .849-.113 1.131-.34.283-.226.424-.532.424-.92 0-.431-.131-.744-.393-.939-.262-.195-.661-.293-1.197-.293H37.86v2.492zm0 .826v2.814h1.78c.502 0 .898-.124 1.188-.373s.435-.592.435-1.028c0-.941-.535-1.413-1.606-1.413h-1.797zM46.611 39.011l1.96-2.997h1.269l-2.583 3.878 2.646 3.942h-1.281l-2.011-3.051-2.022 3.051h-1.275l2.651-3.942-2.589-3.878h1.264l1.971 2.997zM57.306 40.176c0 .767-.135 1.436-.404 2.007s-.651 1.007-1.146 1.308c-.495.301-1.071.451-1.73.451-.644 0-1.215-.151-1.713-.454s-.885-.733-1.16-1.294c-.275-.561-.417-1.21-.424-1.947v-.564c0-.752.137-1.416.41-1.992s.66-1.018 1.16-1.324c.5-.306 1.072-.459 1.716-.459.655 0 1.233.151 1.732.454.5.303.885.741 1.154 1.315.27.575.404 1.244.404 2.006v.493zm-1.073-.504c0-.928-.194-1.64-.584-2.136s-.934-.743-1.634-.743c-.682 0-1.218.247-1.609.743s-.593 1.185-.604 2.065v.574c0 .899.198 1.605.593 2.119s.939.771 1.632.771c.696 0 1.235-.243 1.618-.729.382-.485.578-1.181.589-2.086v-.578zM66.096 45.752h-1.073v-1.918h-5.87v1.923h-1.078l-.005-2.767h.668c.352-.379.632-.889.84-1.527.208-.64.338-1.34.39-2.104l.18-3.346h4.892v6.977h1.067l-.011 2.762zm-6.128-2.762h3.988v-6.133h-2.769l-.118 2.301c-.049.899-.173 1.666-.374 2.301-.199.634-.442 1.145-.727 1.531zM70.235 43.834v-7.82h2.673c.888 0 1.555.176 2.002.526.448.351.671.87.671 1.558 0 .365-.109.688-.326.97a2.1 2.1 0 0 1-.888.652c.442.118.791.343 1.048.674.256.331.385.727.385 1.185 0 .702-.238 1.253-.713 1.654-.476.401-1.148.602-2.017.602h-2.835zm1.079-4.484h1.629c.472 0 .849-.113 1.131-.34.283-.226.424-.532.424-.92 0-.431-.131-.744-.393-.939-.262-.195-.661-.293-1.197-.293h-1.595v2.492zm0 .826v2.814h1.78c.502 0 .898-.124 1.188-.373s.435-.592.435-1.028c0-.941-.535-1.413-1.606-1.413h-1.797zM86.429 36.014v7.82H85.35v-6.977h-2.932l-.146 3.101c-.056 1.04-.168 1.821-.334 2.344-.167.523-.411.908-.733 1.153s-.752.372-1.292.379h-.353v-.844l.225-.01c.348-.025.616-.134.803-.325.187-.191.329-.497.427-.916.097-.419.167-1.063.208-1.934l.168-3.792h5.038zM93.54 36.014h1.078v7.82H93.54v-6.026l-4.027 6.026h-1.084v-7.82h1.084v6.026l4.027-6.026zM102.352 36.014v7.82h-1.084V40.59a7.995 7.995 0 0 1-1.073.223 8.776 8.776 0 0 1-1.101.063c-.933 0-1.625-.193-2.078-.58-.453-.386-.686-.979-.697-1.775v-2.506h1.084v2.481c.003.544.134.937.39 1.177.256.239.69.359 1.3.359.711 0 1.436-.097 2.174-.29v-3.728h1.085zM110.586 43.834h-1.084v-3.615h-4.123v3.615H104.3v-7.82h1.079v3.362h4.123v-3.362h1.084v7.82zM113.63 39.204h2.033c.854.011 1.521.22 2 .628.479.408.719.964.719 1.666 0 .705-.241 1.268-.725 1.686-.483.42-1.143.636-1.978.65h-3.128v-7.82h1.078v3.19zm0 .843v2.943h1.972c.535 0 .952-.136 1.25-.408.297-.272.446-.639.446-1.098 0-.441-.144-.789-.43-1.044s-.693-.386-1.222-.394h-2.016zm6.818 3.787h-1.078v-7.82h1.078v7.82zM127.604 36.014h1.078v7.82h-1.078v-6.026l-4.027 6.026h-1.084v-7.82h1.084v6.026l4.027-6.026zm-.303-1.95c0 .435-.154.784-.463 1.048-.309.265-.715.396-1.216.396-.502 0-.908-.133-1.219-.398-.312-.267-.467-.615-.467-1.046h.849c0 .25.07.446.213.588s.351.212.624.212c.262 0 .467-.069.614-.21.148-.139.223-.336.223-.59h.842zM135.62 40.321h-.994v3.513h-1.078v-7.82h1.078v3.448h.843l2.858-3.448h1.343l-3.123 3.792 3.354 4.028h-1.32l-2.961-3.513zM145.404 41.787h-3.426l-.77 2.047h-1.112l3.123-7.82h.943l3.129 7.82h-1.106l-.781-2.047zm-3.1-.843h2.78l-1.393-3.657-1.387 3.657zM153.38 36.857h-3.942v2.347h2.033c.854.011 1.521.22 1.999.628.479.408.72.964.72 1.666 0 .705-.242 1.268-.725 1.686-.483.42-1.143.636-1.978.65h-3.134v-7.82h5.026v.843zm-3.942 3.19v2.943h1.972c.535 0 .951-.136 1.249-.408s.447-.639.447-1.098c0-.441-.144-.789-.43-1.044-.287-.255-.694-.386-1.222-.394h-2.016zM160.8 36.014h1.078v7.82H160.8v-6.026l-4.027 6.026h-1.084v-7.82h1.084v6.026l4.027-6.026zM170.129 43.834h-1.084v-3.615h-4.123v3.615h-1.078v-7.82h1.078v3.362h4.123v-3.362h1.084v7.82zM176.667 40.219h-3.545v2.771h4.117v.844h-5.195v-7.82h5.14v.844h-4.062v2.519h3.545v.842zM184.345 36.857h-2.629v6.977h-1.072v-6.977h-2.623v-.844h6.324v.844z"/>
    </g>
    <g fill="#FFF">
        <path d="M76.714 22.394H73.26l-.513 1.08h-2.19v-.319l3.943-8.379h.964l3.955 8.379v.319h-2.19l-.515-1.08zm-1.74-4.134l-.989 2.257h2.003l-1.014-2.257zM78.829 16.849v-1.963h6.508v1.963h-2.14v6.625h-2.215v-6.625h-2.153zM86.938 23.474h-2.19v-.319l3.943-8.379h.964l3.955 8.379v.319h-2.19l-2.253-5.03-2.229 5.03zM100.233 22.394h-3.454l-.513 1.08h-2.19v-.319l3.943-8.379h.964l3.955 8.379v.319h-2.19l-.515-1.08zm-1.74-4.134l-.989 2.257h2.003l-1.014-2.257zM107.48 14.788c1.815 0 3.78.969 4.118 3.263h-2.203c-.313-.871-.976-1.264-1.915-1.264-1.314 0-2.178.969-2.178 2.392 0 1.264.851 2.368 2.178 2.38.951 0 1.715-.466 1.953-1.386h2.203c-.325 2.429-2.291 3.386-4.155 3.386-2.228.012-4.481-1.46-4.493-4.38.011-2.919 2.264-4.391 4.492-4.391zM122.839 23.474h-2.291v-6.563h-2.703v6.563h-2.291v-8.587h7.284v8.587zM129.957 22.394h-3.454l-.513 1.08h-2.19v-.319l3.943-8.379h.964l3.955 8.379v.319h-2.19l-.515-1.08zm-1.739-4.134l-.989 2.257h2.003l-1.014-2.257zM133.634 14.886h2.29v6.563h2.541v-6.563h2.291v6.686h.889v2.871h-1.84v-.969h-6.17v-8.588zM143.808 23.486h-.801v-8.6h2.29v4.208l4.431-4.245h.814v8.624h-2.316v-4.22l-4.418 4.233zM158.01 16.849h-3.242v1.214h2.979v1.951h-2.979v1.509h3.354v1.951h-5.582v-8.587h5.469l.001 1.962zM167.177 23.474h-2.29v-3.447h-2.703v3.447h-2.291v-8.587h2.291v3.116h2.703v-3.116h2.29v8.587zM168.249 16.849v-1.963h6.508v1.963h-2.14v6.625h-2.215v-6.625h-2.153zM180.32 22.394h-3.454l-.513 1.08h-2.19v-.319l3.943-8.379h.964l3.955 8.379v.319h-2.19l-.515-1.08zm-1.74-4.134l-.989 2.257h2.003l-1.014-2.257z"/>
    </g>
    <g fill="#FFF">
        <path d="M62.527 13.153H53.51a.133.133 0 1 1 0-.266h9.017a.133.133 0 1 1 0 .266zM62.518 14.531h-9.017a.133.133 0 1 1 0-.266h9.017a.133.133 0 1 1 0 .266zM60.576 11.676h-5.124a.188.188 0 1 1 0-.376h5.124a.188.188 0 1 1 0 .376z"/>
    </g>
    <path fill="#FFF" d="M67.153 13.723c0-2.937-1.635-4.742-1.803-4.951-.168-.21-1.972-2.558-5.539-2.558-2.969 0-5.237 1.907-6.203 2.772h-1.074c-.598 0-1.163.54-1.163 1.138v.893a55.15 55.15 0 0 0-1.507-1.43c-.241-.287-2.895-3.333-6.694-3.333-3.567 0-5.371 2.308-5.539 2.518s-1.804 2.014-1.804 4.951c0 .111.003.221.007.331l-.005-.003s.002.113.024.315a7.975 7.975 0 0 0 1.948 4.641c.226.262 2.595 2.462 2.595 2.462l11.109 9.318.001-.001.001.001 12.666-10.853s.588-.44 1.241-1.276c.167-.208.318-.423.455-.641a7.996 7.996 0 0 0 1.165-2.938c.023-.113.034-.178.034-.178l-.006.003c.058-.376.091-.768.091-1.181zm-19.46 1.381c0 .307-.347.59-.654.59h-2.045c-.069 0-.114.023-.114.092v2.045c0 .307-.26.46-.568.46h-2.045c-.307 0-.633-.153-.633-.46v-2.045c0-.069.02-.092-.048-.092h-2.045c-.307 0-.503-.282-.503-.59v-2.045c0-.307.196-.611.503-.611h2.045c.069 0 .048-.002.048-.07v-2.045c0-.307.326-.481.633-.481h2.045c.307 0 .568.174.568.481v2.045c0 .069.045.07.114.07h2.045c.307 0 .654.304.654.611v2.045zm16.443.696c-2.903.49-7.588.243-12.333-4.356v-1.318c0-.391.317-.707.707-.707h10.918c.391 0 .707.317.707.707V15.8z"/>
</svg>