<svg xmlns="http://www.w3.org/2000/svg" width="50" height="60">

    <g>
        <title>background</title>
        <rect fill="none" id="canvas_background" height="62" width="52" y="-1" x="-1"/>
    </g>
    <g>
        <title>Layer 1</title>
        <g stroke="null" id="svg_2">
            <g stroke="null" id="svg_3">
                <path stroke="null" id="svg_4" d="m24.923041,8.14272c1.149969,-1.156932 3.01817,-3.080842 2.601357,-2.673976c0,0 4.328299,-5.327061 10.654122,-5.327061c5.660313,0 8.523298,3.66279 8.789899,3.995047c0.266602,0.333252 2.862984,3.196237 2.862984,7.857788c0,6.325823 -4.728202,9.855311 -4.728202,9.855311l-20.095604,17.222672l-17.637496,-14.82823c0,0 -3.881642,-3.572264 -4.367096,-4.250706c-2.801308,-3.919444 -2.830157,-7.478776 -2.830157,-7.478776s12.363158,8.081614 24.750192,-4.37207z" fill="#009E54"/>
                <g stroke="null" id="svg_5">
                    <g stroke="null" id="svg_6">
                        <path stroke="null" id="svg_7" d="m26.631083,17.491687c-0.782894,0 -1.42055,-0.637656 -1.42055,-1.42055l0,-9.788661c0,-0.782894 0.637656,-1.42055 1.42055,-1.42055l17.392779,0c0.782894,0 1.42055,0.637656 1.42055,1.42055l0,9.788661c0,0.782894 -0.637656,1.42055 -1.42055,1.42055l-17.392779,0z" fill="#FFFFFF"/>
                        <path stroke="null" id="svg_8" d="m44.023863,5.160362c0.618755,0 1.12311,0.50336 1.12311,1.122115l0,9.788661c0,0.618755 -0.50336,1.122115 -1.12311,1.122115l-17.392779,0c-0.618755,0 -1.12311,-0.50336 -1.12311,-1.122115l0,-9.788661c0,-0.618755 0.50336,-1.122115 1.12311,-1.122115l17.392779,0m0,-0.59687l-17.392779,0c-0.949023,0 -1.718984,0.769962 -1.718984,1.718984l0,9.788661c0,0.949023 0.769962,1.718984 1.718984,1.718984l17.392779,0c0.949023,0 1.718984,-0.769962 1.718984,-1.718984l0,-9.788661c0,-0.949023 -0.769962,-1.718984 -1.718984,-1.718984l0,0z" fill="#02C76C"/>
                    </g>
                    <g stroke="null" id="svg_9">
                        <path stroke="null" id="svg_10" d="m42.489908,11.089266l-14.309948,0c-0.11639,0 -0.209899,-0.094504 -0.209899,-0.210894c0,-0.11639 0.094504,-0.210894 0.209899,-0.210894l14.309948,0c0.11639,0 0.209899,0.094504 0.209899,0.210894c0,0.117384 -0.094504,0.210894 -0.209899,0.210894z" fill="#02C76C"/>
                        <path stroke="null" id="svg_11" d="m42.474986,13.276793l-14.309948,0c-0.11639,0 -0.209899,-0.094504 -0.209899,-0.210894c0,-0.11639 0.094504,-0.210894 0.209899,-0.210894l14.309948,0c0.11639,0 0.209899,0.094504 0.209899,0.210894c0,0.11639 -0.09351,0.210894 -0.209899,0.210894z" fill="#02C76C"/>
                        <path stroke="null" id="svg_12" d="m39.393149,8.745558l-8.130358,0c-0.165134,0 -0.298435,-0.133301 -0.298435,-0.298435c0,-0.164139 0.133301,-0.298435 0.298435,-0.298435l8.130358,0c0.165134,0 0.298435,0.133301 0.298435,0.298435c-0.000995,0.165134 -0.134296,0.298435 -0.298435,0.298435z" fill="#02C76C"/>
                    </g>
                </g>
                <path stroke="null" id="svg_13" d="m25.027494,7.940779c-1.149969,-1.156932 -3.01817,-2.878901 -2.601357,-2.472035c0,0 -4.328299,-5.327061 -10.654122,-5.327061c-5.660313,0 -8.523298,3.66279 -8.789899,3.995047c-0.266602,0.333252 -2.862984,3.196237 -2.862984,7.857788c0,3.129586 1.093266,6.021419 3.133565,8.383033c0.359117,0.415819 4.1184,3.906511 4.1184,3.906511l17.628543,14.787444l17.25152,-14.82823c0,0 3.579228,-3.010212 4.490449,-4.027875c2.364598,-2.639158 2.954504,-6.353677 2.954504,-6.353677s-12.281586,6.532738 -24.66862,-5.920946z" fill="#02C76C"/>
                <g stroke="null" id="svg_14">
                    <path stroke="null" id="svg_15" d="m10.339528,19.05847c-0.462574,0 -0.838602,-0.376028 -0.838602,-0.838602l0,-3.244981c0,-0.133301 -0.108431,-0.242727 -0.242727,-0.242727l-3.244981,0c-0.462574,0 -0.838602,-0.376028 -0.838602,-0.838602l0,-3.244981c0,-0.462574 0.376028,-0.838602 0.838602,-0.838602l3.244981,0c0.133301,0 0.242727,-0.108431 0.242727,-0.242727l0,-3.244981c0,-0.462574 0.376028,-0.838602 0.838602,-0.838602l3.244981,0c0.462574,0 0.838602,0.376028 0.838602,0.838602l0,3.244981c0,0.133301 0.108431,0.242727 0.242727,0.242727l3.244981,0c0.462574,0 0.838602,0.376028 0.838602,0.838602l0,3.244981c0,0.462574 -0.376028,0.838602 -0.838602,0.838602l-3.244981,0c-0.133301,0 -0.242727,0.108431 -0.242727,0.242727l0,3.244981c0,0.462574 -0.376028,0.838602 -0.838602,0.838602l-3.244981,0z" fill="#E2001D"/>
                    <g stroke="null" id="svg_16">
                        <path stroke="null" id="svg_17" d="m13.584509,5.781106c0.298435,0 0.541162,0.241732 0.541162,0.541162l0,3.244981c0,0.298435 0.241732,0.541162 0.541162,0.541162l3.244981,0c0.298435,0 0.541162,0.241732 0.541162,0.541162l0,3.244981c0,0.298435 -0.241732,0.541162 -0.541162,0.541162l-3.244981,0c-0.298435,0 -0.541162,0.241732 -0.541162,0.541162l0,3.244981c0,0.298435 -0.241732,0.541162 -0.541162,0.541162l-3.244981,0c-0.298435,0 -0.541162,-0.241732 -0.541162,-0.541162l0,-3.244981c0,-0.298435 -0.241732,-0.541162 -0.541162,-0.541162l-3.244981,0c-0.298435,0 -0.541162,-0.241732 -0.541162,-0.541162l0,-3.244981c0,-0.298435 0.241732,-0.541162 0.541162,-0.541162l3.244981,0c0.298435,0 0.541162,-0.241732 0.541162,-0.541162l0,-3.244981c0,-0.298435 0.241732,-0.541162 0.541162,-0.541162l3.244981,0m0,-0.595875l-3.244981,0c-0.626713,0 -1.137037,0.510323 -1.137037,1.137037l0,3.189273l-3.189273,0c-0.626713,0 -1.137037,0.510323 -1.137037,1.137037l0,3.244981c0,0.626713 0.510323,1.137037 1.137037,1.137037l3.189273,0l0,3.189273c0,0.626713 0.510323,1.137037 1.137037,1.137037l3.244981,0c0.626713,0 1.137037,-0.510323 1.137037,-1.137037l0,-3.189273l3.189273,0c0.626713,0 1.137037,-0.510323 1.137037,-1.137037l0,-3.244981c0,-0.626713 -0.510323,-1.137037 -1.137037,-1.137037l-3.189273,0l0,-3.189273c0,-0.626713 -0.510323,-1.137037 -1.137037,-1.137037l0,0z" fill="#FFFFFF"/>
                    </g>
                </g>
            </g>
            <g stroke="null" id="АП_1_">
                <g stroke="null" id="svg_18">
                    <path stroke="null" id="svg_19" d="m7.455653,49.828091l-3.102727,0l-0.460584,0.988814l-1.966685,0l0,-0.291471l3.540431,-7.677732l0.865461,0l3.552369,7.677732l0,0.291471l-1.966685,0l-0.461579,-0.988814zm-1.562804,-3.788132l-0.888341,2.068153l1.798567,0l-0.910226,-2.068153z" fill="#E2001D"/>
                    <path stroke="null" id="svg_20" d="m11.813796,44.746742c0,-0.606817 0,-1.202692 0,-1.798567l7.211179,0c0,0.595875 0,1.19175 0,1.798567l-2.605336,0l0,6.070164c-0.66352,0 -1.326045,0 -1.989565,0l0,-6.070164l-2.616278,0z" fill="#E2001D"/>
                    <path stroke="null" id="svg_21" d="m22.922534,50.816905l-1.966685,0l0,-0.291471l3.540431,-7.677732l0.865461,0l3.552369,7.677732l0,0.291471l-1.96768,0l-2.023388,-4.607833l-2.000508,4.607833z" fill="#E2001D"/>
                    <path stroke="null" id="svg_22" d="m37.1718,49.828091l-3.101732,0l-0.460584,0.988814l-1.96768,0l0,-0.291471l3.540431,-7.677732l0.865461,0l3.552369,7.677732l0,0.291471l-1.966685,0l-0.461579,-0.988814zm-1.561809,-3.788132l-0.888341,2.068153l1.798567,0l-0.910226,-2.068153z" fill="#E2001D"/>
                    <path stroke="null" id="svg_23" d="m46.098979,42.859639c1.629454,0 3.394198,0.887346 3.697607,2.989322c-0.685405,0 -1.293217,0 -1.978623,0c-0.280529,-0.797816 -0.876403,-1.156932 -1.719979,-1.156932c-1.180807,0 -1.955743,0.887346 -1.955743,2.191506c0,1.157927 0.763993,2.169621 1.955743,2.180564c0.854518,0 1.539924,-0.426762 1.752807,-1.270337c0.674463,0 1.293217,0 1.978623,0c-0.292466,2.225329 -2.05721,3.101732 -3.73143,3.101732c-2.001503,0.011937 -4.023896,-1.336988 -4.035833,-4.012953c0.011937,-2.67497 2.035325,-4.022901 4.036828,-4.022901z" fill="#E2001D"/>
                </g>
                <g stroke="null" id="svg_24">
                    <g stroke="null" id="svg_25">
                        <path stroke="null" id="svg_26" d="m6.593177,59.177058c-0.498386,0 -0.996772,0 -1.495158,0l0,-4.371075l-1.764744,0l0,4.371075c-0.498386,0 -1.00473,0 -1.495158,0l0,-5.72c0.490428,0 0.996772,0 4.756056,0l0,5.72l-0.000995,0z" fill="#009E54"/>
                        <path stroke="null" id="svg_27" d="m11.778979,58.458825l-2.255172,0l-0.335242,0.719228l-1.430497,0l0,-0.212883l2.573503,-5.580731l0.629697,0l2.582456,5.580731l0,0.212883l-1.429503,0l-0.335242,-0.719228zm-1.136042,-2.754553l-0.645614,1.503117l1.307144,0l-0.66153,-1.503117z" fill="#009E54"/>
                        <path stroke="null" id="svg_28" d="m14.74741,53.458053l1.495158,0l0,4.37207l1.658303,0l0,-4.37207l1.495158,0l0,4.453642l0.579958,0l0,1.911972l-1.201697,0l0,-0.645614l-4.027875,0l0,-5.72l0.000995,0z" fill="#009E54"/>
                        <path stroke="null" id="svg_29" d="m21.953615,59.186011l-0.523256,0l0,-5.727958c0.498386,0 0.996772,0 1.495158,0l0,2.803297l2.892828,-2.827172l0.531214,0l0,5.74487c-0.498386,0 -1.00473,0 -1.51207,0l0,-2.81225l-2.883875,2.819214z" fill="#009E54"/>
                        <path stroke="null" id="svg_30" d="m31.795,54.765197c-0.849544,0 -1.274317,0 -2.115903,0l0,0.808758l1.9448,0c0,0.43273 0,0.866456 0,1.299186l-1.9448,0c0,0.335242 0,0.66153 0,1.00473c0.841586,0 1.332014,0 2.189517,0c0,0.424772 0,0.866456 0,1.299186c-1.339972,0 -2.320828,0 -3.643889,0c0,-1.911972 0,-3.823944 0,-5.72c1.324056,0 2.230303,0 3.57127,0c-0.000995,0.425767 -0.000995,0.866456 -0.000995,1.308139z" fill="#009E54"/>
                        <path stroke="null" id="svg_31" d="m38.348628,59.177058c-0.498386,0 -0.996772,0 -1.495158,0l0,-2.295958l-1.764744,0l0,2.295958c-0.498386,0 -1.00473,0 -1.495158,0l0,-5.72c0.490428,0 0.996772,0 1.495158,0l0,2.075117l1.764744,0l0,-2.075117c0.498386,0 0.996772,0 1.495158,0l0,5.72z" fill="#009E54"/>
                        <path stroke="null" id="svg_32" d="m39.620955,54.765197c0,-0.440689 0,-0.874414 0,-1.307144l4.248717,0c0,0.43273 0,0.866456 0,1.307144l-1.39767,0l0,4.412856c-0.48247,0 -0.963944,0 -1.446414,0l0,-4.412856l-1.404633,0z" fill="#009E54"/>
                        <path stroke="null" id="svg_33" d="m48.092524,58.458825l-2.255172,0l-0.335242,0.719228l-1.429503,0l0,-0.212883l2.573503,-5.580731l0.629697,0l2.582456,5.580731l0,0.212883l-1.429503,0l-0.336237,-0.719228zm-1.136042,-2.754553l-0.645614,1.503117l1.307144,0l-0.66153,-1.503117z" fill="#009E54"/>
                    </g>
                </g>
            </g>
        </g>
        <g id="Группа_64_1_"/>
    </g>
</svg>