<svg xmlns="http://www.w3.org/2000/svg" width="793" height="138" viewBox="0 0 793 138" fill="none">
    <path d="M15.525 125.49V129H22.005V125.49C24.165 125.355 26.145 124.995 27.9 124.32C29.61 123.645 31.095 122.79 32.355 121.665C33.57 120.54 34.515 119.235 35.19 117.75C35.865 116.22 36.18 114.6 36.18 112.845C36.18 112.035 36.09 111.18 35.91 110.235C35.73 109.29 35.46 108.39 35.01 107.445C34.605 106.5 34.02 105.645 33.345 104.79C32.625 103.935 31.77 103.215 30.735 102.54C29.655 101.865 28.395 101.325 27 100.875C25.56 100.47 23.895 100.245 22.005 100.2V96.69H15.525V100.2C13.635 100.245 12.015 100.47 10.575 100.875C9.135 101.325 7.875 101.865 6.84 102.54C5.76 103.215 4.905 103.935 4.185 104.79C3.51 105.645 2.925 106.5 2.52 107.445C2.07 108.39 1.8 109.29 1.62 110.235C1.44 111.18 1.35 112.035 1.35 112.845C1.35 114.6 1.665 116.22 2.34 117.75C3.015 119.235 3.96 120.54 5.175 121.665C6.435 122.79 7.92 123.645 9.675 124.32C11.385 124.995 13.365 125.355 15.525 125.49ZM15.525 104.88V120.81C14.67 120.81 13.77 120.63 12.87 120.36C11.925 120.045 11.115 119.595 10.35 118.92C9.63 118.29 9 117.435 8.55 116.4C8.055 115.365 7.83 114.105 7.83 112.62C7.785 111.765 7.92 110.91 8.145 110.01C8.37 109.11 8.775 108.3 9.36 107.535C9.945 106.815 10.71 106.185 11.745 105.69C12.735 105.195 13.995 104.925 15.525 104.88ZM22.005 120.765V104.88C23.535 104.925 24.795 105.195 25.785 105.69C26.775 106.185 27.54 106.815 28.125 107.535C28.755 108.3 29.115 109.11 29.385 109.965C29.61 110.865 29.7 111.72 29.7 112.575C29.7 114.015 29.475 115.32 29.025 116.355C28.53 117.39 27.9 118.245 27.18 118.875C26.415 119.55 25.605 120 24.705 120.315C23.76 120.585 22.86 120.765 22.005 120.765ZM98.4143 96.69H83.7443V129H90.4943V117.39H97.8743C99.5393 117.39 101.024 117.12 102.374 116.625C103.679 116.13 104.804 115.41 105.704 114.465C106.604 113.565 107.324 112.485 107.819 111.18C108.269 109.965 108.539 108.57 108.539 107.04C108.539 105.42 108.314 103.98 107.909 102.72C107.504 101.415 106.874 100.335 106.064 99.435C105.209 98.535 104.174 97.86 102.914 97.41C101.609 96.96 100.124 96.69 98.4143 96.69ZM96.8843 111.81H90.4943V102.27H96.8843C97.6493 102.27 98.3243 102.36 98.9543 102.54C99.5393 102.72 100.079 102.99 100.484 103.395C100.889 103.755 101.204 104.295 101.474 104.88C101.654 105.465 101.789 106.185 101.789 107.04C101.789 108.75 101.339 109.965 100.484 110.685C99.6293 111.45 98.4143 111.81 96.8843 111.81ZM184.184 129L172.754 96.69H165.059L153.494 129H160.604L162.854 122.34H174.779L176.849 129H184.184ZM168.884 103.98L172.889 116.76H164.654L168.794 103.98H168.884ZM237.495 108.975V96.69H230.745V129H237.495V114.555H250.185V129H256.935V96.69H250.185V108.975H237.495ZM322.98 116.085V129H329.73V96.69H322.98V111.225C322.575 111.36 322.08 111.45 321.54 111.585C321 111.675 320.46 111.81 319.92 111.855C319.335 111.945 318.795 111.99 318.255 112.035C317.67 112.08 317.175 112.08 316.77 112.08C315.735 112.08 314.835 112.035 314.115 111.855C313.395 111.72 312.81 111.45 312.36 111.09C311.91 110.73 311.55 110.19 311.37 109.515C311.145 108.84 311.055 107.985 311.055 106.95V96.69H304.575V108.57C304.575 109.155 304.575 109.74 304.62 110.37C304.665 111.045 304.8 111.675 305.025 112.305C305.205 112.935 305.52 113.52 305.925 114.105C306.33 114.735 306.915 115.23 307.635 115.68C308.355 116.085 309.3 116.445 310.425 116.715C311.55 116.985 312.9 117.12 314.475 117.12C314.7 117.12 315.015 117.075 315.555 117.075L317.355 116.94C318.075 116.85 318.93 116.805 319.875 116.625C320.82 116.49 321.855 116.31 322.98 116.085ZM406.725 129L395.295 96.69H387.6L376.035 129H383.145L385.395 122.34H397.32L399.39 129H406.725ZM391.425 103.98L395.43 116.76H387.195L391.335 103.98H391.425ZM466.92 95.025C469.755 95.025 471.825 94.44 473.265 93.36C474.705 92.235 475.425 90.57 475.425 88.23H470.295C470.34 88.68 470.25 89.13 470.16 89.535C470.025 89.895 469.8 90.21 469.575 90.48C469.26 90.75 468.9 90.975 468.495 91.11C468.045 91.29 467.55 91.38 466.92 91.38C466.29 91.38 465.795 91.29 465.345 91.11C464.94 90.975 464.58 90.75 464.31 90.48C464.085 90.21 463.86 89.85 463.77 89.49C463.635 89.13 463.545 88.68 463.545 88.23H458.46C458.46 90.57 459.135 92.235 460.575 93.36C462.015 94.44 464.13 95.025 466.92 95.025ZM459.765 118.695V96.69H453.285V129H460.125L472.905 107.13H472.995V129H479.475V96.69H472.635L459.855 118.695H459.765ZM541.291 109.92H535.711V114.825H541.471C542.011 114.825 542.596 114.87 543.181 114.96C543.811 115.05 544.396 115.275 544.891 115.59C545.431 115.905 545.881 116.4 546.241 116.985C546.556 117.615 546.736 118.425 546.736 119.415C546.736 120.045 546.601 120.675 546.376 121.305C546.106 121.89 545.746 122.43 545.161 122.925C544.621 123.375 543.901 123.78 543.046 124.05C542.191 124.32 541.156 124.5 539.941 124.5C538.591 124.5 537.466 124.32 536.566 124.05C535.621 123.735 534.901 123.33 534.316 122.835C533.731 122.385 533.326 121.845 533.101 121.26C532.831 120.675 532.696 120.135 532.696 119.595H526.486C526.486 120.945 526.666 122.16 527.026 123.195C527.341 124.23 527.836 125.13 528.466 125.85C529.096 126.615 529.816 127.245 530.671 127.74C531.526 128.235 532.471 128.685 533.461 129C534.451 129.27 535.441 129.495 536.566 129.63C537.646 129.765 538.771 129.81 539.896 129.81C542.056 129.81 543.991 129.54 545.701 129C547.411 128.46 548.806 127.74 549.976 126.795C551.101 125.85 552.001 124.77 552.586 123.51C553.171 122.295 553.486 120.945 553.486 119.55C553.486 118.47 553.351 117.57 553.171 116.76C552.946 115.95 552.676 115.275 552.316 114.69C552.001 114.105 551.596 113.655 551.191 113.25C550.741 112.89 550.336 112.575 549.886 112.305C549.436 112.08 548.986 111.9 548.581 111.765L547.456 111.45V111.36C548.446 111.045 549.301 110.595 549.931 110.1C550.561 109.605 551.056 109.02 551.416 108.435C551.821 107.85 552.046 107.22 552.226 106.59C552.316 105.96 552.406 105.375 552.406 104.79C552.406 103.755 552.181 102.765 551.731 101.685C551.281 100.65 550.561 99.66 549.616 98.805C548.671 97.95 547.456 97.23 545.971 96.69C544.486 96.15 542.686 95.88 540.616 95.88C538.681 95.88 536.971 96.06 535.576 96.42C534.136 96.825 532.966 97.32 531.976 97.905C530.986 98.49 530.221 99.165 529.636 99.93C529.006 100.695 528.556 101.415 528.241 102.18C527.926 102.9 527.701 103.62 527.611 104.295C527.476 104.97 527.431 105.555 527.431 106.005H533.641C533.641 105.78 533.686 105.555 533.731 105.24C533.821 104.925 533.956 104.61 534.136 104.205C534.316 103.845 534.541 103.53 534.856 103.125C535.171 102.765 535.576 102.45 536.071 102.18C536.521 101.865 537.106 101.64 537.781 101.46C538.411 101.28 539.176 101.19 540.121 101.19C540.796 101.19 541.471 101.235 542.146 101.37C542.866 101.505 543.496 101.775 544.036 102.09C544.576 102.405 545.026 102.855 545.386 103.485C545.746 104.07 545.926 104.79 545.926 105.69C545.926 106.41 545.791 106.995 545.566 107.535C545.296 108.075 544.981 108.48 544.576 108.84C544.126 109.245 543.631 109.47 543.091 109.65C542.506 109.83 541.921 109.92 541.291 109.92ZM607.613 118.695V96.69H601.133V129H607.973L620.753 107.13H620.843V129H627.323V96.69H620.483L607.703 118.695H607.613ZM682.884 108.975V96.69H676.134V129H682.884V114.555H695.574V129H702.324V96.69H695.574V108.975H682.884ZM773.409 102.27V96.69H751.674V129H758.424V102.27H773.409Z" fill="white"/>
    <path d="M15.525 125.49V129H22.005V125.49C24.165 125.355 26.145 124.995 27.9 124.32C29.61 123.645 31.095 122.79 32.355 121.665C33.57 120.54 34.515 119.235 35.19 117.75C35.865 116.22 36.18 114.6 36.18 112.845C36.18 112.035 36.09 111.18 35.91 110.235C35.73 109.29 35.46 108.39 35.01 107.445C34.605 106.5 34.02 105.645 33.345 104.79C32.625 103.935 31.77 103.215 30.735 102.54C29.655 101.865 28.395 101.325 27 100.875C25.56 100.47 23.895 100.245 22.005 100.2V96.69H15.525V100.2C13.635 100.245 12.015 100.47 10.575 100.875C9.135 101.325 7.875 101.865 6.84 102.54C5.76 103.215 4.905 103.935 4.185 104.79C3.51 105.645 2.925 106.5 2.52 107.445C2.07 108.39 1.8 109.29 1.62 110.235C1.44 111.18 1.35 112.035 1.35 112.845C1.35 114.6 1.665 116.22 2.34 117.75C3.015 119.235 3.96 120.54 5.175 121.665C6.435 122.79 7.92 123.645 9.675 124.32C11.385 124.995 13.365 125.355 15.525 125.49ZM15.525 104.88V120.81C14.67 120.81 13.77 120.63 12.87 120.36C11.925 120.045 11.115 119.595 10.35 118.92C9.63 118.29 9 117.435 8.55 116.4C8.055 115.365 7.83 114.105 7.83 112.62C7.785 111.765 7.92 110.91 8.145 110.01C8.37 109.11 8.775 108.3 9.36 107.535C9.945 106.815 10.71 106.185 11.745 105.69C12.735 105.195 13.995 104.925 15.525 104.88ZM22.005 120.765V104.88C23.535 104.925 24.795 105.195 25.785 105.69C26.775 106.185 27.54 106.815 28.125 107.535C28.755 108.3 29.115 109.11 29.385 109.965C29.61 110.865 29.7 111.72 29.7 112.575C29.7 114.015 29.475 115.32 29.025 116.355C28.53 117.39 27.9 118.245 27.18 118.875C26.415 119.55 25.605 120 24.705 120.315C23.76 120.585 22.86 120.765 22.005 120.765ZM98.4143 96.69H83.7443V129H90.4943V117.39H97.8743C99.5393 117.39 101.024 117.12 102.374 116.625C103.679 116.13 104.804 115.41 105.704 114.465C106.604 113.565 107.324 112.485 107.819 111.18C108.269 109.965 108.539 108.57 108.539 107.04C108.539 105.42 108.314 103.98 107.909 102.72C107.504 101.415 106.874 100.335 106.064 99.435C105.209 98.535 104.174 97.86 102.914 97.41C101.609 96.96 100.124 96.69 98.4143 96.69ZM96.8843 111.81H90.4943V102.27H96.8843C97.6493 102.27 98.3243 102.36 98.9543 102.54C99.5393 102.72 100.079 102.99 100.484 103.395C100.889 103.755 101.204 104.295 101.474 104.88C101.654 105.465 101.789 106.185 101.789 107.04C101.789 108.75 101.339 109.965 100.484 110.685C99.6293 111.45 98.4143 111.81 96.8843 111.81ZM184.184 129L172.754 96.69H165.059L153.494 129H160.604L162.854 122.34H174.779L176.849 129H184.184ZM168.884 103.98L172.889 116.76H164.654L168.794 103.98H168.884ZM237.495 108.975V96.69H230.745V129H237.495V114.555H250.185V129H256.935V96.69H250.185V108.975H237.495ZM322.98 116.085V129H329.73V96.69H322.98V111.225C322.575 111.36 322.08 111.45 321.54 111.585C321 111.675 320.46 111.81 319.92 111.855C319.335 111.945 318.795 111.99 318.255 112.035C317.67 112.08 317.175 112.08 316.77 112.08C315.735 112.08 314.835 112.035 314.115 111.855C313.395 111.72 312.81 111.45 312.36 111.09C311.91 110.73 311.55 110.19 311.37 109.515C311.145 108.84 311.055 107.985 311.055 106.95V96.69H304.575V108.57C304.575 109.155 304.575 109.74 304.62 110.37C304.665 111.045 304.8 111.675 305.025 112.305C305.205 112.935 305.52 113.52 305.925 114.105C306.33 114.735 306.915 115.23 307.635 115.68C308.355 116.085 309.3 116.445 310.425 116.715C311.55 116.985 312.9 117.12 314.475 117.12C314.7 117.12 315.015 117.075 315.555 117.075L317.355 116.94C318.075 116.85 318.93 116.805 319.875 116.625C320.82 116.49 321.855 116.31 322.98 116.085ZM406.725 129L395.295 96.69H387.6L376.035 129H383.145L385.395 122.34H397.32L399.39 129H406.725ZM391.425 103.98L395.43 116.76H387.195L391.335 103.98H391.425ZM466.92 95.025C469.755 95.025 471.825 94.44 473.265 93.36C474.705 92.235 475.425 90.57 475.425 88.23H470.295C470.34 88.68 470.25 89.13 470.16 89.535C470.025 89.895 469.8 90.21 469.575 90.48C469.26 90.75 468.9 90.975 468.495 91.11C468.045 91.29 467.55 91.38 466.92 91.38C466.29 91.38 465.795 91.29 465.345 91.11C464.94 90.975 464.58 90.75 464.31 90.48C464.085 90.21 463.86 89.85 463.77 89.49C463.635 89.13 463.545 88.68 463.545 88.23H458.46C458.46 90.57 459.135 92.235 460.575 93.36C462.015 94.44 464.13 95.025 466.92 95.025ZM459.765 118.695V96.69H453.285V129H460.125L472.905 107.13H472.995V129H479.475V96.69H472.635L459.855 118.695H459.765ZM541.291 109.92H535.711V114.825H541.471C542.011 114.825 542.596 114.87 543.181 114.96C543.811 115.05 544.396 115.275 544.891 115.59C545.431 115.905 545.881 116.4 546.241 116.985C546.556 117.615 546.736 118.425 546.736 119.415C546.736 120.045 546.601 120.675 546.376 121.305C546.106 121.89 545.746 122.43 545.161 122.925C544.621 123.375 543.901 123.78 543.046 124.05C542.191 124.32 541.156 124.5 539.941 124.5C538.591 124.5 537.466 124.32 536.566 124.05C535.621 123.735 534.901 123.33 534.316 122.835C533.731 122.385 533.326 121.845 533.101 121.26C532.831 120.675 532.696 120.135 532.696 119.595H526.486C526.486 120.945 526.666 122.16 527.026 123.195C527.341 124.23 527.836 125.13 528.466 125.85C529.096 126.615 529.816 127.245 530.671 127.74C531.526 128.235 532.471 128.685 533.461 129C534.451 129.27 535.441 129.495 536.566 129.63C537.646 129.765 538.771 129.81 539.896 129.81C542.056 129.81 543.991 129.54 545.701 129C547.411 128.46 548.806 127.74 549.976 126.795C551.101 125.85 552.001 124.77 552.586 123.51C553.171 122.295 553.486 120.945 553.486 119.55C553.486 118.47 553.351 117.57 553.171 116.76C552.946 115.95 552.676 115.275 552.316 114.69C552.001 114.105 551.596 113.655 551.191 113.25C550.741 112.89 550.336 112.575 549.886 112.305C549.436 112.08 548.986 111.9 548.581 111.765L547.456 111.45V111.36C548.446 111.045 549.301 110.595 549.931 110.1C550.561 109.605 551.056 109.02 551.416 108.435C551.821 107.85 552.046 107.22 552.226 106.59C552.316 105.96 552.406 105.375 552.406 104.79C552.406 103.755 552.181 102.765 551.731 101.685C551.281 100.65 550.561 99.66 549.616 98.805C548.671 97.95 547.456 97.23 545.971 96.69C544.486 96.15 542.686 95.88 540.616 95.88C538.681 95.88 536.971 96.06 535.576 96.42C534.136 96.825 532.966 97.32 531.976 97.905C530.986 98.49 530.221 99.165 529.636 99.93C529.006 100.695 528.556 101.415 528.241 102.18C527.926 102.9 527.701 103.62 527.611 104.295C527.476 104.97 527.431 105.555 527.431 106.005H533.641C533.641 105.78 533.686 105.555 533.731 105.24C533.821 104.925 533.956 104.61 534.136 104.205C534.316 103.845 534.541 103.53 534.856 103.125C535.171 102.765 535.576 102.45 536.071 102.18C536.521 101.865 537.106 101.64 537.781 101.46C538.411 101.28 539.176 101.19 540.121 101.19C540.796 101.19 541.471 101.235 542.146 101.37C542.866 101.505 543.496 101.775 544.036 102.09C544.576 102.405 545.026 102.855 545.386 103.485C545.746 104.07 545.926 104.79 545.926 105.69C545.926 106.41 545.791 106.995 545.566 107.535C545.296 108.075 544.981 108.48 544.576 108.84C544.126 109.245 543.631 109.47 543.091 109.65C542.506 109.83 541.921 109.92 541.291 109.92ZM607.613 118.695V96.69H601.133V129H607.973L620.753 107.13H620.843V129H627.323V96.69H620.483L607.703 118.695H607.613ZM682.884 108.975V96.69H676.134V129H682.884V114.555H695.574V129H702.324V96.69H695.574V108.975H682.884ZM773.409 102.27V96.69H751.674V129H758.424V102.27H773.409Z" fill="url(#paint0_linear)" fill-opacity="0.25"/>
    <path d="M15.525 125.49H16.0484V124.998L15.5577 124.968L15.525 125.49ZM15.525 129H15.0016V129.523H15.525V129ZM22.005 129V129.523H22.5284V129H22.005ZM22.005 125.49L21.9724 124.968L21.4816 124.998V125.49H22.005ZM27.9 124.32L28.0879 124.809L28.0922 124.807L27.9 124.32ZM32.355 121.665L32.7037 122.055L32.7106 122.049L32.355 121.665ZM35.19 117.75L35.6665 117.967L35.6689 117.961L35.19 117.75ZM35.01 107.445L34.5289 107.651L34.533 107.661L34.5374 107.67L35.01 107.445ZM33.345 104.79L33.7558 104.466L33.7507 104.459L33.7454 104.453L33.345 104.79ZM30.735 102.54L31.021 102.102L31.0124 102.096L30.735 102.54ZM27 100.875L27.1607 100.377L27.1513 100.374L27.1417 100.371L27 100.875ZM22.005 100.2H21.4816V100.711L21.9925 100.723L22.005 100.2ZM22.005 96.69H22.5284V96.1666H22.005V96.69ZM15.525 96.69V96.1666H15.0016V96.69H15.525ZM15.525 100.2L15.5375 100.723L16.0484 100.711V100.2H15.525ZM10.575 100.875L10.4333 100.371L10.4261 100.373L10.4189 100.375L10.575 100.875ZM6.84 102.54L7.11746 102.984L7.12592 102.978L6.84 102.54ZM4.185 104.79L3.78464 104.453L3.77931 104.459L3.77419 104.466L4.185 104.79ZM2.52 107.445L2.99257 107.67L2.99701 107.661L3.00109 107.651L2.52 107.445ZM2.34 117.75L1.86109 117.961L1.86351 117.967L2.34 117.75ZM5.175 121.665L4.81933 122.049L4.8264 122.055L5.175 121.665ZM9.675 124.32L9.86719 123.833L9.86289 123.831L9.675 124.32ZM15.525 104.88H16.0484V104.341L15.5096 104.357L15.525 104.88ZM15.525 120.81V121.333H16.0484V120.81H15.525ZM12.87 120.36L12.7045 120.857L12.712 120.859L12.7196 120.861L12.87 120.36ZM10.35 118.92L10.6963 118.528L10.6947 118.526L10.35 118.92ZM8.55 116.4L9.03 116.191L9.02625 116.183L9.02219 116.174L8.55 116.4ZM7.83 112.62H8.35341V112.606L8.35269 112.592L7.83 112.62ZM9.36 107.535L8.95378 107.205L8.94891 107.211L8.94423 107.217L9.36 107.535ZM11.745 105.69L11.9709 106.162L11.9791 106.158L11.745 105.69ZM22.005 120.765H21.4816V121.288H22.005V120.765ZM22.005 104.88L22.0204 104.357L21.4816 104.341V104.88H22.005ZM25.785 105.69L25.5509 106.158H25.5509L25.785 105.69ZM28.125 107.535L27.7188 107.865L27.721 107.868L28.125 107.535ZM29.385 109.965L29.8928 109.838L29.8889 109.823L29.8841 109.807L29.385 109.965ZM29.025 116.355L29.4972 116.581L29.5012 116.572L29.505 116.564L29.025 116.355ZM27.18 118.875L26.8353 118.481L26.8337 118.483L27.18 118.875ZM24.705 120.315L24.8488 120.818L24.8635 120.814L24.8779 120.809L24.705 120.315ZM15.0016 125.49V129H16.0484V125.49H15.0016ZM15.525 129.523H22.005V128.477H15.525V129.523ZM22.5284 129V125.49H21.4816V129H22.5284ZM22.0377 126.012C24.2335 125.875 26.2692 125.508 28.0879 124.809L27.7121 123.831C26.0208 124.482 24.0965 124.835 21.9724 124.968L22.0377 126.012ZM28.0922 124.807C29.8466 124.114 31.3882 123.23 32.7036 122.055L32.0064 121.275C30.8018 122.35 29.3734 123.176 27.7078 123.833L28.0922 124.807ZM32.7106 122.049C33.9758 120.878 34.9623 119.516 35.6665 117.967L34.7135 117.533C34.0677 118.954 33.1642 120.202 31.9994 121.281L32.7106 122.049ZM35.6689 117.961C36.3762 116.358 36.7034 114.665 36.7034 112.845H35.6566C35.6566 114.535 35.3539 116.082 34.7111 117.539L35.6689 117.961ZM36.7034 112.845C36.7034 111.996 36.609 111.108 36.4242 110.137L35.3958 110.333C35.571 111.252 35.6566 112.074 35.6566 112.845H36.7034ZM36.4242 110.137C36.2371 109.155 35.9545 108.211 35.4826 107.22L34.5374 107.67C34.9655 108.569 35.2229 109.425 35.3958 110.333L36.4242 110.137ZM35.4911 107.239C35.0599 106.233 34.4429 105.336 33.7558 104.466L32.9342 105.114C33.5971 105.954 34.1501 106.767 34.5289 107.651L35.4911 107.239ZM33.7454 104.453C32.9856 103.551 32.089 102.798 31.0209 102.102L30.4491 102.978C31.451 103.632 32.2644 104.319 32.9446 105.127L33.7454 104.453ZM31.0124 102.096C29.8851 101.392 28.5825 100.836 27.1607 100.377L26.8393 101.373C28.2075 101.814 29.4249 102.338 30.4576 102.984L31.0124 102.096ZM27.1417 100.371C25.6503 99.9517 23.9403 99.7225 22.0175 99.6767L21.9925 100.723C23.8497 100.767 25.4697 100.988 26.8583 101.379L27.1417 100.371ZM22.5284 100.2V96.69H21.4816V100.2H22.5284ZM22.005 96.1666H15.525V97.2134H22.005V96.1666ZM15.0016 96.69V100.2H16.0484V96.69H15.0016ZM15.5125 99.6767C13.5883 99.7226 11.9236 99.952 10.4333 100.371L10.7167 101.379C12.1064 100.988 13.6817 100.767 15.5375 100.723L15.5125 99.6767ZM10.4189 100.375C8.95109 100.834 7.6426 101.392 6.55408 102.102L7.12592 102.978C8.1074 102.338 9.31892 101.816 10.7311 101.375L10.4189 100.375ZM6.56259 102.096C5.44408 102.795 4.54527 103.55 3.78464 104.453L4.58536 105.127C5.26473 104.32 6.07592 103.635 7.11741 102.984L6.56259 102.096ZM3.77419 104.466C3.0871 105.336 2.47014 106.233 2.03891 107.239L3.00109 107.651C3.37986 106.767 3.9329 105.954 4.59582 105.114L3.77419 104.466ZM2.04743 107.22C1.57549 108.211 1.29295 109.155 1.10583 110.137L2.13417 110.333C2.30706 109.425 2.56451 108.569 2.99257 107.67L2.04743 107.22ZM1.10583 110.137C0.920982 111.108 0.826591 111.996 0.826591 112.845H1.87341C1.87341 112.074 1.95902 111.252 2.13417 110.333L1.10583 110.137ZM0.826591 112.845C0.826591 114.665 1.15385 116.358 1.86112 117.961L2.81888 117.539C2.17615 116.082 1.87341 114.535 1.87341 112.845H0.826591ZM1.86351 117.967C2.56772 119.516 3.55416 120.878 4.81939 122.049L5.53061 121.281C4.36584 120.202 3.46228 118.954 2.81649 117.533L1.86351 117.967ZM4.8264 122.055C6.14247 123.23 7.68527 124.116 9.48711 124.809L9.86289 123.831C8.15473 123.174 6.72753 122.35 5.5236 121.275L4.8264 122.055ZM9.48282 124.807C11.2596 125.508 13.2977 125.875 15.4924 126.012L15.5577 124.968C13.4323 124.835 11.5104 124.482 9.86718 123.833L9.48282 124.807ZM15.0016 104.88V120.81H16.0484V104.88H15.0016ZM15.525 120.287C14.7397 120.287 13.8937 120.121 13.0204 119.859L12.7196 120.861C13.6463 121.139 14.6003 121.333 15.525 121.333V120.287ZM13.0355 119.863C12.1529 119.569 11.4054 119.153 10.6963 118.528L10.0037 119.312C10.8246 120.037 11.6971 120.521 12.7045 120.857L13.0355 119.863ZM10.6947 118.526C10.0366 117.95 9.45117 117.16 9.03 116.191L8.07 116.609C8.54883 117.71 9.22336 118.63 10.0053 119.314L10.6947 118.526ZM9.02219 116.174C8.57158 115.232 8.35341 114.056 8.35341 112.62H7.30659C7.30659 114.154 7.53842 115.498 8.07782 116.626L9.02219 116.174ZM8.35269 112.592C8.31151 111.81 8.43414 111.012 8.65278 110.137L7.63722 109.883C7.40586 110.808 7.25849 111.72 7.30731 112.648L8.35269 112.592ZM8.65278 110.137C8.8589 109.312 9.23006 108.567 9.77577 107.853L8.94423 107.217C8.31994 108.033 7.8811 108.908 7.63722 109.883L8.65278 110.137ZM9.76623 107.865C10.3018 107.206 11.0049 106.624 11.9708 106.162L11.5192 105.218C10.4151 105.746 9.58824 106.424 8.95378 107.205L9.76623 107.865ZM11.9791 106.158C12.8802 105.708 14.0591 105.447 15.5404 105.403L15.5096 104.357C13.9309 104.403 12.5898 104.682 11.5109 105.222L11.9791 106.158ZM22.5284 120.765V104.88H21.4816V120.765H22.5284ZM21.9896 105.403C23.4709 105.447 24.6498 105.708 25.5509 106.158L26.0191 105.222C24.9402 104.682 23.5991 104.403 22.0204 104.357L21.9896 105.403ZM25.5509 106.158C26.4764 106.621 27.1821 107.205 27.7188 107.865L28.5312 107.205C27.8979 106.425 27.0736 105.749 26.0191 105.222L25.5509 106.158ZM27.721 107.868C28.2944 108.564 28.6282 109.307 28.8859 110.123L29.8841 109.807C29.6018 108.913 29.2156 108.036 28.529 107.202L27.721 107.868ZM28.8772 110.092C29.0908 110.946 29.1766 111.758 29.1766 112.575H30.2234C30.2234 111.682 30.1292 110.784 29.8928 109.838L28.8772 110.092ZM29.1766 112.575C29.1766 113.966 28.9585 115.195 28.545 116.146L29.505 116.564C29.9915 115.445 30.2234 114.064 30.2234 112.575H29.1766ZM28.5528 116.129C28.0833 117.111 27.4935 117.905 26.8353 118.481L27.5247 119.269C28.3065 118.585 28.9767 117.669 29.4972 116.581L28.5528 116.129ZM26.8337 118.483C26.1234 119.109 25.3736 119.526 24.5321 119.821L24.8779 120.809C25.8364 120.474 26.7066 119.991 27.5263 119.267L26.8337 118.483ZM24.5612 119.812C23.6371 120.076 22.7903 120.242 22.005 120.242V121.288C22.9297 121.288 23.8829 121.094 24.8488 120.818L24.5612 119.812ZM83.7443 96.69V96.1666H83.2209V96.69H83.7443ZM83.7443 129H83.2209V129.523H83.7443V129ZM90.4943 129V129.523H91.0177V129H90.4943ZM90.4943 117.39V116.867H89.9709V117.39H90.4943ZM102.374 116.625L102.554 117.116L102.56 117.114L102.374 116.625ZM105.704 114.465L105.334 114.095L105.325 114.104L105.704 114.465ZM107.819 111.18L108.309 111.366L108.31 111.362L107.819 111.18ZM107.909 102.72L107.409 102.875L107.411 102.88L107.909 102.72ZM106.064 99.435L106.453 99.0847L106.444 99.0745L106.064 99.435ZM102.914 97.41L103.09 96.9171L103.085 96.9152L102.914 97.41ZM90.4943 111.81H89.9709V112.333H90.4943V111.81ZM90.4943 102.27V101.747H89.9709V102.27H90.4943ZM98.9543 102.54L99.1083 102.04L99.0981 102.037L98.9543 102.54ZM100.484 103.395L100.114 103.765L100.125 103.776L100.137 103.786L100.484 103.395ZM101.474 104.88L101.975 104.726L101.964 104.693L101.95 104.661L101.474 104.88ZM100.484 110.685L100.147 110.285L100.141 110.29L100.135 110.295L100.484 110.685ZM98.4143 96.1666H83.7443V97.2134H98.4143V96.1666ZM83.2209 96.69V129H84.2677V96.69H83.2209ZM83.7443 129.523H90.4943V128.477H83.7443V129.523ZM91.0177 129V117.39H89.9709V129H91.0177ZM90.4943 117.913H97.8743V116.867H90.4943V117.913ZM97.8743 117.913C99.5976 117.913 101.144 117.634 102.554 117.116L102.194 116.134C100.905 116.606 99.481 116.867 97.8743 116.867V117.913ZM102.56 117.114C103.93 116.595 105.123 115.834 106.083 114.826L105.325 114.104C104.485 114.986 103.429 115.665 102.189 116.136L102.56 117.114ZM106.074 114.835C107.026 113.884 107.787 112.741 108.309 111.366L107.33 110.994C106.862 112.229 106.183 113.246 105.334 114.095L106.074 114.835ZM108.31 111.362C108.782 110.088 109.063 108.632 109.063 107.04H108.016C108.016 108.508 107.757 109.842 107.328 110.998L108.31 111.362ZM109.063 107.04C109.063 105.372 108.831 103.877 108.408 102.56L107.411 102.88C107.798 104.083 108.016 105.468 108.016 107.04H109.063ZM108.409 102.565C107.982 101.188 107.314 100.042 106.453 99.0849L105.675 99.7851C106.434 100.628 107.027 101.642 107.409 102.875L108.409 102.565ZM106.444 99.0745C105.53 98.1129 104.425 97.3937 103.09 96.9171L102.738 97.9029C103.924 98.3263 104.888 98.9571 105.685 99.7955L106.444 99.0745ZM103.085 96.9152C101.724 96.4458 100.181 96.1666 98.4143 96.1666V97.2134C100.068 97.2134 101.495 97.4742 102.744 97.9048L103.085 96.9152ZM96.8843 111.287H90.4943V112.333H96.8843V111.287ZM91.0177 111.81V102.27H89.9709V111.81H91.0177ZM90.4943 102.793H96.8843V101.747H90.4943V102.793ZM96.8843 102.793C97.607 102.793 98.233 102.878 98.8105 103.043L99.0981 102.037C98.4156 101.842 97.6916 101.747 96.8843 101.747V102.793ZM98.8004 103.04C99.3368 103.205 99.79 103.441 100.114 103.765L100.854 103.025C100.369 102.539 99.7418 102.235 99.1082 102.04L98.8004 103.04ZM100.137 103.786C100.458 104.072 100.737 104.531 100.999 105.099L101.95 104.661C101.672 104.059 101.32 103.438 100.832 103.004L100.137 103.786ZM100.974 105.034C101.14 105.573 101.266 106.241 101.266 107.04H102.313C102.313 106.129 102.169 105.357 101.975 104.726L100.974 105.034ZM101.266 107.04C101.266 108.67 100.837 109.704 100.147 110.285L100.821 111.085C101.842 110.226 102.313 108.83 102.313 107.04H101.266ZM100.135 110.295C99.4097 110.944 98.3389 111.287 96.8843 111.287V112.333C98.4897 112.333 99.8489 111.956 100.833 111.075L100.135 110.295ZM184.184 129V129.523H184.924L184.677 128.825L184.184 129ZM172.754 96.69L173.247 96.5154L173.124 96.1666H172.754V96.69ZM165.059 96.69V96.1666H164.69L164.566 96.5136L165.059 96.69ZM153.494 129L153.001 128.824L152.751 129.523H153.494V129ZM160.604 129V129.523H160.98L161.1 129.168L160.604 129ZM162.854 122.34V121.817H162.478L162.358 122.172L162.854 122.34ZM174.779 122.34L175.279 122.185L175.164 121.817H174.779V122.34ZM176.849 129L176.349 129.155L176.464 129.523H176.849V129ZM168.884 103.98L169.383 103.823L169.268 103.457H168.884V103.98ZM172.889 116.76V117.283H173.601L173.388 116.603L172.889 116.76ZM164.654 116.76L164.156 116.599L163.934 117.283H164.654V116.76ZM168.794 103.98V103.457H168.413L168.296 103.819L168.794 103.98ZM184.677 128.825L173.247 96.5154L172.261 96.8646L183.691 129.175L184.677 128.825ZM172.754 96.1666H165.059V97.2134H172.754V96.1666ZM164.566 96.5136L153.001 128.824L153.987 129.176L165.552 96.8664L164.566 96.5136ZM153.494 129.523H160.604V128.477H153.494V129.523ZM161.1 129.168L163.35 122.508L162.358 122.172L160.108 128.832L161.1 129.168ZM162.854 122.863H174.779V121.817H162.854V122.863ZM174.279 122.495L176.349 129.155L177.349 128.845L175.279 122.185L174.279 122.495ZM176.849 129.523H184.184V128.477H176.849V129.523ZM168.384 104.137L172.389 116.917L173.388 116.603L169.383 103.823L168.384 104.137ZM172.889 116.237H164.654V117.283H172.889V116.237ZM165.152 116.921L169.292 104.141L168.296 103.819L164.156 116.599L165.152 116.921ZM168.794 104.503H168.884V103.457H168.794V104.503ZM237.495 108.975H236.971V109.498H237.495V108.975ZM237.495 96.69H238.018V96.1666H237.495V96.69ZM230.745 96.69V96.1666H230.221V96.69H230.745ZM230.745 129H230.221V129.523H230.745V129ZM237.495 129V129.523H238.018V129H237.495ZM237.495 114.555V114.032H236.971V114.555H237.495ZM250.185 114.555H250.708V114.032H250.185V114.555ZM250.185 129H249.661V129.523H250.185V129ZM256.935 129V129.523H257.458V129H256.935ZM256.935 96.69H257.458V96.1666H256.935V96.69ZM250.185 96.69V96.1666H249.661V96.69H250.185ZM250.185 108.975V109.498H250.708V108.975H250.185ZM238.018 108.975V96.69H236.971V108.975H238.018ZM237.495 96.1666H230.745V97.2134H237.495V96.1666ZM230.221 96.69V129H231.268V96.69H230.221ZM230.745 129.523H237.495V128.477H230.745V129.523ZM238.018 129V114.555H236.971V129H238.018ZM237.495 115.078H250.185V114.032H237.495V115.078ZM249.661 114.555V129H250.708V114.555H249.661ZM250.185 129.523H256.935V128.477H250.185V129.523ZM257.458 129V96.69H256.411V129H257.458ZM256.935 96.1666H250.185V97.2134H256.935V96.1666ZM249.661 96.69V108.975H250.708V96.69H249.661ZM250.185 108.452H237.495V109.498H250.185V108.452ZM322.98 116.085H323.504V115.447L322.877 115.572L322.98 116.085ZM322.98 129H322.457V129.523H322.98V129ZM329.73 129V129.523H330.254V129H329.73ZM329.73 96.69H330.254V96.1666H329.73V96.69ZM322.98 96.69V96.1666H322.457V96.69H322.98ZM322.98 111.225L323.146 111.722L323.504 111.602V111.225H322.98ZM321.54 111.585L321.626 112.101L321.647 112.098L321.667 112.093L321.54 111.585ZM319.92 111.855L319.877 111.333L319.859 111.335L319.841 111.338L319.92 111.855ZM318.255 112.035L318.295 112.557L318.299 112.557L318.255 112.035ZM314.115 111.855L314.242 111.347L314.227 111.343L314.212 111.341L314.115 111.855ZM312.36 111.09L312.687 110.681L312.36 111.09ZM311.37 109.515L311.876 109.38L311.872 109.365L311.867 109.349L311.37 109.515ZM311.055 96.69H311.579V96.1666H311.055V96.69ZM304.575 96.69V96.1666H304.052V96.69H304.575ZM304.62 110.37L305.142 110.335L305.142 110.333L304.62 110.37ZM305.025 112.305L305.528 112.161L305.524 112.145L305.518 112.129L305.025 112.305ZM305.925 114.105L306.365 113.822L306.361 113.814L306.355 113.807L305.925 114.105ZM307.635 115.68L307.358 116.124L307.368 116.13L307.379 116.136L307.635 115.68ZM310.425 116.715L310.303 117.224L310.425 116.715ZM315.555 117.075V117.598H315.575L315.594 117.597L315.555 117.075ZM317.355 116.94L317.394 117.462L317.407 117.461L317.42 117.459L317.355 116.94ZM319.875 116.625L319.801 116.107L319.789 116.109L319.777 116.111L319.875 116.625ZM322.457 116.085V129H323.504V116.085H322.457ZM322.98 129.523H329.73V128.477H322.98V129.523ZM330.254 129V96.69H329.207V129H330.254ZM329.73 96.1666H322.98V97.2134H329.73V96.1666ZM322.457 96.69V111.225H323.504V96.69H322.457ZM322.815 110.728C322.433 110.856 322.004 110.93 321.413 111.077L321.667 112.093C322.156 111.97 322.718 111.864 323.146 111.722L322.815 110.728ZM321.454 111.069C320.855 111.169 320.392 111.29 319.877 111.333L319.964 112.377C320.529 112.33 321.146 112.181 321.626 112.101L321.454 111.069ZM319.841 111.338C319.276 111.425 318.753 111.468 318.212 111.513L318.299 112.557C318.837 112.512 319.394 112.465 320 112.372L319.841 111.338ZM318.215 111.513C317.652 111.556 317.175 111.557 316.77 111.557V112.603C317.175 112.603 317.688 112.604 318.295 112.557L318.215 111.513ZM316.77 111.557C315.739 111.557 314.895 111.51 314.242 111.347L313.988 112.363C314.775 112.56 315.731 112.603 316.77 112.603V111.557ZM314.212 111.341C313.566 111.22 313.063 110.982 312.687 110.681L312.033 111.499C312.558 111.918 313.224 112.22 314.019 112.369L314.212 111.341ZM312.687 110.681C312.33 110.396 312.029 109.954 311.876 109.38L310.864 109.65C311.071 110.426 311.49 111.064 312.033 111.499L312.687 110.681ZM311.867 109.349C311.668 108.753 311.579 107.963 311.579 106.95H310.532C310.532 108.007 310.622 108.927 310.874 109.681L311.867 109.349ZM311.579 106.95V96.69H310.532V106.95H311.579ZM311.055 96.1666H304.575V97.2134H311.055V96.1666ZM304.052 96.69V108.57H305.099V96.69H304.052ZM304.052 108.57C304.052 109.153 304.052 109.756 304.098 110.407L305.142 110.333C305.099 109.724 305.099 109.157 305.099 108.57H304.052ZM304.098 110.405C304.146 111.13 304.292 111.807 304.532 112.481L305.518 112.129C305.309 111.543 305.184 110.96 305.142 110.335L304.098 110.405ZM304.522 112.449C304.723 113.152 305.07 113.789 305.495 114.403L306.355 113.807C305.97 113.251 305.688 112.718 305.528 112.161L304.522 112.449ZM305.485 114.388C305.947 115.107 306.602 115.652 307.358 116.124L307.913 115.236C307.228 114.808 306.713 114.363 306.365 113.822L305.485 114.388ZM307.379 116.136C308.15 116.57 309.143 116.946 310.303 117.224L310.547 116.206C309.457 115.944 308.56 115.6 307.892 115.224L307.379 116.136ZM310.303 117.224C311.479 117.506 312.873 117.643 314.475 117.643V116.597C312.928 116.597 311.621 116.464 310.547 116.206L310.303 117.224ZM314.475 117.643C314.61 117.643 314.773 117.63 314.931 117.62C315.099 117.609 315.3 117.598 315.555 117.598V116.552C315.27 116.552 315.044 116.564 314.863 116.575C314.672 116.588 314.565 116.597 314.475 116.597V117.643ZM315.594 117.597L317.394 117.462L317.316 116.418L315.516 116.553L315.594 117.597ZM317.42 117.459C318.089 117.376 319.01 117.323 319.973 117.139L319.777 116.111C318.851 116.287 318.061 116.324 317.29 116.421L317.42 117.459ZM319.949 117.143C320.905 117.007 321.95 116.825 323.083 116.598L322.877 115.572C321.76 115.795 320.735 115.973 319.801 116.107L319.949 117.143ZM406.725 129V129.523H407.465L407.218 128.825L406.725 129ZM395.295 96.69L395.788 96.5154L395.665 96.1666H395.295V96.69ZM387.6 96.69V96.1666H387.231L387.107 96.5136L387.6 96.69ZM376.035 129L375.542 128.824L375.291 129.523H376.035V129ZM383.145 129V129.523H383.52L383.641 129.168L383.145 129ZM385.395 122.34V121.817H385.019L384.899 122.172L385.395 122.34ZM397.32 122.34L397.82 122.185L397.705 121.817H397.32V122.34ZM399.39 129L398.89 129.155L399.004 129.523H399.39V129ZM391.425 103.98L391.924 103.823L391.809 103.457H391.425V103.98ZM395.43 116.76V117.283H396.142L395.929 116.603L395.43 116.76ZM387.195 116.76L386.697 116.599L386.475 117.283H387.195V116.76ZM391.335 103.98V103.457H390.954L390.837 103.819L391.335 103.98ZM407.218 128.825L395.788 96.5154L394.801 96.8646L406.231 129.175L407.218 128.825ZM395.295 96.1666H387.6V97.2134H395.295V96.1666ZM387.107 96.5136L375.542 128.824L376.528 129.176L388.093 96.8664L387.107 96.5136ZM376.035 129.523H383.145V128.477H376.035V129.523ZM383.641 129.168L385.891 122.508L384.899 122.172L382.649 128.832L383.641 129.168ZM385.395 122.863H397.32V121.817H385.395V122.863ZM396.82 122.495L398.89 129.155L399.89 128.845L397.82 122.185L396.82 122.495ZM399.39 129.523H406.725V128.477H399.39V129.523ZM390.925 104.137L394.93 116.917L395.929 116.603L391.924 103.823L390.925 104.137ZM395.43 116.237H387.195V117.283H395.43V116.237ZM387.693 116.921L391.833 104.141L390.837 103.819L386.697 116.599L387.693 116.921ZM391.335 104.503H391.425V103.457H391.335V104.503ZM473.265 93.36L473.579 93.7788L473.588 93.7725L473.265 93.36ZM475.425 88.23H475.949V87.7066H475.425V88.23ZM470.295 88.23V87.7066H469.717L469.775 88.2821L470.295 88.23ZM470.16 89.535L470.65 89.7188L470.663 89.6844L470.671 89.6485L470.16 89.535ZM469.575 90.48L469.916 90.8774L469.949 90.8488L469.977 90.8151L469.575 90.48ZM468.495 91.11L468.33 90.6134L468.315 90.6183L468.301 90.624L468.495 91.11ZM465.345 91.11L465.54 90.624L465.525 90.6183L465.511 90.6134L465.345 91.11ZM464.31 90.48L463.908 90.8151L463.923 90.8333L463.94 90.8501L464.31 90.48ZM463.77 89.49L464.278 89.3631L464.271 89.3341L464.26 89.3062L463.77 89.49ZM463.545 88.23H464.069V87.7066H463.545V88.23ZM458.46 88.23V87.7066H457.937V88.23H458.46ZM460.575 93.36L460.253 93.7725L460.261 93.7787L460.575 93.36ZM459.765 118.695H459.242V119.218H459.765V118.695ZM459.765 96.69H460.289V96.1666H459.765V96.69ZM453.285 96.69V96.1666H452.762V96.69H453.285ZM453.285 129H452.762V129.523H453.285V129ZM460.125 129V129.523H460.426L460.577 129.264L460.125 129ZM472.905 107.13V106.607H472.605L472.453 106.866L472.905 107.13ZM472.995 107.13H473.519V106.607H472.995V107.13ZM472.995 129H472.472V129.523H472.995V129ZM479.475 129V129.523H479.999V129H479.475ZM479.475 96.69H479.999V96.1666H479.475V96.69ZM472.635 96.69V96.1666H472.334L472.183 96.4271L472.635 96.69ZM459.855 118.695V119.218H460.157L460.308 118.958L459.855 118.695ZM466.92 95.5484C469.82 95.5484 472.016 94.9509 473.579 93.7787L472.951 92.9413C471.634 93.9291 469.691 94.5016 466.92 94.5016V95.5484ZM473.588 93.7725C475.185 92.5244 475.949 90.6878 475.949 88.23H474.902C474.902 90.4522 474.226 91.9456 472.943 92.9475L473.588 93.7725ZM475.425 87.7066H470.295V88.7534H475.425V87.7066ZM469.775 88.2821C469.81 88.639 469.74 89.014 469.649 89.4215L470.671 89.6485C470.761 89.246 470.87 88.721 470.816 88.1779L469.775 88.2821ZM469.67 89.3512C469.566 89.6305 469.384 89.8926 469.173 90.1449L469.977 90.8151C470.217 90.5274 470.485 90.1594 470.65 89.7188L469.67 89.3512ZM469.235 90.0826C468.959 90.3186 468.657 90.5043 468.33 90.6134L468.661 91.6065C469.143 91.4457 469.561 91.1814 469.916 90.8774L469.235 90.0826ZM468.301 90.624C467.924 90.7748 467.497 90.8566 466.92 90.8566V91.9034C467.604 91.9034 468.167 91.8052 468.69 91.596L468.301 90.624ZM466.92 90.8566C466.344 90.8566 465.917 90.7748 465.54 90.624L465.151 91.596C465.674 91.8052 466.237 91.9034 466.92 91.9034V90.8566ZM465.511 90.6134C465.18 90.5033 464.891 90.3206 464.68 90.1099L463.94 90.8501C464.27 91.1794 464.7 91.4467 465.18 91.6065L465.511 90.6134ZM464.712 90.1449C464.515 89.9078 464.342 89.618 464.278 89.3631L463.263 89.6169C463.379 90.0819 463.656 90.5122 463.908 90.8151L464.712 90.1449ZM464.26 89.3062C464.147 89.0031 464.069 88.6153 464.069 88.23H463.022C463.022 88.7447 463.124 89.2569 463.28 89.6738L464.26 89.3062ZM463.545 87.7066H458.46V88.7534H463.545V87.7066ZM457.937 88.23C457.937 90.678 458.65 92.5196 460.253 93.7725L460.898 92.9475C459.621 91.9504 458.984 90.462 458.984 88.23H457.937ZM460.261 93.7787C461.825 94.9514 464.067 95.5484 466.92 95.5484V94.5016C464.194 94.5016 462.206 93.9286 460.889 92.9413L460.261 93.7787ZM460.289 118.695V96.69H459.242V118.695H460.289ZM459.765 96.1666H453.285V97.2134H459.765V96.1666ZM452.762 96.69V129H453.809V96.69H452.762ZM453.285 129.523H460.125V128.477H453.285V129.523ZM460.577 129.264L473.357 107.394L472.453 106.866L459.673 128.736L460.577 129.264ZM472.905 107.653H472.995V106.607H472.905V107.653ZM472.472 107.13V129H473.519V107.13H472.472ZM472.995 129.523H479.475V128.477H472.995V129.523ZM479.999 129V96.69H478.952V129H479.999ZM479.475 96.1666H472.635V97.2134H479.475V96.1666ZM472.183 96.4271L459.403 118.432L460.308 118.958L473.088 96.9529L472.183 96.4271ZM459.855 118.172H459.765V119.218H459.855V118.172ZM535.711 109.92V109.397H535.188V109.92H535.711ZM535.711 114.825H535.188V115.348H535.711V114.825ZM543.181 114.96L543.101 115.477L543.107 115.478L543.181 114.96ZM544.891 115.59L544.61 116.032L544.618 116.037L544.627 116.042L544.891 115.59ZM546.241 116.985L546.709 116.751L546.699 116.73L546.687 116.711L546.241 116.985ZM546.376 121.305L546.851 121.524L546.861 121.503L546.869 121.481L546.376 121.305ZM545.161 122.925L545.496 123.327L545.499 123.325L545.161 122.925ZM543.046 124.05L543.204 124.549L543.046 124.05ZM536.566 124.05L536.4 124.547L536.408 124.549L536.416 124.551L536.566 124.05ZM534.316 122.835L534.654 122.435L534.645 122.428L534.635 122.42L534.316 122.835ZM533.101 121.26L533.589 121.072L533.583 121.056L533.576 121.041L533.101 121.26ZM532.696 119.595H533.219V119.072H532.696V119.595ZM526.486 119.595V119.072H525.963V119.595H526.486ZM527.026 123.195L527.527 123.043L527.524 123.033L527.52 123.023L527.026 123.195ZM528.466 125.85L528.87 125.517L528.865 125.511L528.86 125.505L528.466 125.85ZM533.461 129L533.302 129.499L533.313 129.502L533.323 129.505L533.461 129ZM536.566 129.63L536.631 129.111L536.628 129.11L536.566 129.63ZM545.701 129L545.543 128.501L545.701 129ZM549.976 126.795L550.305 127.202L550.313 127.196L549.976 126.795ZM552.586 123.51L552.114 123.283L552.111 123.29L552.586 123.51ZM553.171 116.76L553.682 116.646L553.679 116.633L553.675 116.62L553.171 116.76ZM552.316 114.69L551.855 114.938L551.862 114.951L551.87 114.964L552.316 114.69ZM551.191 113.25L551.561 112.88L551.541 112.859L551.518 112.841L551.191 113.25ZM549.886 112.305L550.155 111.856L550.138 111.846L550.12 111.837L549.886 112.305ZM548.581 111.765L548.746 111.268L548.734 111.264L548.722 111.261L548.581 111.765ZM547.456 111.45H546.932V111.847L547.315 111.954L547.456 111.45ZM547.456 111.36L547.297 110.861L546.932 110.977V111.36H547.456ZM551.416 108.435L550.986 108.137L550.978 108.149L550.97 108.161L551.416 108.435ZM552.226 106.59L552.729 106.734L552.739 106.699L552.744 106.664L552.226 106.59ZM551.731 101.685L552.214 101.484L552.211 101.476L551.731 101.685ZM549.616 98.805L549.265 99.1931L549.616 98.805ZM545.971 96.69L546.15 96.1981L545.971 96.69ZM535.576 96.42L535.445 95.9131L535.434 95.9161L535.576 96.42ZM529.636 99.93L530.04 100.263L530.046 100.255L530.052 100.248L529.636 99.93ZM528.241 102.18L528.721 102.39L528.725 102.379L528.241 102.18ZM527.611 104.295L528.124 104.398L528.128 104.381L528.13 104.364L527.611 104.295ZM527.431 106.005H526.908V106.528H527.431V106.005ZM533.641 106.005V106.528H534.164V106.005H533.641ZM533.731 105.24L533.228 105.096L533.218 105.131L533.213 105.166L533.731 105.24ZM534.136 104.205L533.668 103.971L533.662 103.982L533.658 103.992L534.136 104.205ZM534.856 103.125L534.462 102.78L534.452 102.792L534.443 102.804L534.856 103.125ZM536.071 102.18L536.322 102.639L536.347 102.626L536.371 102.609L536.071 102.18ZM537.781 101.46L537.916 101.966L537.925 101.963L537.781 101.46ZM542.146 101.37L542.043 101.883L542.049 101.884L542.146 101.37ZM544.036 102.09L544.3 101.638L544.036 102.09ZM545.386 103.485L544.931 103.745L544.936 103.752L544.94 103.759L545.386 103.485ZM545.566 107.535L546.034 107.769L546.042 107.753L546.049 107.736L545.566 107.535ZM544.576 108.84L544.228 108.449L544.226 108.451L544.576 108.84ZM543.091 109.65L543.245 110.15L543.256 110.147L543.091 109.65ZM541.291 109.397H535.711V110.443H541.291V109.397ZM535.188 109.92V114.825H536.234V109.92H535.188ZM535.711 115.348H541.471V114.302H535.711V115.348ZM541.471 115.348C541.983 115.348 542.541 115.391 543.101 115.477L543.26 114.443C542.651 114.349 542.039 114.302 541.471 114.302V115.348ZM543.107 115.478C543.662 115.557 544.176 115.756 544.61 116.032L545.172 115.148C544.616 114.794 543.96 114.543 543.255 114.442L543.107 115.478ZM544.627 116.042C545.072 116.302 545.466 116.724 545.795 117.259L546.687 116.711C546.296 116.076 545.79 115.508 545.155 115.138L544.627 116.042ZM545.773 117.219C546.043 117.76 546.213 118.486 546.213 119.415H547.259C547.259 118.364 547.068 117.47 546.709 116.751L545.773 117.219ZM546.213 119.415C546.213 119.97 546.094 120.54 545.883 121.129L546.869 121.481C547.108 120.81 547.259 120.12 547.259 119.415H546.213ZM545.901 121.086C545.656 121.615 545.339 122.089 544.823 122.525L545.499 123.325C546.153 122.771 546.556 122.165 546.851 121.524L545.901 121.086ZM544.826 122.523C544.341 122.927 543.682 123.3 542.888 123.551L543.204 124.549C544.12 124.26 544.901 123.823 545.496 123.327L544.826 122.523ZM542.888 123.551C542.086 123.804 541.104 123.977 539.941 123.977V125.023C541.208 125.023 542.296 124.836 543.204 124.549L542.888 123.551ZM539.941 123.977C538.637 123.977 537.563 123.803 536.716 123.549L536.416 124.551C537.369 124.837 538.545 125.023 539.941 125.023V123.977ZM536.731 123.553C535.841 123.257 535.182 122.882 534.654 122.435L533.978 123.235C534.62 123.778 535.401 124.213 536.4 124.547L536.731 123.553ZM534.635 122.42C534.119 122.023 533.777 121.559 533.589 121.072L532.612 121.448C532.875 122.131 533.343 122.747 533.997 123.25L534.635 122.42ZM533.576 121.041C533.33 120.508 533.219 120.043 533.219 119.595H532.173C532.173 120.227 532.332 120.842 532.626 121.479L533.576 121.041ZM532.696 119.072H526.486V120.118H532.696V119.072ZM525.963 119.595C525.963 120.989 526.148 122.265 526.532 123.367L527.52 123.023C527.184 122.055 527.009 120.901 527.009 119.595H525.963ZM526.525 123.347C526.86 124.447 527.389 125.414 528.072 126.195L528.86 125.505C528.283 124.846 527.822 124.013 527.527 123.043L526.525 123.347ZM528.062 126.183C528.728 126.992 529.495 127.664 530.409 128.193L530.933 127.287C530.137 126.826 529.464 126.238 528.87 125.517L528.062 126.183ZM530.409 128.193C531.288 128.702 532.268 129.17 533.302 129.499L533.62 128.501C532.674 128.2 531.764 127.768 530.933 127.287L530.409 128.193ZM533.323 129.505C534.328 129.779 535.345 130.011 536.504 130.15L536.628 129.11C535.537 128.979 534.573 128.761 533.599 128.495L533.323 129.505ZM536.501 130.149C537.61 130.288 538.758 130.333 539.896 130.333V129.287C538.784 129.287 537.682 129.242 536.631 129.111L536.501 130.149ZM539.896 130.333C542.099 130.333 544.088 130.058 545.859 129.499L545.543 128.501C543.893 129.022 542.013 129.287 539.896 129.287V130.333ZM545.859 129.499C547.619 128.943 549.075 128.195 550.305 127.202L549.647 126.388C548.537 127.285 547.203 127.977 545.543 128.501L545.859 129.499ZM550.313 127.196C551.482 126.213 552.437 125.075 553.061 123.73L552.111 123.29C551.565 124.465 550.719 125.487 549.639 126.394L550.313 127.196ZM553.057 123.737C553.676 122.452 554.009 121.024 554.009 119.55H552.963C552.963 120.866 552.665 122.138 552.114 123.283L553.057 123.737ZM554.009 119.55C554.009 118.424 553.868 117.485 553.682 116.646L552.66 116.874C552.834 117.655 552.963 118.516 552.963 119.55H554.009ZM553.675 116.62C553.442 115.779 553.155 115.055 552.762 114.416L551.87 114.964C552.197 115.495 552.45 116.121 552.667 116.9L553.675 116.62ZM552.777 114.442C552.426 113.79 551.979 113.298 551.561 112.88L550.821 113.62C551.213 114.012 551.576 114.42 551.855 114.938L552.777 114.442ZM551.518 112.841C551.068 112.481 550.638 112.146 550.155 111.856L549.617 112.754C550.033 113.004 550.414 113.299 550.864 113.659L551.518 112.841ZM550.12 111.837C549.646 111.6 549.173 111.411 548.746 111.268L548.415 112.262C548.799 112.389 549.226 112.56 549.652 112.773L550.12 111.837ZM548.722 111.261L547.597 110.946L547.315 111.954L548.44 112.269L548.722 111.261ZM547.979 111.45V111.36H546.932V111.45H547.979ZM547.615 111.859C548.655 111.528 549.568 111.051 550.254 110.512L549.608 109.688C549.034 110.139 548.236 110.562 547.297 110.861L547.615 111.859ZM550.254 110.512C550.936 109.976 551.472 109.343 551.862 108.709L550.97 108.161C550.64 108.697 550.185 109.234 549.608 109.688L550.254 110.512ZM551.846 108.733C552.3 108.078 552.544 107.383 552.729 106.734L551.723 106.446C551.548 107.057 551.342 107.622 550.986 108.137L551.846 108.733ZM552.744 106.664C552.832 106.047 552.929 105.42 552.929 104.79H551.883C551.883 105.33 551.8 105.873 551.708 106.516L552.744 106.664ZM552.929 104.79C552.929 103.673 552.685 102.614 552.214 101.484L551.248 101.886C551.677 102.916 551.883 103.837 551.883 104.79H552.929ZM552.211 101.476C551.729 100.367 550.962 99.3172 549.967 98.4169L549.265 99.1931C550.16 100.003 550.833 100.933 551.251 101.894L552.211 101.476ZM549.967 98.4169C548.965 97.51 547.689 96.7577 546.15 96.1981L545.792 97.1819C547.223 97.7023 548.377 98.39 549.265 99.1931L549.967 98.4169ZM546.15 96.1981C544.592 95.6317 542.728 95.3566 540.616 95.3566V96.4034C542.644 96.4034 544.38 96.6683 545.792 97.1819L546.15 96.1981ZM540.616 95.3566C538.652 95.3566 536.895 95.5389 535.445 95.9132L535.707 96.9268C537.046 96.5811 538.71 96.4034 540.616 96.4034V95.3566ZM535.434 95.9161C533.958 96.3313 532.745 96.8427 531.71 97.4544L532.242 98.3556C533.187 97.7973 534.314 97.3187 535.718 96.9239L535.434 95.9161ZM531.71 97.4544C530.668 98.0698 529.85 98.7881 529.22 99.6121L530.052 100.248C530.592 99.5419 531.304 98.9101 532.242 98.3556L531.71 97.4544ZM529.232 99.5973C528.576 100.393 528.096 101.158 527.757 101.981L528.725 102.379C529.016 101.672 529.435 100.997 530.04 100.263L529.232 99.5973ZM527.761 101.97C527.433 102.721 527.19 103.489 527.092 104.226L528.13 104.364C528.211 103.751 528.419 103.079 528.72 102.39L527.761 101.97ZM527.098 104.192C526.956 104.902 526.908 105.521 526.908 106.005H527.954C527.954 105.589 527.996 105.038 528.124 104.398L527.098 104.192ZM527.431 106.528H533.641V105.482H527.431V106.528ZM534.164 106.005C534.164 105.829 534.198 105.67 534.249 105.314L533.213 105.166C533.174 105.44 533.117 105.731 533.117 106.005H534.164ZM534.234 105.384C534.313 105.109 534.433 104.826 534.614 104.418L533.658 103.992C533.479 104.394 533.329 104.741 533.228 105.096L534.234 105.384ZM534.604 104.439C534.76 104.127 534.959 103.845 535.269 103.446L534.443 102.804C534.123 103.215 533.872 103.563 533.668 103.971L534.604 104.439ZM535.25 103.47C535.518 103.164 535.871 102.885 536.322 102.639L535.82 101.721C535.281 102.015 534.824 102.366 534.462 102.78L535.25 103.47ZM536.371 102.609C536.748 102.345 537.265 102.139 537.916 101.966L537.646 100.954C536.947 101.141 536.294 101.385 535.771 101.751L536.371 102.609ZM537.925 101.963C538.493 101.801 539.206 101.713 540.121 101.713V100.667C539.145 100.667 538.329 100.759 537.637 100.957L537.925 101.963ZM540.121 101.713C540.773 101.713 541.412 101.757 542.043 101.883L542.249 100.857C541.53 100.713 540.819 100.667 540.121 100.667V101.713ZM542.049 101.884C542.699 102.006 543.273 102.251 543.772 102.542L544.3 101.638C543.719 101.299 543.033 101.004 542.242 100.856L542.049 101.884ZM543.772 102.542C544.228 102.808 544.614 103.189 544.931 103.745L545.84 103.225C545.438 102.521 544.924 102.002 544.3 101.638L543.772 102.542ZM544.94 103.759C545.237 104.242 545.403 104.86 545.403 105.69H546.449C546.449 104.72 546.255 103.898 545.832 103.211L544.94 103.759ZM545.403 105.69C545.403 106.338 545.282 106.855 545.083 107.334L546.049 107.736C546.3 107.135 546.449 106.482 546.449 105.69H545.403ZM545.098 107.301C544.857 107.783 544.582 108.134 544.228 108.449L544.924 109.231C545.38 108.826 545.735 108.367 546.034 107.769L545.098 107.301ZM544.226 108.451C543.851 108.788 543.431 108.985 542.925 109.153L543.256 110.147C543.831 109.955 544.401 109.702 544.926 109.229L544.226 108.451ZM542.937 109.15C542.401 109.315 541.868 109.397 541.291 109.397V110.443C541.974 110.443 542.61 110.345 543.245 110.15L542.937 109.15ZM607.613 118.695H607.09V119.218H607.613V118.695ZM607.613 96.69H608.137V96.1666H607.613V96.69ZM601.133 96.69V96.1666H600.61V96.69H601.133ZM601.133 129H600.61V129.523H601.133V129ZM607.973 129V129.523H608.274L608.425 129.264L607.973 129ZM620.753 107.13V106.607H620.453L620.301 106.866L620.753 107.13ZM620.843 107.13H621.367V106.607H620.843V107.13ZM620.843 129H620.32V129.523H620.843V129ZM627.323 129V129.523H627.847V129H627.323ZM627.323 96.69H627.847V96.1666H627.323V96.69ZM620.483 96.69V96.1666H620.182L620.031 96.4271L620.483 96.69ZM607.703 118.695V119.218H608.005L608.156 118.958L607.703 118.695ZM608.137 118.695V96.69H607.09V118.695H608.137ZM607.613 96.1666H601.133V97.2134H607.613V96.1666ZM600.61 96.69V129H601.657V96.69H600.61ZM601.133 129.523H607.973V128.477H601.133V129.523ZM608.425 129.264L621.205 107.394L620.301 106.866L607.521 128.736L608.425 129.264ZM620.753 107.653H620.843V106.607H620.753V107.653ZM620.32 107.13V129H621.367V107.13H620.32ZM620.843 129.523H627.323V128.477H620.843V129.523ZM627.847 129V96.69H626.8V129H627.847ZM627.323 96.1666H620.483V97.2134H627.323V96.1666ZM620.031 96.4271L607.251 118.432L608.156 118.958L620.936 96.9529L620.031 96.4271ZM607.703 118.172H607.613V119.218H607.703V118.172ZM682.884 108.975H682.36V109.498H682.884V108.975ZM682.884 96.69H683.407V96.1666H682.884V96.69ZM676.134 96.69V96.1666H675.61V96.69H676.134ZM676.134 129H675.61V129.523H676.134V129ZM682.884 129V129.523H683.407V129H682.884ZM682.884 114.555V114.032H682.36V114.555H682.884ZM695.574 114.555H696.097V114.032H695.574V114.555ZM695.574 129H695.05V129.523H695.574V129ZM702.324 129V129.523H702.847V129H702.324ZM702.324 96.69H702.847V96.1666H702.324V96.69ZM695.574 96.69V96.1666H695.05V96.69H695.574ZM695.574 108.975V109.498H696.097V108.975H695.574ZM683.407 108.975V96.69H682.36V108.975H683.407ZM682.884 96.1666H676.134V97.2134H682.884V96.1666ZM675.61 96.69V129H676.657V96.69H675.61ZM676.134 129.523H682.884V128.477H676.134V129.523ZM683.407 129V114.555H682.36V129H683.407ZM682.884 115.078H695.574V114.032H682.884V115.078ZM695.05 114.555V129H696.097V114.555H695.05ZM695.574 129.523H702.324V128.477H695.574V129.523ZM702.847 129V96.69H701.8V129H702.847ZM702.324 96.1666H695.574V97.2134H702.324V96.1666ZM695.05 96.69V108.975H696.097V96.69H695.05ZM695.574 108.452H682.884V109.498H695.574V108.452ZM773.409 102.27V102.793H773.933V102.27H773.409ZM773.409 96.69H773.933V96.1666H773.409V96.69ZM751.674 96.69V96.1666H751.151V96.69H751.674ZM751.674 129H751.151V129.523H751.674V129ZM758.424 129V129.523H758.948V129H758.424ZM758.424 102.27V101.747H757.901V102.27H758.424ZM773.933 102.27V96.69H772.886V102.27H773.933ZM773.409 96.1666H751.674V97.2134H773.409V96.1666ZM751.151 96.69V129H752.198V96.69H751.151ZM751.674 129.523H758.424V128.477H751.674V129.523ZM758.948 129V102.27H757.901V129H758.948ZM758.424 102.793H773.409V101.747H758.424V102.793Z" fill="white"/>
    <path fill-rule="evenodd" clip-rule="evenodd" d="M54.355 62.5755C53.124 65.2446 51.9955 67.0924 50.3028 68.3243C48.5588 69.5561 46.4557 70.0694 43.3781 70.0694C40.4543 70.0694 38.4026 69.6588 36.6586 68.4269C34.9146 67.2464 33.6835 65.3986 32.3499 62.5755L17.1155 29.931L17.372 67.503V69.5048H15.4228H3.2661H1.26562V67.503V20.9486C1.26562 16.4318 4.03551 14.1733 7.06186 13.0441C9.78045 12.0176 12.6529 12.0176 13.6275 12.0176C16.2948 12.0176 18.7056 12.2742 20.9113 13.4034C23.2195 14.584 25.1687 16.5858 26.7588 19.9221L43.3781 55.133L59.9974 19.9221C61.5875 16.5858 63.5367 14.584 65.7936 13.4034C68.0506 12.2742 70.4614 12.0176 73.0774 12.0176C76.4115 12.0176 79.3866 12.6335 81.5409 13.968C84.003 15.4565 85.4393 17.7663 85.4393 20.9486V67.503V69.5048H83.4901H71.3334H69.3329V67.4517L69.692 29.7257L54.355 62.5755ZM105.341 69.5048C102.264 69.5048 99.4426 69.5048 96.7753 67.4004C95.2877 66.2198 94.5183 64.834 94.0567 63.3968C93.6976 62.0623 93.595 60.7791 93.595 59.6499V22.1292H93.6463C93.6463 20.846 93.9028 19.5114 94.3644 18.3309C94.467 18.1256 94.5183 17.9203 94.6209 17.7663C95.0826 16.7911 95.6981 15.9185 96.4675 15.1999V15.1486C97.8524 13.968 99.4939 13.3008 101.135 12.9928C102.725 12.6335 104.213 12.6335 105.547 12.6335H146.838H148.839V14.584V22.5398V24.5416H146.838H112.061C111.599 24.5416 111.086 24.5416 110.676 24.5929C110.42 24.6442 110.112 24.7469 109.958 24.9009C109.855 24.9522 109.804 25.0035 109.804 25.1062C109.753 25.2602 109.753 25.5681 109.753 25.8761V34.4992H145.915H147.916V36.501V44.4568V46.4586H145.915H109.753V56.8268C109.753 56.9808 109.753 57.0835 109.804 57.2374C109.804 57.2374 109.804 57.1861 109.855 57.2374V57.2888L109.804 57.2374V57.2888H109.855H109.804H109.907L109.958 57.3401C110.009 57.3914 110.214 57.4428 110.522 57.4941C111.086 57.5454 111.907 57.5454 112.83 57.5454H147.197H149.198V59.5472V67.503V69.4535H147.197H105.341V69.5048ZM180.128 18.6389C181.052 16.8937 182.18 15.2512 184.078 14.0194C185.976 12.7875 188.489 12.0176 192.131 12.0176C195.363 12.0176 197.773 12.5309 199.671 13.6601C201.62 14.7893 203.005 16.4318 204.185 18.6389L225.267 57.5454H229.524H231.474V59.5472V67.503V69.5048H229.524H154.738H152.737V67.503V59.5472V57.5454H154.738H158.944L180.128 18.6389ZM332.933 57.5454H355.503C358.375 57.5454 360.684 57.3401 362.581 56.9295C364.428 56.5702 365.915 56.0056 367.198 55.287V55.2357C369.25 54.1064 370.532 52.7719 371.25 51.1808C371.866 49.8976 372.122 48.3577 372.276 46.5612H335.139H333.19V44.6108V36.655V34.6532H335.139H372.122C371.968 33.7293 371.712 32.754 371.353 31.8301C370.737 30.2903 369.814 28.9045 368.326 27.7239C368.019 27.4673 367.66 27.2106 367.352 27.0053C366.993 26.8 366.582 26.5947 366.121 26.3381C363.864 25.2602 360.735 24.5416 356.683 24.5416H333.857H331.856V22.5398V14.584V12.6335H333.857H360.53C362.735 12.6335 366.121 12.7362 369.814 13.4548C373.558 14.276 377.611 15.7132 381.047 18.4849V18.5362C384.638 21.4619 386.587 25.1575 387.664 29.1098C388.69 32.908 388.844 36.8603 388.844 40.6072C388.844 45.9966 388.434 50.5648 387.151 54.5171C385.818 58.572 383.561 61.857 379.919 64.4233C376.841 66.5791 373.302 67.8623 369.865 68.5809C366.48 69.2995 363.197 69.5048 360.53 69.5048H332.933H330.984V67.503V59.5472V57.5454H332.933ZM398.231 12.6335H410.388H412.337V14.584V37.1169C412.952 35.8337 413.978 34.3965 415.825 32.8567L440.189 13.0441L440.754 12.6335H441.472H456.45H462.246L457.681 16.1751L429.879 37.8355C428.905 38.6054 428.135 39.2727 427.674 39.8373C427.417 40.1453 427.263 40.2992 427.263 40.3506C427.263 40.6072 427.571 41.0178 428.084 41.5311C428.802 42.2497 429.725 42.9683 430.597 43.5842L461.015 65.9119L465.939 69.5048H459.886H444.498H443.831L443.267 69.0429L416.799 48.717C416.184 48.2551 415.671 47.8444 415.209 47.3825C414.747 46.9719 414.388 46.5612 413.978 46.0993C413.26 45.2267 412.696 44.3541 412.337 43.5842V67.503V69.5048H410.388H398.231H396.23V67.503V14.584V12.6335H398.231ZM487.021 69.5048C483.789 69.5048 480.045 69.2995 476.198 68.3756C472.299 67.4517 468.401 65.7579 465.17 62.7295C461.784 59.6499 459.989 55.9029 459.014 52.1047C458.091 48.4604 457.988 44.8161 457.988 41.7878C457.988 37.8868 458.194 33.8833 459.117 30.1876C460.092 26.2867 461.836 22.6938 464.862 19.8194C468.35 16.4318 472.812 14.6353 477.019 13.6601C481.122 12.7362 484.918 12.6335 487.277 12.6335H513.13H515.13V14.584V22.5398V24.5416H513.13H492.971C489.483 24.5416 486.303 24.5929 483.635 25.2088C481.173 25.7735 479.122 26.8 477.583 28.6991C476.762 29.6744 475.993 31.0602 475.428 33.0107C474.864 35.1151 474.454 37.8868 474.454 41.6338C474.454 45.3807 474.864 47.9984 475.428 49.8462C475.89 51.5914 476.506 52.5666 477.07 53.2339C478.404 54.979 480.353 56.0056 482.815 56.6728C485.431 57.3401 488.662 57.5454 492.355 57.5454H514.156H516.105V59.5472V67.503V69.5048H514.156H487.021ZM542.726 24.4903H542.47C541.906 24.4903 541.29 24.4903 541.136 24.6956H541.085C540.982 24.9522 540.931 25.3115 540.931 25.7221V67.503V69.5048H538.982H526.825H524.825V67.503V21.7699C524.825 20.6407 524.927 19.5114 525.389 18.3309C525.799 17.1504 526.62 16.0212 528.005 14.9433C529.39 13.8141 530.724 13.2494 532.211 12.9415C533.545 12.6335 534.878 12.6335 536.468 12.6335H574.58C575.965 12.6335 577.35 12.6335 578.735 12.8902C580.222 13.1981 581.71 13.8141 583.095 14.9433C584.377 15.9698 585.147 17.1504 585.557 18.3822C586.019 19.5114 586.121 20.692 586.121 21.7699V67.503V69.5048H584.121H572.015H570.015V67.503V25.7221V25.5168V25.4655C570.015 25.1575 570.015 24.7469 570.015 24.7469L569.964 24.6956L569.912 24.6442C569.707 24.4903 568.989 24.4903 568.527 24.4903H568.322V24.5416H542.726V24.4903ZM541.085 24.6956H541.136H541.085ZM608.537 69.5048C605.459 69.5048 602.638 69.5048 599.971 67.4004C598.483 66.2198 597.714 64.834 597.252 63.3968C596.893 62.1136 596.79 60.7791 596.79 59.6499V22.1292H596.842C596.842 20.846 597.098 19.5114 597.56 18.3309C597.611 18.1256 597.714 17.9716 597.816 17.7663C598.278 16.7911 598.893 15.9185 599.663 15.1999L599.714 15.1486C601.048 13.968 602.689 13.3008 604.331 12.9928C605.921 12.6335 607.408 12.6335 608.742 12.6335H650.034H652.034V14.584V22.5398V24.5416H650.034H615.256V24.4903C614.795 24.4903 614.333 24.5416 613.923 24.5929C613.615 24.6442 613.358 24.7469 613.153 24.9009C613.051 24.9522 612.999 25.0035 612.999 25.1062C612.948 25.3115 612.948 25.6195 612.948 25.8761V34.5505H649.11H651.111V36.501V44.4568V46.4073H649.11H612.948V56.8268C612.948 56.9808 612.948 57.0835 612.999 57.2374C612.999 57.2374 612.999 57.1861 613.051 57.2374L612.999 57.2888H613.051L613.153 57.3401C613.204 57.3914 613.41 57.4428 613.769 57.4941C614.282 57.5454 615.102 57.5454 616.026 57.5454H650.444H652.393V59.5472V67.503V69.5048H650.444H608.537ZM612.999 57.2374V57.2888L613.051 57.2374C612.999 57.2374 612.999 57.2374 612.999 57.2374ZM612.999 57.2374C612.948 57.2374 612.948 57.2374 612.999 57.2374V57.2374ZM661.113 67.503V22.5398C661.113 20.1274 661.113 17.5097 664.088 15.0973C665.422 14.0194 666.961 13.4034 668.5 13.0441C669.936 12.6848 671.372 12.6335 672.603 12.6335H703.226C706.867 12.6335 712.715 12.6335 717.229 16.2265C719.845 18.2796 721.281 21 721.999 23.823C722.769 26.5434 722.871 29.3151 722.871 31.6762C722.871 33.9346 722.717 36.9116 721.897 39.8373C721.025 42.8656 719.383 45.8427 716.357 47.8444C715.947 48.1011 715.536 48.3577 715.075 48.563C714.613 48.8197 714.151 49.025 713.741 49.2303C711.33 50.1542 708.406 50.7701 705.431 50.7701V50.7188H677.22V67.503V69.5048H675.27H663.114H661.113V67.503ZM751.391 67.503V24.5416H728.257H726.308V22.5398V14.584V12.6335H728.257H790.733H792.734V14.584V22.5398V24.5416H790.733H767.497V67.503V69.5048H765.548H753.391H751.391V67.503ZM698.353 38.8107C700.661 38.8107 703.38 38.8107 704.918 37.3736C705.534 36.8089 705.893 35.885 706.098 34.9098C706.355 33.7293 706.406 32.5487 706.406 31.5735C706.406 30.5469 706.303 29.3151 706.047 28.1859C705.842 27.262 705.431 26.3894 704.764 25.8761C704.046 25.2602 703.02 24.9009 701.943 24.7469C700.712 24.5416 699.481 24.5416 698.558 24.5416H678.912V24.4903H678.707C678.245 24.4903 677.63 24.4903 677.322 24.7469C677.322 24.7469 677.271 24.7982 677.271 24.8495C677.22 25.0035 677.22 25.3628 677.22 25.7221V38.8107H698.353ZM175.871 57.5454H208.391L192.131 26.646L175.871 57.5454Z" fill="white"/>
    <path fill-rule="evenodd" clip-rule="evenodd" d="M284.023 65.5529H271.045V47.0235H252.528V34.0889H271.045V15.5595H284.023V34.0889H302.488V47.0235H284.023V65.5529ZM239.243 52.0537L238.986 51.4891L238.935 51.4377L238.73 50.8731L238.679 50.7705L238.473 50.2059V50.1032L238.319 49.5386L238.268 49.4359L238.166 48.82V48.7687L238.063 48.1527V48.1014L238.012 47.4342V47.3828V46.8182V46.7669V34.2942V34.2429V33.6783V33.5756L238.063 32.9597V32.9084L238.166 32.2924V32.1898L238.268 31.6252L238.319 31.5225L238.473 30.9579V30.8553L238.679 30.2906V30.188L238.935 29.6234L238.986 29.5207L239.243 29.0074V28.9561L239.551 28.4428V28.3915L239.858 27.8782L240.217 27.365V27.3136L240.576 26.903L240.628 26.8517L240.987 26.3897V26.3384L241.397 25.9278H241.448L241.859 25.5172L241.91 25.4658L242.32 25.1065V25.0552L242.782 24.7472V24.6959L243.244 24.3879H243.295L243.705 24.08L243.757 24.0286L244.218 23.772L244.27 23.7207L244.731 23.464H244.783L245.295 23.2587V23.2074L245.808 23.0021H245.86L246.373 22.7968L246.424 22.7454L246.937 22.5915H246.988L247.501 22.4375H247.552L248.065 22.3348L248.117 22.2835L248.578 22.1808H248.63L249.143 22.1295H249.194L249.707 22.0782L249.758 22.0269H250.322H250.374H250.835L250.887 21.9755H259.042V13.8657V13.3524V13.3011L259.094 12.7878V12.7365L259.145 12.2232V12.1719L259.247 11.6586V11.6073L259.35 11.094V11.0427L259.504 10.5807V10.5294L259.658 10.0161V9.9648L259.812 9.45152V9.4002L260.017 8.88692L260.068 8.83559L260.273 8.32231V8.27098L260.53 7.80903V7.7577L260.786 7.29575L260.838 7.24442L261.094 6.78247L261.145 6.73114L261.453 6.26919V6.21787L261.812 5.75592V5.70459L262.171 5.29396H262.223L262.53 4.88334L262.582 4.83201L262.992 4.42139L263.043 4.37006L263.454 4.01077L263.505 3.95944L263.915 3.60014H263.967L264.428 3.24085L264.479 3.18952L264.941 2.88155L265.454 2.57359H265.505L265.967 2.26562H266.018L266.583 2.00898L266.634 1.95765L267.249 1.70101H267.301L267.916 1.4957H267.967L268.583 1.34172L268.634 1.29039L269.25 1.18773H269.301L269.917 1.08508H270.019L270.635 1.03375H270.686H271.302V0.982422H283.817L283.869 1.03375H284.433H284.484L285.1 1.08508H285.202L285.818 1.18773H285.869L286.485 1.29039L286.536 1.34172L287.152 1.4957H287.254L287.818 1.70101H287.87L288.485 1.95765H288.536L289.101 2.21429L289.152 2.26562L289.665 2.52226L289.716 2.57359L290.178 2.88155H290.229L290.691 3.18952L290.742 3.24085L291.204 3.54882L291.255 3.60014L291.665 3.95944L291.717 4.01077L292.127 4.37006L292.178 4.42139L292.537 4.83201L292.589 4.88334L292.999 5.29396V5.34529L293.358 5.75592V5.80724L293.717 6.26919V6.32052L294.025 6.73114V6.78247L294.333 7.24442V7.29575L294.589 7.7577L294.64 7.80903L294.846 8.32231L294.897 8.37364L295.102 8.83559V8.88692L295.307 9.4002V9.45152L295.461 9.9648L295.615 10.4781V10.5294L295.769 11.0427V11.094L295.872 11.6073V11.6586L295.974 12.1719V12.2232L296.025 12.7365V12.7878L296.077 13.3011V13.3524V13.8657V21.9755H304.13H304.643H304.694L305.207 22.0269H305.258L305.771 22.0782H305.823L306.336 22.1295L306.387 22.1808L306.9 22.2835H306.951L307.464 22.3862H307.515L308.028 22.5401L308.592 22.7454H308.644L309.105 22.9508H309.157L309.618 23.1561H309.67L310.131 23.4127H310.183L310.644 23.6693H310.696L311.106 23.926L311.157 23.9773L311.619 24.2853H311.67L312.08 24.5932V24.6446L312.491 24.9012L312.645 25.0552L312.696 25.1065H312.747V25.1579L312.85 25.2092L312.901 25.2605L312.952 25.3118L313.312 25.6711L313.363 25.7225L313.722 26.0818L313.773 26.1331L314.132 26.4924L314.184 26.5437L314.491 26.9543L314.543 27.0057L314.85 27.4163L314.902 27.4676L315.209 27.9296V27.9809L315.466 28.3915L315.517 28.4428L315.774 28.9561L315.825 29.0074L316.081 29.5721V29.6234L316.338 30.188V30.2393L316.543 30.8553L316.594 30.9066L316.748 31.5225V31.5738L316.851 32.1898L316.902 32.2924L316.953 32.9084V32.9597L317.005 33.5756V33.627L317.056 34.2429V46.7669V46.8182L317.005 47.4342V47.4855L316.953 48.1014V48.1527L316.902 48.7687L316.851 48.8713L316.748 49.4359V49.5386L316.594 50.1545L316.543 50.2059L316.389 50.7705L316.338 50.8731L316.133 51.4377L316.081 51.4891L315.825 52.0537L315.774 52.105L315.517 52.6183L315.466 52.6696L315.209 53.1316L315.158 53.1829L314.85 53.6448L314.799 53.6962L314.491 54.1581L314.44 54.2094L314.081 54.6201L314.03 54.6714L313.671 55.082L313.619 55.1333L313.209 55.544H313.158L312.747 55.9546L312.696 56.0059L312.286 56.3139L312.234 56.3652L311.824 56.6732L311.773 56.7245L311.311 56.9811L311.26 57.0325L310.798 57.2891L310.747 57.3404L310.285 57.5971H310.234L309.721 57.8537H309.67L309.208 58.059H309.157L308.644 58.2643L308.131 58.4697H308.08L307.567 58.6236H307.515L307.002 58.7263H306.951L306.438 58.8289L306.387 58.8803L305.874 58.9316H305.823L305.31 58.9829H305.258L304.745 59.0343H304.694H304.232H304.181H296.128V67.0927V67.1441L296.077 67.5034V67.5547V67.9653L296.025 68.3759V68.4273L295.974 68.7866V68.8379L295.923 69.2485L295.872 69.6591L295.82 69.7105L295.769 70.0698V70.1211L295.666 70.429V70.4804V70.5317L295.615 70.583V70.6344V70.737L295.564 70.8397L295.512 70.9423L295.461 71.0963V71.1476V71.2503L295.41 71.4043L295.359 71.5583L295.307 71.6609V71.7122L295.102 72.2255V72.2769L294.846 72.7901V72.8415L294.589 73.3034V73.3547L294.333 73.8167L294.281 73.868L294.025 74.33L293.974 74.3813L293.717 74.8432L293.666 74.8946L293.358 75.3052L293.307 75.3565L292.948 75.8185L292.896 75.8698L292.537 76.2804H292.486L292.127 76.691L292.076 76.7424L291.665 77.1017L291.614 77.153L291.204 77.5123H291.152L290.691 77.8716V77.9229L290.229 78.2309H290.178L289.716 78.5389H289.665L289.152 78.8468L289.101 78.8981L288.536 79.1548H288.485L287.87 79.4114H287.818L287.203 79.6167H287.152L286.536 79.8221H286.485L285.869 79.9247H285.818L285.202 80.0274H285.1L284.484 80.0787H284.433H283.817V80.13H271.302V80.0787H270.686H270.635L270.019 80.0274H269.917L269.352 79.9247H269.25L268.634 79.8221H268.583L267.967 79.6167H267.916L267.301 79.4114H267.249L266.685 79.1548H266.583L266.018 78.8981L265.967 78.8468L265.454 78.5902L265.403 78.5389L264.941 78.2309H264.89L264.428 77.9229L264.377 77.8716L263.915 77.5123H263.864L263.454 77.153L263.402 77.1017L262.992 76.691H262.941L262.582 76.2804L262.53 76.2291L262.171 75.8185L262.12 75.7672L261.761 75.3565V75.3052L261.453 74.8946L261.402 74.8432L261.094 74.3813V74.33L260.838 73.868L260.786 73.8167L260.53 73.3547V73.3034L260.273 72.8415V72.7901L260.068 72.2769L260.017 72.2255L259.812 71.7122V71.6609L259.658 71.1476V71.0963L259.504 70.583V70.5317L259.35 70.0698V70.0184L259.247 69.5051V69.4538L259.145 68.9405V68.8892L259.094 68.3759V68.3246L259.042 67.8113V67.76V67.2467V59.0343H250.835H250.374H250.322L249.809 58.9829H249.758L249.194 58.9316L248.681 58.8803L248.63 58.8289L248.065 58.7263L247.552 58.6236H247.501L246.988 58.4697H246.937L246.424 58.2643H246.373L245.86 58.059H245.808L245.347 57.8537L245.295 57.8024L244.783 57.5971L244.731 57.5457L244.27 57.2891H244.218L243.757 56.9811H243.705L243.244 56.6732L243.192 56.6218L242.782 56.3139L242.731 56.2626L242.32 55.9546L242.269 55.9033L241.859 55.544L241.807 55.4926L241.397 55.082H241.346L240.987 54.6714L240.935 54.6201L240.628 54.1581H240.576L240.217 53.6962V53.6448L239.91 53.1829L239.858 53.1316L239.551 52.6696V52.6183L239.243 52.105V52.0537ZM243.654 34.2942V46.7156V46.7669C243.654 47.2802 243.705 47.7421 243.808 48.2554L243.859 48.4607C243.962 48.82 244.116 49.1793 244.27 49.4873C244.321 49.5899 244.372 49.7439 244.475 49.8466C244.526 49.9492 244.577 50.0519 244.68 50.1545C245.039 50.7191 245.449 51.1811 245.962 51.5917C246.27 51.8997 246.629 52.1563 247.039 52.3616C247.45 52.6183 247.86 52.7723 248.271 52.9262C248.732 53.0802 249.143 53.2342 249.604 53.2855C250.015 53.3369 250.476 53.3882 250.887 53.3882H263.505H264.685V54.5687V67.1954C264.685 67.606 264.736 68.068 264.839 68.4786C264.89 68.9405 264.992 69.4025 265.146 69.8131C265.3 70.2751 265.505 70.6857 265.711 71.045C265.916 71.4556 266.172 71.8149 266.48 72.1742C266.531 72.2769 266.634 72.3282 266.736 72.4308C266.788 72.5335 266.89 72.6361 266.993 72.7388C267.455 73.1494 267.967 73.5087 268.583 73.8167C268.686 73.868 268.839 73.9707 268.942 74.022C269.045 74.022 269.147 74.0733 269.301 74.1247C269.917 74.33 270.583 74.4326 271.353 74.4326H283.766C284.279 74.4326 284.792 74.3813 285.254 74.2786L285.51 74.2273C285.869 74.1247 286.228 74.022 286.485 73.868L286.536 73.8167C286.639 73.7654 286.741 73.714 286.895 73.6627C286.946 73.6114 287.049 73.5087 287.203 73.4574C287.767 73.0981 288.229 72.6361 288.639 72.1742C288.947 71.8149 289.203 71.4556 289.408 71.045C289.614 70.6857 289.819 70.2751 289.973 69.8131C290.024 69.7105 290.075 69.5565 290.075 69.5051C290.127 69.3512 290.178 69.1972 290.178 69.1459V69.0945V69.0432L290.28 68.7352L290.332 68.4786C290.434 68.0166 290.434 67.5547 290.434 67.0927V54.5687V53.3882H291.614H304.13H304.181C304.592 53.3882 305.002 53.3882 305.464 53.2855L305.669 53.2342C306.028 53.1829 306.387 53.0802 306.746 52.9262H306.797C306.9 52.9262 307.002 52.8749 307.156 52.8236C307.259 52.7209 307.413 52.6696 307.515 52.6696C308.08 52.3616 308.644 52.0537 309.105 51.643C309.464 51.3351 309.772 51.0271 310.029 50.6678C310.285 50.3598 310.542 49.9492 310.798 49.5386V49.4873C310.849 49.3846 310.901 49.282 310.952 49.1793C311.003 49.0766 311.003 48.974 311.055 48.82C311.311 48.2041 311.414 47.4855 311.414 46.7669V34.2942C311.414 33.7809 311.362 33.2677 311.26 32.8057C311.208 32.7544 311.208 32.7031 311.157 32.6004C311.106 32.2411 310.952 31.8818 310.798 31.5738C310.747 31.5225 310.696 31.3685 310.593 31.2145C310.542 31.1119 310.439 31.0092 310.388 30.9066C310.08 30.3933 309.67 29.9313 309.208 29.5207H309.157L309.105 29.4694V29.4181H309.054L309.003 29.3667L308.9 29.2641L308.644 29.1101C308.592 29.0588 308.49 29.0074 308.387 28.9048C307.874 28.5455 307.31 28.2889 306.746 28.0835H306.695C306.541 28.0322 306.438 27.9809 306.336 27.9296C306.233 27.9296 306.079 27.8782 305.976 27.8269C305.361 27.6729 304.745 27.6216 304.079 27.6216H291.614H290.486V26.4411L290.434 24.5932V24.5419V13.917V13.8657C290.434 13.4551 290.383 13.0445 290.332 12.5825L290.28 12.3772C290.178 12.0179 290.075 11.6586 289.973 11.2993C289.921 11.1967 289.87 11.0427 289.819 10.94C289.768 10.786 289.716 10.6834 289.665 10.5807C289.408 9.9648 289.049 9.45152 288.639 8.93824C288.383 8.63028 288.075 8.32231 287.716 8.01434C287.357 7.7577 286.946 7.50106 286.536 7.29575C286.433 7.1931 286.28 7.14177 286.177 7.14177C286.126 7.09044 285.972 7.03911 285.869 6.98778H285.818C285.202 6.78247 284.536 6.67982 283.766 6.67982H271.353C270.84 6.67982 270.327 6.73114 269.865 6.8338C269.814 6.8338 269.711 6.8338 269.66 6.88513C269.301 6.98778 268.942 7.09044 268.583 7.29575C268.173 7.50106 267.814 7.7577 267.455 8.01434C267.095 8.27098 266.788 8.57895 266.48 8.93824C266.172 9.29754 265.916 9.65683 265.711 10.0675C265.505 10.4268 265.3 10.8374 265.146 11.2993C264.992 11.7099 264.89 12.1719 264.839 12.6339C264.736 13.0445 264.685 13.4551 264.685 13.917V26.4411V27.5703L263.556 27.6216H262.428V27.6729H261.248H250.887C250.476 27.6729 250.015 27.6729 249.604 27.7756C249.143 27.8269 248.732 27.9809 248.271 28.1349C247.809 28.2889 247.399 28.4428 247.039 28.6482C246.629 28.9048 246.27 29.1614 245.911 29.4181C245.86 29.5207 245.757 29.5721 245.655 29.6747C245.552 29.7774 245.449 29.88 245.398 29.9313C244.936 30.3933 244.577 30.9579 244.27 31.5225C244.218 31.6765 244.167 31.7792 244.116 31.8818C244.064 31.9845 244.013 32.0871 243.962 32.2411C243.757 32.857 243.654 33.5756 243.654 34.2942Z" fill="white"/>
    <defs>
        <linearGradient id="paint0_linear" x1="387" y1="76" x2="387" y2="138" gradientUnits="userSpaceOnUse">
            <stop stop-color="white"/>
            <stop offset="1" stop-color="white" stop-opacity="0"/>
        </linearGradient>
    </defs>
</svg>