<svg xmlns="http://www.w3.org/2000/svg" viewBox="0 0 20 20">
    <path fill="#888887" d="M16.127 10.212a.808.808 0 0 0-.808.808v6.128c0 .681-.554 1.235-1.235 1.235H2.85a1.236 1.236 0 0 1-1.235-1.235V5.913c0-.681.554-1.235 1.235-1.235h6.128a.808.808 0 1 0 0-1.616H2.85A2.855 2.855 0 0 0 0 5.913v11.235a2.854 2.854 0 0 0 2.851 2.851h11.234a2.854 2.854 0 0 0 2.851-2.851V11.02a.81.81 0 0 0-.809-.808zM19.191-.002h-6.128a.808.808 0 0 0 0 1.616h5.32v5.32a.808.808 0 0 0 1.616 0V.807a.808.808 0 0 0-.808-.809z"/>
    <path fill="#888887" d="M19.763.235a.808.808 0 0 0-1.142 0L7.386 11.47a.808.808 0 1 0 1.142 1.143L19.763 1.378a.81.81 0 0 0 0-1.143z"/>
</svg>