<svg xmlns="http://www.w3.org/2000/svg" viewBox="0 0 200 20">
    <path fill="#009f59" d="M13.483 15.52c-.312.673-.597 1.133-1.023 1.443-.44.32-.97.449-1.754.449v-.002c-.733 0-1.251-.11-1.7-.417-.433-.301-.749-.763-1.078-1.473L4.082 7.277l.062 9.479.005.504H.077V5.015c0-1.141.696-1.712 1.466-1.997.685-.256 1.405-.261 1.659-.261v.002c.666 0 1.276.068 1.841.353v.003c.574.292 1.068.791 1.467 1.647h.003l4.192 8.879 4.193-8.879c.4-.855.897-1.355 1.472-1.648v-.003c.563-.285 1.173-.353 1.837-.353v-.001h.003v.002c.845 0 1.59.157 2.138.492.616.378.985.956.985 1.76h.002V17.26h-4.071l.003-.507.087-9.524-3.871 8.291zm4.281-9.109h.002-.002zm8.595 10.849c-.788 0-1.495 0-2.169-.529a1.926 1.926 0 0 1-.68-1.003 3.288 3.288 0 0 1-.115-.955V5.314h.002a2.602 2.602 0 0 1 .246-1.1c.117-.251.276-.475.47-.654l.007-.01c.341-.303.753-.465 1.175-.55.396-.081.776-.09 1.111-.09h10.929v3.003h-9.281c-.124 0-.25.004-.347.022a.457.457 0 0 0-.191.07c-.022.018-.036.036-.04.058-.012.043-.012.123-.012.189V8.44h9.638v3.006h-9.638v2.626h-.002c0 .032.009.064.021.094 0 .004 0 0 .005.011v.003l-.002-.003v.003h.002-.002l.018.012.009.007c.012.01.07.022.154.035.14.018.338.021.572.021h9.187v3.004H26.359v.001zm1.117-3.089l.01.008v-.003l-.01-.005zm-.002 0c-.003-.006-.005-.006 0-.002v.002zm17.76-9.743c.241-.44.521-.853 1.004-1.167.471-.31 1.105-.505 2.036-.505.81 0 1.41.137 1.898.417.496.285.844.704 1.143 1.259l5.319 9.82h1.572v3.007H38.319v-3.007h1.574l5.341-9.823v-.001zm38.588 9.825h5.695c.723 0 1.303-.053 1.786-.155.467-.097.842-.24 1.169-.426h.005c.513-.289.829-.624 1.018-1.037.147-.323.224-.704.258-1.152H83.88V8.477h9.834a3.652 3.652 0 0 0-.196-.718 2.45 2.45 0 0 0-.76-1.042l-.002.003a2.434 2.434 0 0 0-.251-.177 3.718 3.718 0 0 0-.3-.164v-.001c-.577-.275-1.366-.464-2.387-.464h-6.265V2.911h7.24c.554 0 1.406.023 2.338.217.948.2 1.97.568 2.832 1.268l.005.002c.904.742 1.398 1.677 1.666 2.672.262.957.304 1.96.304 2.899 0 1.364-.107 2.524-.431 3.507-.338 1.032-.906 1.858-1.829 2.507-.772.542-1.666.861-2.536 1.047-.857.178-1.685.23-2.35.23h-7.468v-3.007h.498zm16.482-11.342h3.566v6.184l.002-.002c.147-.318.409-.691.874-1.07V8.02l6.156-4.995.143-.113h5.418l-1.149.896-7.018 5.47a4.576 4.576 0 0 0-.561.499.754.754 0 0 0-.106.136c0 .058.088.164.209.291.179.184.42.368.633.527l7.691 5.624 1.237.906h-5.581l-.138-.104-6.689-5.131-.004-.003a4.46 4.46 0 0 1-.703-.661 2.89 2.89 0 0 1-.416-.638v6.537H99.8V2.911h.504zm22.415 14.349c-.808 0-1.764-.047-2.723-.275-.983-.235-1.967-.662-2.793-1.423-.849-.782-1.307-1.733-1.548-2.685v-.002c-.232-.924-.266-1.838-.266-2.601h.003c0-.991.054-1.997.29-2.936.242-.978.68-1.881 1.439-2.611.894-.855 2.015-1.311 3.074-1.553 1.034-.236 1.991-.265 2.594-.265h7.029v3.003h-5.591c-.875 0-1.679.024-2.355.178-.621.145-1.145.403-1.527.876l-.004.003c-.205.248-.397.592-.541 1.088-.152.53-.249 1.23-.249 2.178h-.002c0 .946.102 1.603.24 2.073.13.431.288.686.417.857.346.431.837.698 1.451.859.663.173 1.481.227 2.41.227h6.003v3.007h-7.351zm14.073-11.346h-.066c-.14-.003-.294-.003-.339.039l-.006.005a.606.606 0 0 0-.041.256h.001V17.26h-4.07V5.224c0-.288.024-.572.135-.865.115-.303.316-.592.66-.866a2.532 2.532 0 0 1 1.066-.506c.343-.071.681-.076 1.078-.076h9.619v.002c.355 0 .705.005 1.047.074.38.075.75.224 1.104.512.32.263.514.556.625.863a2.4 2.4 0 0 1 .139.862V17.26h-4.068V6.211l.002-.051c0-.081 0-.182-.005-.186l-.013-.016-.007-.007c-.057-.041-.228-.041-.354-.037h-6.507zm16.62 11.346c-.789 0-1.5 0-2.169-.529a1.952 1.952 0 0 1-.681-1.003c-.103-.334-.117-.662-.117-.955V5.314h.002c0-.33.068-.66.183-.958.024-.049.041-.1.067-.142v-.001c.116-.249.274-.473.469-.652l.006-.01c.343-.303.754-.465 1.18-.55a5.39 5.39 0 0 1 1.104-.09h10.933v3.003h-9.278c-.116 0-.24.002-.349.022a.484.484 0 0 0-.192.07.12.12 0 0 0-.039.058c-.012.047-.012.123-.012.189v2.189h9.638v3.002h-9.638v2.628a.22.22 0 0 0 .02.094c.003.004 0 0 .005.011.003 0 0 0 0 0l-.002.003.009.007.018.012c.012.01.07.022.158.035.138.018.339.021.569.021v.002h9.19v3.005h-11.074zm1.117-3.089l.011.008.002-.003a.045.045 0 0 1-.013-.005m-.002 0c-.001-.002-.001-.002 0 0m12.156 2.588V5.412c0-.606 0-1.264.745-1.872a2.688 2.688 0 0 1 1.112-.522 4.57 4.57 0 0 1 1.036-.106h7.736v.002c.926 0 2.403 0 3.539.907v-.005c.656.517 1.015 1.209 1.208 1.93.181.682.215 1.38.215 1.977 0 .574-.038 1.318-.252 2.054-.221.773-.636 1.515-1.387 2.022v.001l-.003.003h-.005a3.354 3.354 0 0 1-.32.184 3.276 3.276 0 0 1-.346.158 5.733 5.733 0 0 1-2.092.389v-.002h-7.117v4.729h-4.071v-.502zm22.792 0V5.914h-6.338V2.911h16.774v3.003h-6.362V17.26h-4.073v-.501zm-13.392-7.234c.584 0 1.267 0 1.657-.36.153-.149.246-.384.299-.632.06-.287.07-.599.07-.834 0-.267-.012-.577-.08-.855-.058-.234-.154-.452-.32-.595-.187-.15-.451-.232-.719-.28a5.172 5.172 0 0 0-.86-.056h-5.003c-.12-.003-.275-.003-.35.06a.027.027 0 0 0-.01.022c-.012.044-.012.132-.012.219v3.311h5.328zM44.155 14.253h8.212l-4.104-7.805-4.108 7.805z"/>
    <path fill="#e31e2d" d="M71.565 16.275h-3.27v-4.667h-4.667V8.34h4.667V3.671h3.27V8.34h4.664v3.268h-4.664v4.667zm-11.298-3.402l-.067-.138-.007-.018-.061-.147-.007-.02-.05-.15-.005-.016-.036-.153-.006-.017-.032-.156v-.018l-.023-.156-.003-.014-.012-.159v-.016l-.002-.149-.003-.007V8.39l.003-.005.002-.149v-.018l.012-.156.003-.015.023-.155V7.87l.032-.153.006-.019.036-.151.005-.018.05-.151.007-.018.059-.147.007-.018.067-.139.004-.012.07-.127.011-.016.072-.122.007-.012.08-.117.01-.014.085-.112.01-.011.092-.109.01-.012.097-.104.01-.01.102-.101.014-.01.105-.092.01-.008.105-.086.009-.007.11-.079.012-.009.112-.074.012-.007.116-.07.011-.006.119-.063.012-.008.122-.057.01-.005.126-.054.012-.006.135-.048.01-.003.132-.042.013-.006.123-.034.011-.003.126-.03.012-.005.13-.025h.012l.127-.02.015-.003.128-.015h.012l.132-.01h.015l.125-.002h2.071V3.24l.001-.121v-.016l.01-.131V2.96l.014-.132.002-.012.021-.13v-.009l.027-.13.001-.013.03-.126.002-.01.038-.127.002-.01.042-.131.003-.014.048-.131.006-.012.054-.127.005-.01.059-.125.008-.011.065-.121.007-.009.07-.117.008-.013.076-.114.011-.013.082-.111.007-.013.084-.102.008-.007.09-.104.012-.01.099-.102.01-.009.105-.097.012-.009.107-.091.013-.01.109-.085.014-.007.117-.08.011-.008.117-.072.013-.007.125-.07.017-.007.136-.067.018-.009.147-.056.018-.007.148-.05.017-.005.154-.039.016-.005.154-.03.018-.003.158-.022.017-.002.156-.013h.018L68.356 0h3.169l.147.006h.017l.156.013.017.002.156.022.018.003.154.03.017.005.151.039.017.005.151.047.016.007.146.059.018.006.138.066.016.009.126.069.012.008.123.074.009.006.117.079.013.01.113.085.012.01.109.091.012.009.105.097.009.009.1.102.01.012.095.107.009.011.084.106.008.013.083.111.007.01.074.111.01.012.067.116.007.013.062.117.006.015.06.124.004.009.053.125.005.012.047.124.004.012.042.127.004.011.036.129.002.013.034.128.002.013.028.13v.015l.019.129v.01l.016.132.001.013.007.132v.012l.004.121.002.005V5.29h2.039l.121.002h.012l.13.008.012.002.132.015h.014l.128.02.013.004.126.023.012.004.13.03.012.005.127.033.012.003.131.044.014.006.126.047.009.005.12.049.013.009.114.054.012.005.115.062.012.005.112.067.009.008.109.069.012.008.104.076.011.01.091.07.003.003.043.032.002.003.012.007.009.01.008.005.019.018.01.01.013.011.007.007.094.087.01.008.094.097.01.011.09.101.009.009.084.102.009.012.078.107.009.01.074.112.007.013.069.11.007.011.068.125.008.014.067.14.004.018.061.144.004.018.051.149.005.016.039.153.005.018.032.155v.017l.022.155.003.017.013.159v.012l.005.149v3.166l-.005.15v.015l-.013.156-.003.014-.022.16v.016l-.032.156-.005.016-.039.153-.003.017-.05.15-.007.017-.058.145-.007.018-.067.138-.008.019-.07.129-.005.009-.074.123-.007.009-.08.117-.008.012-.085.115-.009.012-.093.11-.009.009-.095.105-.012.012-.102.098-.011.007-.107.099-.012.011-.11.086-.01.007-.109.078-.012.01-.111.072-.013.007-.117.071-.009.007-.122.062-.013.008-.121.059-.012.003-.125.052-.01.006-.124.047-.014.004-.126.043-.01.002-.129.037-.012.003-.128.03-.012.005-.13.024-.012.002-.132.02h-.009l-.132.015-.012.002-.131.007h-.011l-.121.003h-2.047v2.144l-.009.093v.009l-.009.099v.009l-.012.098-.003.009-.012.102-.003.008-.019.097-.002.007-.019.097-.002.01-.023.087v.003l-.005.017v.002l-.005.017v.004l-.007.026-.006.027v.003l-.011.03v.001l-.012.037v.008l-.011.031-.01.035-.002.005-.01.031-.012.032-.004.013-.047.127-.005.012-.053.127-.008.013-.06.124-.005.011-.065.119-.007.014-.072.119-.005.009-.074.112-.009.013-.081.109-.007.009-.09.109-.009.012-.097.107-.007.007-.097.099-.012.014-.102.091-.01.01-.107.088-.013.011-.112.084-.012.007-.114.08-.012.007-.12.071-.01.006-.126.071-.018.011-.138.066-.018.007-.146.06-.017.007-.152.049-.016.003-.152.042-.019.006-.153.028-.018.003-.154.02-.014.004-.159.012h-.014l-.153.005h-3.167l-.151-.005h-.016l-.156-.012-.017-.004-.154-.02-.017-.003-.153-.028-.019-.006-.153-.039-.017-.005-.149-.049-.017-.007-.147-.06-.016-.007-.14-.064-.014-.008-.13-.071-.012-.007-.122-.074-.013-.007-.116-.08-.012-.009-.114-.084-.013-.012-.109-.091-.012-.011-.105-.093-.009-.014-.1-.101-.011-.012-.091-.105-.011-.012-.084-.107-.007-.007-.08-.111-.007-.013-.074-.11-.007-.014-.068-.113-.007-.014-.064-.119-.004-.009-.059-.122-.005-.015-.054-.124-.006-.012-.048-.13-.003-.015-.042-.132-.005-.009-.036-.126-.002-.013-.032-.128V17.4l-.027-.13v-.009l-.021-.129-.002-.013-.014-.132v-.012l-.01-.132v-.013l-.001-.122v-2.071h-2.074l-.122-.003h-.013l-.128-.007-.015-.002-.131-.015h-.007l-.133-.02-.014-.002-.13-.024-.012-.005-.128-.03-.011-.003-.13-.037-.012-.002-.127-.043-.01-.004-.128-.047-.013-.006-.127-.055-.009-.005-.125-.059-.012-.005-.121-.065-.014-.007-.115-.073-.012-.005-.112-.077-.013-.007-.108-.08-.011-.01-.109-.087-.012-.009-.105-.095-.01-.01-.099-.097-.01-.011-.095-.103-.009-.012-.09-.107-.01-.011-.085-.112-.007-.011-.078-.115-.009-.012-.072-.122-.007-.01-.07-.126-.009-.016zM61.379 8.4v3.137c0 .132.015.256.042.376l.014.055h.002c.024.094.057.18.097.258v.002l.003.005.049.085c.012.023.03.048.053.082.091.139.197.26.322.365.08.073.175.137.275.193.099.058.201.105.31.143h.002c.112.036.225.066.334.086.107.017.218.028.328.028h3.481v3.479h-.002c0 .105.013.217.032.328a1.946 1.946 0 0 0 .226.65c.057.096.123.188.194.276l.002.003c.014.02.036.042.06.068v.002l.066.065c.115.112.251.206.4.282h.002c.031.016.057.028.09.043.021.011.052.021.087.033.159.054.332.083.524.083h3.134c.13 0 .254-.013.371-.041h.005l.054-.015c.095-.027.181-.06.259-.099h.002l.005-.004.084-.045v-.002l.081-.05h.003a1.811 1.811 0 0 0 .699-.909v-.003c.012-.035.022-.061.027-.087.01-.037.021-.067.026-.087v-.005l.002-.006.002-.009.02-.077.012-.068c.023-.117.032-.235.032-.354v-3.45h3.463c.104 0 .213-.011.325-.028l.056-.012c.087-.017.181-.042.272-.074l.002-.002h.003l.091-.035c.033-.012.064-.029.087-.041.149-.067.286-.155.409-.256.084-.072.164-.151.234-.238a2.04 2.04 0 0 0 .186-.293v-.002c.017-.034.03-.062.04-.088h.003l.032-.089c.055-.159.082-.332.082-.521v-3.14c0-.129-.012-.256-.04-.373-.005-.02-.011-.037-.014-.053v-.003a1.346 1.346 0 0 0-.102-.264c-.008-.012-.022-.041-.047-.081v-.004l-.047-.078a1.631 1.631 0 0 0-.301-.344l-.009-.01-.005-.003-.01-.009-.007-.008-.005-.003-.023-.017-.016-.016-.004-.001-.059-.045-.075-.052a1.87 1.87 0 0 0-.414-.209l-.005-.003-.092-.028c-.029-.009-.062-.016-.093-.026a2.05 2.05 0 0 0-.472-.056h-3.436l-.004-.29-.008-.475-.002-.005V3.25h.002c0-.104-.009-.213-.03-.324l-.009-.057v-.004a2.126 2.126 0 0 0-.077-.27l-.002-.002V2.59l-.035-.088a1.876 1.876 0 0 0-.293-.499 1.782 1.782 0 0 0-.238-.23 1.841 1.841 0 0 0-.293-.186l-.003-.004h-.002c-.034-.014-.062-.03-.088-.038a.972.972 0 0 0-.088-.036h-.002a1.612 1.612 0 0 0-.521-.082h-3.137c-.13 0-.253.015-.37.042h-.004l-.05.012h-.005a1.207 1.207 0 0 0-.266.105v-.005a1.74 1.74 0 0 0-.528.423l-.002.002a1.843 1.843 0 0 0-.334.588 2.25 2.25 0 0 0-.087.334c-.019.108-.03.217-.03.327h-.002v3.451l-.287.002-.286.005v.007h-2.907a1.982 1.982 0 0 0-.662.116 1.883 1.883 0 0 0-.592.335h-.003a1.976 1.976 0 0 1-.068.061c-.024.024-.043.044-.066.065a1.824 1.824 0 0 0-.282.401v.003a.741.741 0 0 0-.04.086.726.726 0 0 0-.036.09 1.62 1.62 0 0 0-.083.523"/>
</svg>