<svg xmlns="http://www.w3.org/2000/svg" viewBox="0 0 14 17">
    <path fill="#888887" d="M11.95 2.071C10.627.733 8.87-.003 7-.003S3.372.733 2.05 2.071A7.077 7.077 0 0 0 0 7.077c0 1.251.36 2.553 1.07 3.869.552 1.025 1.318 2.062 2.276 3.085a21.247 21.247 0 0 0 3.277 2.851.671.671 0 0 0 .754 0c.067-.046 1.663-1.128 3.277-2.851.958-1.023 1.724-2.06 2.276-3.085C13.639 9.63 14 8.328 14 7.077c0-1.89-.728-3.668-2.05-5.006zM7 15.467c-1.319-.988-5.642-4.521-5.642-8.391C1.358 3.93 3.889 1.372 7 1.372s5.642 2.559 5.642 5.705c0 3.869-4.324 7.403-5.642 8.39zM7 4.259c-1.536 0-2.786 1.265-2.786 2.818 0 1.554 1.25 2.819 2.786 2.819s2.786-1.265 2.786-2.819c0-1.553-1.25-2.818-2.786-2.818zm0 4.263c-.787 0-1.428-.649-1.428-1.445S6.213 5.633 7 5.633c.787 0 1.428.648 1.428 1.444 0 .796-.641 1.445-1.428 1.445z"/>
</svg>