<svg xmlns="http://www.w3.org/2000/svg" xmlns:xlink="http://www.w3.org/1999/xlink" version="1.1" id="_x31_" x="0px" y="0px" viewBox="0 0 26 26" style="enable-background:new 0 0 26 26;" xml:space="preserve">
<style type="text/css">
	.st0{fill-rule:evenodd;clip-rule:evenodd;fill:#E3001F;}
</style>
    <path class="st0" d="M10.914,4.786h4.261v6.084h6.083v4.26h-6.083v6.083h-4.261V15.13H4.831v-4.26h6.083V4.786L10.914,4.786z   M25.638,9.22L25.629,9.2l-0.091-0.165L25.529,9.02l-0.096-0.156l-0.01-0.017l-0.103-0.15l-0.01-0.015L25.2,8.536l-0.012-0.014  l-0.116-0.139L25.06,8.369l-0.124-0.135l-0.013-0.013l-0.13-0.128l-0.012-0.012l-0.137-0.123l-0.016-0.014l-0.141-0.114L24.473,7.82  L24.33,7.715l-0.015-0.01l-0.147-0.098l-0.013-0.009l-0.153-0.092l-0.017-0.009l-0.157-0.085l-0.017-0.007l-0.162-0.078  l-0.015-0.007l-0.165-0.07l-0.016-0.007L23.286,7.18l-0.015-0.006L23.106,7.12l-0.015-0.005l-0.168-0.047l-0.015-0.003l-0.168-0.04  L22.726,7.02l-0.17-0.033l-0.017-0.004l-0.17-0.025l-0.014-0.001l-0.17-0.019l-0.018-0.001l-0.17-0.01H21.98l-0.158-0.004  L21.815,6.92h-2.692v-2.69l-0.001-0.007l-0.004-0.16V4.046l-0.012-0.172l-0.001-0.016l-0.019-0.17L19.083,3.67l-0.026-0.168  l-0.003-0.015l-0.033-0.167l-0.003-0.015l-0.04-0.166l-0.004-0.014l-0.046-0.164l-0.005-0.015l-0.055-0.17l-0.006-0.018L18.8,2.588  l-0.006-0.015l-0.07-0.164l-0.007-0.016L18.64,2.234l-0.008-0.015l-0.083-0.155L18.54,2.051l-0.09-0.151l-0.009-0.015l-0.097-0.148  l-0.009-0.015l-0.103-0.141l-0.011-0.012l-0.11-0.139l-0.012-0.015l-0.12-0.137l-0.014-0.015l-0.129-0.132l-0.014-0.014L17.687,0.99  l-0.015-0.013L17.53,0.857l-0.016-0.012l-0.148-0.111l-0.015-0.012l-0.153-0.103L17.183,0.61l-0.158-0.096l-0.016-0.009L16.84,0.413  l-0.02-0.01l-0.181-0.086l-0.023-0.009l-0.19-0.076l-0.023-0.009L16.209,0.16l-0.022-0.006l-0.2-0.052l-0.024-0.006l-0.201-0.039  L15.74,0.054l-0.202-0.027l-0.021-0.003l-0.205-0.016h-0.021l-0.194-0.005L15.089,0h-4.111l-0.009,0.002l-0.194,0.005h-0.021  l-0.206,0.016l-0.021,0.003l-0.202,0.027l-0.021,0.003l-0.202,0.039l-0.024,0.006L9.878,0.154L9.856,0.16L9.66,0.224L9.636,0.233  L9.447,0.31L9.424,0.318L9.241,0.405L9.22,0.417L9.054,0.51L9.04,0.517L8.885,0.613l-0.016,0.01L8.72,0.725l-0.014,0.01L8.56,0.845  L8.544,0.857l-0.14,0.117L8.392,0.987L8.258,1.109L8.243,1.122L8.116,1.251L8.106,1.263L7.982,1.401L7.967,1.417L7.852,1.56  L7.841,1.573L7.737,1.715L7.727,1.73L7.628,1.878L7.62,1.891L7.527,2.044L7.518,2.061L7.433,2.218L7.426,2.234L7.348,2.394  L7.341,2.412l-0.07,0.165L7.264,2.592L7.202,2.758L7.197,2.773L7.182,2.817h0l-0.013,0.04L7.166,2.866L7.152,2.907l0.001,0  L7.14,2.949L7.138,2.958L7.123,3.006L7.122,3.01l-0.011,0.04L7.109,3.052L7.099,3.088l0,0L7.091,3.121L7.09,3.127L7.084,3.145  L7.083,3.15L7.078,3.171v0.003L7.049,3.289L7.047,3.3L7.019,3.426L7.018,3.438L6.995,3.565l-0.003,0.01l-0.02,0.129L6.971,3.717  L6.956,3.847l-0.002,0.01L6.943,3.986v0.014L6.936,4.131v0.014L6.934,4.267v0.006V6.92H4.274L4.266,6.922L4.108,6.926H4.093  l-0.169,0.01L3.905,6.938l-0.17,0.019L3.722,6.958l-0.17,0.025L3.534,6.987L3.365,7.02L3.35,7.025l-0.168,0.04L3.165,7.068  L2.998,7.115L2.984,7.12L2.818,7.175L2.801,7.181L2.638,7.242L2.624,7.249L2.464,7.316L2.449,7.322l-0.16,0.076L2.271,7.406  L2.115,7.489L2.1,7.498l-0.152,0.09L1.934,7.597L1.787,7.694L1.77,7.704L1.628,7.807L1.616,7.816L1.474,7.927L1.458,7.942  l-0.14,0.124L1.304,8.078L1.172,8.207L1.158,8.222L1.033,8.357L1.021,8.372l-0.12,0.143L0.888,8.531L0.777,8.68l-0.01,0.014  L0.664,8.846L0.653,8.862L0.559,9.018L0.551,9.032L0.459,9.2l-0.01,0.023L0.363,9.405L0.354,9.425L0.279,9.613L0.27,9.637  L0.207,9.831L0.2,9.852l-0.052,0.198l-0.006,0.024l-0.041,0.202l-0.003,0.023l-0.028,0.204l-0.003,0.021l-0.016,0.204v0.019  L0.046,10.94l-0.001,0.011v4.116l0.001,0.011l0.006,0.193v0.02l0.016,0.204l0.003,0.023l0.028,0.205l0.003,0.023l0.041,0.202  l0.006,0.023l0.053,0.197l0.005,0.022l0.064,0.193l0.009,0.023l0.076,0.189l0.009,0.021l0.086,0.181l0.011,0.021l0.088,0.159  l0.009,0.014l0.089,0.148l0.009,0.015l0.097,0.145l0.01,0.015l0.104,0.14l0.01,0.014l0.11,0.134l0.012,0.014l0.116,0.129  l0.014,0.015l0.123,0.125l0.012,0.012l0.123,0.113l0.01,0.009l0.016,0.014l0.014,0.014l0.024,0.021l0.002,0.001l0.007,0.007  l0.015,0.012l0.012,0.01l0.001,0l0.003,0.002l0.056,0.044l0.003,0.003l0.119,0.094l0.012,0.011l0.138,0.099l0.016,0.009l0.142,0.093  l0.014,0.009l0.145,0.085l0.015,0.008l0.149,0.08l0.015,0.007l0.152,0.073l0.013,0.007l0.155,0.067l0.016,0.006l0.162,0.062  l0.018,0.006l0.171,0.056l0.015,0.005l0.168,0.047l0.016,0.005l0.167,0.039l0.015,0.003l0.167,0.032l0.015,0.003l0.17,0.026  l0.017,0.001l0.171,0.019l0.017,0.001l0.171,0.01h0.016l0.158,0.004l0.007,0.001h2.65v2.658l0.001,0.007l0.004,0.158v0.017  l0.01,0.169L6.96,22.14l0.019,0.17l0.001,0.013l0.025,0.17l0.003,0.018l0.033,0.17l0.005,0.015l0.04,0.168L7.09,22.88l0.048,0.168  l0.005,0.014l0.054,0.165l0.006,0.015l0.061,0.163L7.27,23.42l0.068,0.162l0.006,0.015l0.077,0.161l0.009,0.017l0.083,0.155  l0.007,0.015l0.09,0.152l0.009,0.015l0.097,0.148l0.011,0.013l0.103,0.144l0.011,0.015l0.11,0.139l0.012,0.014l0.123,0.14  l0.013,0.015l0.13,0.132l0.015,0.014l0.136,0.125l0.015,0.014l0.142,0.119l0.015,0.012L8.7,25.267l0.016,0.012l0.153,0.103  l0.015,0.009l0.158,0.096l0.015,0.009l0.167,0.09l0.02,0.01l0.18,0.086l0.023,0.009l0.19,0.076l0.021,0.009l0.195,0.065l0.024,0.006  l0.198,0.052l0.022,0.006l0.201,0.04l0.023,0.003l0.204,0.028l0.021,0.003l0.206,0.016h0.021l0.192,0.005L10.974,26h4.114  l0.009-0.001l0.194-0.005h0.021l0.206-0.016l0.023-0.003l0.205-0.028l0.023-0.002l0.201-0.041l0.021-0.006l0.198-0.052l0.024-0.007  l0.194-0.065l0.023-0.008l0.191-0.077l0.022-0.011l0.18-0.087l0.02-0.009l0.164-0.09l0.015-0.009l0.155-0.095l0.015-0.009  l0.152-0.103l0.016-0.011l0.145-0.111l0.014-0.011l0.141-0.117l0.015-0.015l0.135-0.125l0.013-0.013l0.129-0.132l0.016-0.015  l0.117-0.134l0.009-0.01l0.11-0.134l0.01-0.015l0.108-0.145l0.01-0.015l0.101-0.151l0.011-0.016l0.092-0.153l0.008-0.014  l0.085-0.156l0.009-0.018l0.078-0.161l0.008-0.013l0.07-0.163l0.006-0.017l0.064-0.171l0.006-0.018l0.055-0.169l0.005-0.015  l0.046-0.164l0.003-0.014l0.039-0.165l0.005-0.015l0.033-0.167l0.001-0.015l0.026-0.167l0.003-0.017l0.019-0.171l0.001-0.016  l0.012-0.172v-0.018l0.004-0.16l0.001-0.007V19.1h2.692l0.007-0.002l0.16-0.003H22l0.171-0.012l0.016-0.002l0.171-0.019l0.016-0.003  l0.168-0.026l0.015-0.001L22.725,19l0.015-0.005l0.166-0.04l0.013-0.003l0.164-0.046l0.015-0.005l0.169-0.054l0.017-0.006  l0.172-0.065l0.018-0.006l0.163-0.07l0.014-0.007l0.159-0.077l0.017-0.007l0.155-0.084l0.014-0.008l0.151-0.089l0.017-0.011  l0.148-0.097l0.013-0.009l0.143-0.103l0.014-0.01l0.137-0.11l0.012-0.011l0.137-0.119l0.017-0.015l0.134-0.13l0.014-0.014  l0.126-0.136l0.014-0.017l0.118-0.142l0.012-0.014l0.111-0.146l0.012-0.017l0.104-0.154l0.009-0.017L25.533,17l0.01-0.016  l0.09-0.167l0.009-0.016l0.085-0.179l0.009-0.024l0.076-0.191l0.009-0.022l0.064-0.196l0.006-0.024l0.051-0.197l0.006-0.021  l0.04-0.202l0.003-0.024l0.028-0.205l0.003-0.019l0.017-0.205v-0.021l0.005-0.194l0.001-0.009v-4.109l-0.001-0.009l-0.005-0.194  v-0.021l-0.017-0.206l-0.003-0.019l-0.028-0.204l-0.003-0.024l-0.04-0.203l-0.006-0.022l-0.051-0.197l-0.006-0.022l-0.065-0.196  l-0.009-0.024l-0.077-0.191L25.725,9.4L25.638,9.22L25.638,9.22z M24.186,15.052v-4.082v-0.007h0.001  c0-0.169-0.018-0.332-0.053-0.487l-0.018-0.072h-0.001c-0.033-0.123-0.077-0.236-0.129-0.336l-0.001-0.002l0-0.001l-0.002-0.006  c-0.019-0.035-0.04-0.073-0.063-0.112l0,0c-0.017-0.03-0.04-0.065-0.068-0.107V9.839c-0.119-0.179-0.259-0.337-0.42-0.474l0-0.001  c-0.109-0.093-0.229-0.176-0.36-0.251l0,0c-0.129-0.074-0.263-0.135-0.404-0.184h-0.003c-0.146-0.051-0.291-0.089-0.433-0.114  c-0.141-0.024-0.284-0.036-0.429-0.036h-4.154h-0.385V8.395V4.242h0.001c0-0.137-0.013-0.28-0.039-0.427  C17.2,3.669,17.162,3.523,17.114,3.38l0,0C17.062,3.234,17,3.099,16.929,2.972c-0.072-0.127-0.156-0.248-0.252-0.364l-0.001-0.004  c-0.02-0.025-0.046-0.053-0.078-0.088l-0.001-0.001c-0.028-0.03-0.056-0.059-0.084-0.085c-0.152-0.144-0.327-0.268-0.522-0.368  l-0.003-0.002l0,0l0,0c-0.038-0.018-0.076-0.037-0.115-0.053l0-0.001c-0.03-0.012-0.068-0.027-0.115-0.043  c-0.206-0.07-0.433-0.106-0.681-0.106h-4.083h-0.006V1.857c-0.167,0-0.329,0.018-0.481,0.052L10.501,1.91l-0.002,0l-0.073,0.018  l0,0.001c-0.123,0.034-0.236,0.077-0.337,0.128l0,0.001l-0.003,0.001l-0.006,0.002c-0.035,0.019-0.073,0.04-0.112,0.063l0.001,0.001  c-0.03,0.017-0.065,0.04-0.107,0.068H9.862c-0.179,0.118-0.337,0.259-0.475,0.42L9.386,2.613c-0.092,0.109-0.176,0.23-0.251,0.361  l-0.001,0C9.061,3.102,9.001,3.237,8.952,3.377v0.001C8.936,3.424,8.923,3.461,8.914,3.49l0.001,0  C8.901,3.54,8.89,3.579,8.883,3.604l0.001,0L8.882,3.613L8.881,3.618L8.876,3.633l-0.024,0.1l0,0L8.835,3.818v0.001  C8.806,3.971,8.791,4.126,8.791,4.282v4.113v0.383H8.407H4.287v0.001H4.28V8.778c-0.137,0-0.278,0.013-0.425,0.038v0L3.781,8.83  l0-0.001c-0.115,0.023-0.233,0.058-0.354,0.1L3.423,8.931H3.421c-0.031,0.011-0.07,0.026-0.118,0.045  C3.26,8.994,3.221,9.01,3.187,9.027c-0.194,0.09-0.372,0.201-0.532,0.334C2.543,9.454,2.442,9.558,2.352,9.672  c-0.09,0.113-0.171,0.241-0.243,0.382l-0.001,0.001l-0.001,0.001l0.001,0c-0.021,0.043-0.04,0.08-0.053,0.113L2.053,10.17  c-0.012,0.031-0.027,0.069-0.043,0.116v0.002c-0.071,0.206-0.107,0.434-0.107,0.679v4.085v0.006H1.902  c0,0.169,0.019,0.331,0.055,0.486c0.005,0.024,0.012,0.047,0.018,0.069v0.003c0.033,0.119,0.078,0.234,0.134,0.345l0,0l0,0.001  c0.008,0.016,0.03,0.053,0.061,0.107l-0.001,0c0.021,0.036,0.043,0.071,0.063,0.102h0.001c0.112,0.17,0.241,0.32,0.388,0.45v0  l0.014,0.012l0.001,0.001l0.003,0.003l0.015,0.013l0.011,0.009l0.005,0.004l0.029,0.024l0.022,0.018l0.004,0.004l0.076,0.059  c0.018,0.013,0.052,0.036,0.097,0.067v0.001c0.168,0.112,0.349,0.202,0.54,0.271l0.001-0.001l0.007,0.003l0,0  c0.052,0.017,0.094,0.031,0.121,0.039c0.039,0.011,0.08,0.022,0.122,0.033h0.002c0.203,0.05,0.408,0.075,0.614,0.075h4.102h0.377  l0.006,0.378l0.01,0.617l0.001,0.007v3.502v0.007H8.8c0,0.136,0.013,0.278,0.039,0.423H8.838l0.015,0.076l0,0  c0.023,0.115,0.058,0.233,0.1,0.354l0.002,0.004v0.002c0.011,0.032,0.026,0.071,0.045,0.118c0.017,0.043,0.034,0.082,0.05,0.116  c0.09,0.194,0.202,0.372,0.335,0.532c0.093,0.112,0.197,0.213,0.311,0.303c0.116,0.091,0.243,0.173,0.381,0.243l0.003,0.001  l0.001,0.001l0-0.001c0.042,0.021,0.08,0.039,0.113,0.054c0.03,0.012,0.068,0.027,0.115,0.044h0.002  c0.206,0.07,0.434,0.107,0.679,0.107h4.085h0.006v0.001c0.168,0,0.33-0.019,0.484-0.054h0.001c0.023-0.005,0.047-0.012,0.069-0.018  h0.003c0.119-0.033,0.234-0.078,0.345-0.135v0c0.136-0.071,0.262-0.152,0.378-0.244c0.112-0.088,0.216-0.19,0.312-0.304l0.003-0.003  c0.097-0.112,0.181-0.232,0.253-0.359c0.072-0.127,0.134-0.262,0.185-0.406c0.049-0.145,0.088-0.291,0.113-0.436  c0.025-0.142,0.038-0.284,0.038-0.427h0.001v-4.119v-0.377l0.377-0.006l0.373-0.006v-0.008h0.384h3.404  c0.143,0,0.285-0.012,0.427-0.038c0.146-0.025,0.291-0.064,0.435-0.112l0,0c0.145-0.051,0.282-0.114,0.408-0.185  c0.127-0.072,0.247-0.156,0.364-0.252l0.003-0.001c0.024-0.02,0.054-0.046,0.088-0.078l0.001-0.001  c0.029-0.028,0.059-0.056,0.085-0.084c0.145-0.152,0.268-0.327,0.368-0.523l0.001-0.003l0,0l0,0  c0.019-0.038,0.037-0.076,0.053-0.115c0.013-0.03,0.028-0.069,0.044-0.115C24.151,15.527,24.186,15.3,24.186,15.052z"/>
</svg>