<svg xmlns="http://www.w3.org/2000/svg" version="1.1" style="shape-rendering:geometricPrecision; text-rendering:geometricPrecision; image-rendering:optimizeQuality; fill-rule:evenodd; clip-rule:evenodd" viewBox="0 0 27 28">
    <defs>
        <style type="text/css">
            <![CDATA[
    .fil1 {fill:#888887}
    .fil0 {fill:#888887}
   ]]>
        </style>
    </defs>
    <path class="fil0" d="M2.64 6.11l3.67 -3.67 0 1.87c0,0.89 0.18,1.84 -0.9,1.83l-2.76 -0.03zm-2.64 0.97l0 17.59c0.06,0.85 0.78,1.55 1.72,1.65l17.87 0c1.23,-0.02 1.65,-0.44 1.65,-1.63 0,-1.28 0.02,-4.01 0.03,-5.55 0.06,-1.13 -0.05,-1.56 -0.33,-1.73 -0.49,-0.28 -1.07,0.09 -1.09,0.67 -0.04,0.98 -0.1,5.25 -0.1,5.91 -0.01,1.07 -0.65,0.83 -2.22,0.83 -5.06,0 -10.14,0.1 -15.18,0 -0.56,-0.01 -0.8,-0.1 -0.86,-0.68l0 -16.47c1.26,-0.03 2.26,0.03 3.21,0.03 2.85,0 3.17,-0.77 3.11,-3.15 0,-1.05 0,-2.37 0,-3.14l10.11 0c1.63,0 1.82,-0.02 1.84,1.42 0,0.59 -0.08,2.24 0.05,2.6 0.14,0.4 0.59,0.58 0.93,0.46 0.48,-0.17 0.54,-0.44 0.55,-1.08 0,-1.11 0.03,-1.58 -0,-2.68 -0.04,-1.67 -0.87,-2.1 -2.27,-2.1l-10.7 0c-0.84,0 -1.47,-0.06 -2.15,0.6 -1.69,1.63 -3.02,2.89 -4.7,4.53 -0.87,0.89 -1.31,1.37 -1.46,1.96z"/>
    <path class="fil1" d="M10.24 21.5c0.13,-0.65 0.19,-2.44 0.57,-2.83 1.32,-1.4 3.62,-3.63 5.04,-5.04l5.03 -5.04c0.22,-0.23 0.87,-0.92 1.39,-1.37 0.35,-0.3 0.57,-0.06 0.88,0.22 0.55,0.51 1.42,1.36 1.49,1.48 0.16,0.24 0.05,0.37 -0.1,0.57 -0.14,0.18 -0.48,0.5 -0.69,0.69l-10.57 10.57c-0.42,0.43 -0.36,0.36 -1.3,0.5 -0.56,0.08 -1.16,0.2 -1.73,0.26zm15.6 -13.49l-1.09 -1.1c-0.49,-0.56 -1.11,-1.23 -1.87,-1.37 -1.17,-0.22 -1.98,0.88 -2.69,1.58 -0.38,0.38 -0.73,0.7 -1.09,1.1l-8.79 8.78c-0.23,0.23 -0.93,0.86 -1.06,1.13l-0.6 3.68c-0.31,2.03 1.08,1.27 4.23,0.8 0.95,-0.14 0.88,-0.28 1.39,-0.79l3.6 -3.58c0.11,-0.11 0.17,-0.16 0.28,-0.27 1.9,-1.91 4.2,-4.11 6,-6.03l1.65 -1.63c0.52,-0.67 0.81,-1.43 0.03,-2.3z"/>
    <path class="fil0" d="M10.52 5.66l6.7 0c0.44,0 0.81,0.36 0.81,0.81l0 0c0,0.44 -0.37,0.81 -0.81,0.81l-6.7 0c-0.44,0 -0.81,-0.36 -0.81,-0.81l0 0c0,-0.44 0.36,-0.81 0.81,-0.81z"/>
    <path class="fil0" d="M5.09 19.11l2.34 0c0.44,0 0.81,0.36 0.81,0.81l0 0c0,0.44 -0.37,0.81 -0.81,0.81l-2.34 0c-0.44,0 -0.81,-0.36 -0.81,-0.81l0 0c0,-0.44 0.36,-0.81 0.81,-0.81z"/>
    <path class="fil0" d="M5.09 14.38l4.54 0c0.44,0 0.81,0.36 0.81,0.81l0 0c0,0.44 -0.37,0.81 -0.81,0.81l-4.54 0c-0.44,0 -0.81,-0.36 -0.81,-0.81l0 0c0,-0.44 0.36,-0.81 0.81,-0.81z"/>
    <path class="fil0" d="M5.09 10.06l8.83 0c0.44,0 0.81,0.36 0.81,0.81l0 0c0,0.44 -0.37,0.81 -0.81,0.81l-8.83 0c-0.44,0 -0.81,-0.36 -0.81,-0.81l0 0c0,-0.44 0.36,-0.81 0.81,-0.81z"/>
</svg>