<svg xmlns="http://www.w3.org/2000/svg" xmlns:xlink="http://www.w3.org/1999/xlink" xmlns:xodm="http://www.corel.com/coreldraw/odm/2003" xml:space="preserve" width="2.032mm" height="2.032mm" version="1.1" style="shape-rendering:geometricPrecision; text-rendering:geometricPrecision; image-rendering:optimizeQuality; fill-rule:evenodd; clip-rule:evenodd" viewBox="0 0 37.34 37.34">
 <defs>
  <style type="text/css">
   <![CDATA[
    .fil0 {fill:none}
    .fil1 {fill:#888887}
   ]]>
  </style>
 </defs>
    <g id="Слой_x0020_1">
  <metadata id="CorelCorpID_0Corel-Layer"/>
        <g id="_2863568133824">
   <rect class="fil0" x="-0" y="-0" width="37.34" height="37.34"/>
            <path class="fil1" d="M17.41 32.94c0.12,0.08 0.28,0.12 0.44,0.12 0.38,0 0.5,-0.13 0.67,-0.32l0.29 -0.3c0.19,-0.18 0.44,-0.42 0.51,-0.54 0.09,-0.15 0.13,-0.3 0.13,-0.45 0,-0.15 -0.04,-0.3 -0.11,-0.42 -0.07,-0.13 -0.18,-0.24 -0.31,-0.32 -0.12,-0.08 -0.28,-0.12 -0.44,-0.12 -0.17,0 -0.4,0.13 -0.62,0.3 -0.41,0.31 -0.78,0.76 -0.84,0.85 -0.09,0.15 -0.13,0.31 -0.13,0.46 0,0.15 0.04,0.3 0.11,0.42 0.07,0.13 0.17,0.24 0.3,0.31zm19.06 -21.32l-3.82 3.86c0.09,0.24 0.19,0.63 0.27,1.04 0.09,0.46 0.15,0.94 0.15,1.26 0,0.67 -0.11,1.33 -0.3,1.95 -0.21,0.67 -0.51,1.3 -0.88,1.86 -0.21,0.33 -0.69,0.9 -1.17,1.42 -0.43,0.47 -0.86,0.9 -1.12,1.1l0.07 1.04c0,0.55 -0.29,1.13 -0.71,1.57 -0.37,0.38 -0.84,0.68 -1.3,0.75 0.08,0.34 0.03,0.76 -0.11,1.17 -0.18,0.51 -0.51,1.02 -0.88,1.32 -0.18,0.15 -0.36,0.27 -0.56,0.35 -0.2,0.09 -0.43,0.15 -0.7,0.2 -0.55,0.1 -0.78,0.03 -1.13,-0.07l-0.18 -0.04c-0.05,0.2 -0.16,0.4 -0.29,0.58 -0.22,0.31 -0.52,0.58 -0.74,0.74 -0.22,0.16 -0.65,0.36 -1.09,0.44 -0.27,0.05 -0.55,0.05 -0.8,-0.02l-0.09 0.26c-0.08,0.23 -0.15,0.42 -0.37,0.71 -0.15,0.19 -0.35,0.39 -0.54,0.57l-0.36 0.36c-0.22,0.23 -0.43,0.45 -0.72,0.6 -0.48,0.25 -1.02,0.35 -1.54,0.3 -0.51,-0.05 -1,-0.26 -1.39,-0.6 -0.53,-0.49 -0.6,-0.65 -0.76,-1.03l-0.09 -0.2 -0.09 0.02c-0.19,0.05 -0.37,0.1 -0.64,0.1 -0.7,0 -1.34,-0.28 -1.81,-0.69 -0.45,-0.39 -0.76,-0.91 -0.83,-1.44 -0.16,0.04 -0.33,0.04 -0.5,0.02 -0.22,-0.03 -0.44,-0.09 -0.6,-0.15 -0.64,-0.2 -1.19,-0.66 -1.53,-1.25 -0.28,-0.51 -0.41,-1.13 -0.3,-1.78 -0.33,-0.05 -0.64,-0.2 -0.9,-0.41 -0.38,-0.3 -0.69,-0.72 -0.86,-1.07 -0.24,-0.5 -0.31,-0.97 -0.25,-1.41 0.05,-0.4 0.2,-0.79 0.38,-1.16 -0.16,-0.21 -0.39,-0.44 -0.65,-0.69 -0.45,-0.43 -0.99,-0.95 -1.45,-1.71 -0.5,-0.81 -0.89,-1.94 -1,-3.07 -0.09,-0.95 -0,-1.93 0.36,-2.77 -0.46,-0.41 -2.08,-2.08 -3.21,-3.25l-1.04 -1.06c-0.3,-0.33 -0.46,-0.82 -0.43,-1.33 0.03,-0.45 0.22,-0.92 0.61,-1.31l4.53 -4.62c0.83,-0.85 1.49,-1.26 2.09,-1.33 0.61,-0.07 1.14,0.22 1.7,0.79l0.84 0.85c0.96,0.97 2.35,2.37 2.74,2.82 0.84,-0.43 1.74,-0.67 2.64,-0.71 0.96,-0.04 1.93,0.13 2.86,0.51 0.63,0.26 0.64,0.26 0.85,0.13 0.16,-0.1 0.42,-0.25 0.93,-0.43 0.2,-0.07 0.52,-0.16 0.84,-0.22 0.24,-0.05 0.49,-0.08 0.7,-0.08 1.93,0 2.26,0.16 2.69,0.37 0.19,0.09 0.4,0.19 0.8,0.3l3.97 -4.1c0.36,-0.34 0.76,-0.53 1.17,-0.56 0.41,-0.03 0.83,0.11 1.2,0.42 1,0.93 1.99,2.06 2.95,3.05l2.32 2.32c0.55,0.57 0.88,1.12 0.91,1.69 0.03,0.57 -0.24,1.14 -0.87,1.74zm-22.51 19.5c0.17,0.15 0.42,0.21 0.72,0.21 0.35,0 0.81,-0.51 1.12,-0.85l0.41 -0.42c0.33,-0.31 0.75,-0.69 0.75,-1.13 0,-0.22 -0.08,-0.42 -0.2,-0.57 -0.13,-0.15 -0.31,-0.26 -0.52,-0.3 -0.47,-0.08 -0.98,0.47 -1.49,1.03l-0.58 0.59c-0.23,0.21 -0.44,0.4 -0.44,0.82 0,0.28 0.09,0.48 0.23,0.61zm-2.96 -2.18c0.11,0.17 0.31,0.28 0.65,0.28 0.21,0 0.37,-0.05 0.49,-0.13 0.14,-0.08 0.26,-0.21 0.38,-0.33l1.47 -1.51c0.25,-0.25 0.42,-0.54 0.45,-0.83 0.03,-0.23 -0.05,-0.48 -0.26,-0.69 -0.5,-0.5 -1.16,-0 -1.62,0.46l-0.76 0.79c-0.38,0.35 -0.95,0.89 -0.95,1.27 0,0.26 0.04,0.52 0.15,0.69zm-1.86 -2.96c0.18,0.12 0.45,0.16 0.74,0.16 0.27,0 0.86,-0.65 1.32,-1.14l0.36 -0.38c0.31,-0.31 0.42,-0.59 0.42,-0.83 0,-0.11 -0.03,-0.22 -0.07,-0.3 -0.04,-0.09 -0.11,-0.18 -0.18,-0.25 -0.16,-0.17 -0.38,-0.26 -0.53,-0.26 -0.49,0 -0.78,0.32 -1.1,0.68l-0.49 0.51c-0.32,0.3 -0.76,0.71 -0.76,1.06 0,0.4 0.12,0.63 0.29,0.75zm21.68 -10.17c-0.08,-0.23 -0.14,-0.4 -0.14,-0.51 0,-0.49 0.57,-1.03 0.96,-1.39l3.87 -3.97 -5.47 -5.55c-0.45,0.52 -1.96,2.04 -2.84,2.91l-0.92 0.95c-0.61,0.67 -1.07,1.16 -1.84,0.77l-0.56 -0.32c-0.34,-0.14 -0.66,-0.27 -0.99,-0.35 -0.32,-0.08 -0.67,-0.12 -1.06,-0.12 -1.58,0 -2.49,0.7 -3.46,1.44 -1.16,0.89 -2.32,1.8 -3.5,2.67 -0.59,0.42 -1.14,0.82 -1.14,1.38 0,0.35 0.1,0.64 0.28,0.83 0.17,0.19 0.43,0.3 0.74,0.3 0.27,0 1.57,-0.67 1.95,-0.86l0.05 -0.02c2.2,-1.12 2.22,-1.1 2.77,-0.62 0.12,0.11 0.29,0.26 0.54,0.42 0.54,0.34 1.2,0.48 1.85,0.41 0.65,-0.07 1.29,-0.34 1.8,-0.8 0.25,-0.23 0.52,-0.33 0.76,-0.33 0.12,0 0.24,0.03 0.35,0.07 0.1,0.05 0.2,0.12 0.28,0.2 0.13,0.15 0.22,0.35 0.22,0.56 0,0.57 -0.45,1.06 -1.05,1.43 -0.65,0.4 -1.49,0.67 -2.11,0.75l6.41 6.51c0.18,-0.15 0.46,-0.43 0.74,-0.73 0.4,-0.42 0.82,-0.9 0.97,-1.12 1.48,-2.09 0.84,-4 0.55,-4.9zm-18.68 -0.78c-0.17,-0.38 -0.28,-0.83 -0.28,-1.31 0,-0.34 0.08,-0.71 0.23,-1.06 0.14,-0.35 0.35,-0.67 0.58,-0.91 0.93,-0.81 2.17,-1.72 3.17,-2.47 0.28,-0.21 0.71,-0.52 0.95,-0.74l-0.32 -0.09c-0.52,-0.12 -1.15,-0.13 -1.75,-0.03 -0.61,0.1 -1.2,0.29 -1.64,0.56 -0.88,0.55 -1.09,0.34 -1.86,-0.47l-3.96 -4.01 -5.45 5.6 2.39 2.47 1.21 1.21c0.61,0.6 0.93,0.92 1.08,1.19 0.18,0.34 0.11,0.58 -0.05,1.07l-0.14 0.47c-0.21,0.72 -0.24,1.48 -0.13,2.2 0.12,0.74 0.41,1.44 0.83,2.03 0.25,0.35 0.58,0.68 0.9,0.98 0.28,0.27 0.55,0.53 0.75,0.8l0.19 -0.19c0.67,-0.68 1.95,-1.97 3.77,-0.76 0.38,0.25 4.37,4.36 6.35,6.4l1.25 1.29c0.36,0.4 0.9,1 1.26,1 0.25,0 0.53,-0.06 0.72,-0.2 0.14,-0.1 0.23,-0.26 0.23,-0.48 0,-0.62 -0.17,-0.78 -0.59,-1.19 -2.08,-2.05 -4.07,-4.21 -6.15,-6.25 -0.64,-0.61 -1.74,-1.69 -1.74,-2.12 0,-0.29 0.12,-0.51 0.32,-0.67 0.2,-0.16 0.49,-0.24 0.8,-0.24 0.34,0 1.67,1.41 2.33,2.11 1.78,1.88 3.66,3.68 5.43,5.57 0.62,0.67 1.74,1.88 2.13,1.88 0.25,0 0.48,-0.09 0.64,-0.22 0.15,-0.13 0.24,-0.31 0.24,-0.52 0,-0.57 -0.2,-0.76 -0.55,-1.08 -2.35,-2.28 -4.57,-4.77 -6.92,-7.03 -0.33,-0.31 -0.79,-0.74 -0.79,-1.15 0,-0.27 0.06,-0.53 0.21,-0.71 0.13,-0.17 0.34,-0.27 0.61,-0.27 0.55,0 0.83,0.31 1.16,0.68 1.81,1.97 3.79,3.82 5.62,5.77 0.53,0.58 1.4,1.53 1.78,1.53 0.29,0 0.53,-0.08 0.7,-0.23 0.16,-0.14 0.25,-0.34 0.25,-0.59 0,-0.44 -0.42,-0.83 -0.75,-1.13 -2.56,-2.43 -5.23,-5.26 -7.68,-7.83 -0.27,-0.28 -0.58,-0.62 -0.81,-0.8l-2.72 1.31c-0.4,0.18 -0.82,0.27 -1.22,0.27 -0.54,0 -1.07,-0.16 -1.52,-0.44 -0.44,-0.28 -0.82,-0.7 -1.05,-1.21z"/>
  </g>
 </g>
</svg>