<svg xmlns="http://www.w3.org/2000/svg" viewBox="0 0 10 20">
    <path fill="#888887" d="M9.376 16.346H7.501V6.7c0-.365-.25-.609-.625-.609H1.25c-.375 0-.625.244-.625.609v2.437c0 .365.25.609.625.609H2.5v6.6H.626c-.375 0-.625.244-.625.609v2.437c0 .365.249.608.625.608h8.751c.375 0 .625-.244.625-.609v-2.437c-.001-.365-.251-.608-.626-.608zm-.625 2.436h-7.5v-1.218h1.875c.375 0 .625-.244.625-.609V9.136c0-.366-.25-.609-.625-.609h-1.25V7.309h4.375v9.646c0 .365.25.609.625.609h1.875v1.218zM4.376 4.872c1.375 0 2.5-1.097 2.5-2.437 0-1.34-1.125-2.437-2.5-2.437s-2.5 1.097-2.5 2.437c-.001 1.341 1.125 2.437 2.5 2.437zm0-3.655c.688 0 1.25.548 1.25 1.218 0 .67-.563 1.218-1.25 1.218-.688 0-1.25-.548-1.25-1.218 0-.669.562-1.218 1.25-1.218z"/>
</svg>