<svg xmlns="http://www.w3.org/2000/svg" viewBox="0 0 18 24">
    <path fill="#888887" d="M16.7 10.459h-.354V7.332C16.346 3.291 13.053 0 8.997 0c-4.05 0-7.348 3.286-7.348 7.332 0 .373.299.671.673.671a.669.669 0 0 0 .673-.671c0-3.301 2.69-5.99 6.003-5.99 3.308 0 6.003 2.684 6.003 5.99v3.127H1.3A1.3 1.3 0 0 0 0 11.756v8.356A3.898 3.898 0 0 0 3.896 24h10.208A3.898 3.898 0 0 0 18 20.113v-8.356a1.3 1.3 0 0 0-1.3-1.298zm-.045 9.654a2.55 2.55 0 0 1-2.551 2.545H3.901a2.55 2.55 0 0 1-2.551-2.545v-8.312h15.305v8.312z"/>
    <path fill="#888887" d="M9.002 19.839a2.515 2.515 0 0 0 2.516-2.51 2.515 2.515 0 0 0-5.032 0 2.515 2.515 0 0 0 2.516 2.51zm0-3.683c.648 0 1.171.527 1.171 1.168a1.171 1.171 0 0 1-2.342.005 1.177 1.177 0 0 1 1.171-1.173z"/>
</svg>