<svg xmlns="http://www.w3.org/2000/svg" viewBox="0 0 22 20">
    <path fill="#888887" d="M21.639 10.064l-3.19-6.958h.946c.306 0 .555-.256.555-.573s-.248-.573-.554-.573h-6.038C13.074.616 11.788-.236 10.486.057c-.923.208-1.643.951-1.844 1.903H2.605c-.306 0-.555.256-.555.573s.248.573.555.573h.946l-3.19 6.958a.569.569 0 0 0-.361.515c0 2.498 1.962 4.524 4.383 4.524h.028c2.428-.03 4.394-2.047 4.439-4.553a.483.483 0 0 0-.388-.487l-3.19-6.958h3.372c.25.877.94 1.545 1.803 1.747v10.709c-1.887.26-3.29 1.93-3.273 3.894 0 .3.235.544.526.545l.028-.001h6.547a.533.533 0 0 0 .554-.515l.001-.029c.017-1.965-1.387-3.634-3.273-3.894V4.852a2.476 2.476 0 0 0 1.803-1.747h3.371l-3.19 6.958a.512.512 0 0 0-.388.516c0 2.498 1.962 4.524 4.383 4.524h.028c2.424-.015 4.393-2.023 4.438-4.524a.603.603 0 0 0-.363-.515zM4.411 13.958c-1.61.008-2.986-1.195-3.246-2.835h6.519c-.302 1.626-1.669 2.81-3.273 2.835zm2.802-3.98H1.609l2.802-6.214 2.802 6.214zm6.45 8.876H8.337c.307-1.273 1.393-2.183 2.663-2.233 1.27.05 2.356.96 2.663 2.233zM11 3.764c-.72 0-1.304-.603-1.304-1.346 0-.743.584-1.346 1.304-1.346s1.304.602 1.304 1.346c0 .743-.584 1.346-1.304 1.346zm6.589 0l2.802 6.214h-5.604l2.802-6.214zm-.027 10.194c-1.61.008-2.986-1.195-3.246-2.835h6.519c-.302 1.626-1.669 2.81-3.273 2.835z"/>
</svg>