<svg xmlns="http://www.w3.org/2000/svg" viewBox="0 0 14 9">
    <path fill="#FFF" d="M13.638 7.198c-.036-.061-.261-.55-1.343-1.554-1.133-1.052-.981-.881.384-2.7.831-1.108 1.163-1.784 1.059-2.073-.099-.276-.71-.203-.71-.203L10.995.68s-.15-.02-.263.046c-.109.066-.179.218-.179.218s-.323.857-.752 1.586c-.906 1.538-1.268 1.619-1.416 1.523-.345-.222-.258-.894-.258-1.371 0-1.491.226-2.112-.441-2.273C7.465.355 7.302.32 6.737.314c-.726-.008-1.34.002-1.688.172-.232.114-.41.366-.301.381.135.018.439.082.6.302.209.283.201.921.201.921s.12 1.755-.28 1.973c-.275.15-.651-.156-1.459-1.552-.413-.715-.725-1.505-.725-1.505S3.025.859 2.917.78c-.13-.096-.313-.126-.313-.126L.671.666S.381.674.275.8c-.095.113-.008.344-.008.344S1.781 4.685 3.494 6.47C5.066 8.107 6.85 7.999 6.85 7.999h.808s.244-.027.369-.161c.115-.123.111-.355.111-.355s-.016-1.085.487-1.245c.497-.157 1.134 1.049 1.81 1.513.511.351.899.274.899.274L13.141 8c0-.001.945-.059.497-.802z"/>
</svg>