<svg xmlns="http://www.w3.org/2000/svg" width="20" height="20">
    <g>
        <title>background</title>
        <rect fill="none" id="canvas_background" height="402" width="582" y="-1" x="-1"/>
    </g>
    <g>
        <title>Layer 1</title>
        <path id="svg_3" d="m10.944,5l-1.901,0l0.21,7.54l1.481,0l0.21,-7.54zm-1.669,9.045c-0.184,0.217 -0.275,0.49 -0.275,0.819c0,0.329 0.092,0.6 0.275,0.814a0.897,0.897 0 0 0 0.719,0.322c0.3,0 0.542,-0.107 0.725,-0.321c0.183,-0.214 0.275,-0.486 0.275,-0.814c0,-0.334 -0.092,-0.608 -0.275,-0.822s-0.425,-0.321 -0.725,-0.321a0.89,0.89 0 0 0 -0.719,0.323z" fill="#888887"/>
        <ellipse stroke="#888887" ry="8.974002" rx="8.974002" id="svg_4" cy="10.023638" cx="9.984381" stroke-width="2" fill="none"/>
    </g>
</svg>