<svg xmlns="http://www.w3.org/2000/svg" viewBox="0 0 30 20">
    <path fill="#888887" d="M8.037 15.296a1.719 1.719 0 0 0-1.609-1.177 1.718 1.718 0 0 0-1.609 1.177c-.14.379-.14.798 0 1.177.31.915 1.282 1.398 2.17 1.078a1.727 1.727 0 0 0 1.047-1.078c.141-.379.141-.798.001-1.177zm-1.609 1.177a.58.58 0 0 1-.571-.588.58.58 0 0 1 .571-.588.578.578 0 0 1 .572.587.58.58 0 0 1-.572.589zM4.714 2.352H2.286v5.883h7.428V2.352h-5zm3.857 4.707H3.428v-3.53h5.143v3.53z"/>
    <path fill="#888887" d="M29.868 7.204l-2.476-6.119a1.708 1.708 0 0 0-1.583-1.086H1.714C.767-.001 0 .789 0 1.764v12.944c0 .975.768 1.765 1.714 1.765h.76c.314 2.248 2.338 3.81 4.522 3.486 1.755-.259 3.134-1.679 3.386-3.486h8.52c.314 2.248 2.338 3.81 4.522 3.486 1.755-.259 3.134-1.679 3.386-3.486h1.474c.947 0 1.714-.79 1.714-1.765V7.883a1.772 1.772 0 0 0-.13-.679zm-2.726-3.675l1.429 3.53h-4v-3.53h2.571zM9.228 16.473c-.314 1.592-1.822 2.621-3.368 2.297-1.546-.323-2.545-1.876-2.231-3.468.314-1.592 1.822-2.621 3.368-2.298 1.331.278 2.287 1.482 2.289 2.88-.001.198-.02.395-.058.589zm1.629-1.177h-.474c-.314-2.249-2.338-3.81-4.522-3.487-1.755.259-3.134 1.679-3.386 3.487h-.76a.58.58 0 0 1-.571-.588V10.59h9.714v4.706zm5.714-5.883v5.884H12V3.529h4.571v5.884zm9.085 7.06c-.314 1.592-1.822 2.621-3.368 2.297-1.546-.323-2.545-1.876-2.231-3.468.314-1.592 1.822-2.621 3.369-2.298 1.33.278 2.287 1.482 2.288 2.88 0 .198-.019.395-.058.589zm3.2-1.765a.58.58 0 0 1-.571.588h-1.474c-.314-2.249-2.338-3.81-4.522-3.487-1.755.259-3.134 1.679-3.386 3.487h-1.189v-4.707h11.143v4.119zm0-5.295H17.714v-7.06h-6.857v7.06H1.143V1.764a.58.58 0 0 1 .571-.588h24.095c.231 0 .439.143.528.362l.33.815h-7.81v5.883h10v1.177zm-5.428-5.884v3.53H20v-3.53h3.428z"/>
    <path fill="#888887" d="M24.465 15.296a1.719 1.719 0 0 0-1.608-1.177 1.718 1.718 0 0 0-1.609 1.177c-.14.379-.14.798 0 1.177.31.915 1.282 1.398 2.17 1.078a1.73 1.73 0 0 0 1.047-1.078c.14-.379.14-.798 0-1.177zm-1.608 1.177a.58.58 0 0 1-.571-.588.58.58 0 0 1 .571-.588.58.58 0 0 1 .571.588.58.58 0 0 1-.571.588z"/>
</svg>