<svg xmlns="http://www.w3.org/2000/svg" viewBox="0 0 30 20">
    <path fill="#888887" d="M29.414 18.82h-1.582v-.013c0-.633-.387-1.178-.938-1.415v-6.815c1.465-.274 2.578-1.554 2.578-3.087 0-1.732-1.42-3.142-3.164-3.142s-3.164 1.41-3.164 3.142a3.151 3.151 0 0 0 2.578 3.087v6.791a1.545 1.545 0 0 0-.996 1.439v.012h-1.15v-.92c0-.915-.726-1.666-1.636-1.713v-1.247a1.538 1.538 0 0 0 1.312-1.515c0-.756-.555-1.386-1.281-1.509v-1.893a.565.565 0 0 0-.031-.185V3.953a.323.323 0 0 0-.002-.031h.926a.81.81 0 0 0 .793-.982l-.319-1.426A1.93 1.93 0 0 0 21.439 0H2.904A1.95 1.95 0 0 0 .995 1.554L.713 2.957a.809.809 0 0 0 .797.965h.926a.323.323 0 0 0-.002.031v5.884a.565.565 0 0 0-.031.185v1.893a1.538 1.538 0 0 0-1.281 1.51c0 .767.57 1.404 1.312 1.515v1.247A1.724 1.724 0 0 0 .798 17.9v.92H.586a.583.583 0 0 0-.586.581c0 .321.262.582.586.582h24.59a.557.557 0 0 0 .136.017h1.934a.61.61 0 0 0 .136-.016h2.032c.323 0 .586-.26.586-.582a.584.584 0 0 0-.586-.582zM1.948 2.758l.197-.976a.776.776 0 0 1 .76-.618H21.44c.366 0 .677.248.756.603l.222.992H1.948zm1.657 1.164H20.77a.323.323 0 0 0-.002.031V9.44H3.606V3.953l-.001-.031zm-1.201 9.763a.368.368 0 0 1 0-.52.373.373 0 0 1 .262-.108h12.186c.324 0 .586-.26.586-.582a.584.584 0 0 0-.586-.582H3.606v-1.288h17.162v1.288h-1.23a.585.585 0 0 0-.586.582c0 .321.262.582.586.582h2.171c.087 0 .167.03.231.081l.031.027a.368.368 0 0 1 0 .52.372.372 0 0 1-.262.107H2.665a.372.372 0 0 1-.261-.107zm18.364 1.272v1.227H3.607v-1.227h17.161zM3.685 18.82H1.97v-.92c0-.304.25-.552.556-.552h1.675l-.516 1.472zm2.654 0H4.926l.517-1.472h1.413l-.517 1.472zm3.642 0H7.58l.517-1.472h2.401l-.517 1.472zm2.654 0h-1.413l.517-1.472h1.413l-.517 1.472zm3.643 0h-2.401l.517-1.472h2.401l-.517 1.472zm2.654 0h-1.413l.517-1.472h1.413l-.517 1.472zm3.472 0h-2.231l.517-1.472h1.158c.306 0 .556.248.556.552v.92zm1.912-11.33c0-1.091.894-1.978 1.992-1.978 1.098 0 1.992.888 1.992 1.978s-.894 1.978-1.992 1.978a1.988 1.988 0 0 1-1.992-1.978zm2.344 11.346h-.762v-.029a.38.38 0 0 1 .381-.378c.21 0 .381.17.381.378v.029z"/>
    <path fill="#888887" d="M17.769 12.36a.62.62 0 0 0-.087-.209.629.629 0 0 0-.263-.215.596.596 0 0 0-.712.214.536.536 0 0 0-.087.209.552.552 0 0 0 .033.337.578.578 0 0 0 .127.19.593.593 0 0 0 .739.071.56.56 0 0 0 .216-.262.545.545 0 0 0 .034-.335z"/>
</svg>