<svg xmlns="http://www.w3.org/2000/svg" viewBox="0 0 50 50">
    <path fill="#888887" d="M34.261 24.316h-6.357a2.97 2.97 0 0 0-2.144-2.108v-9.48a.744.744 0 0 0-.75-.738c-.414 0-.75.33-.75.738v9.48c-1.29.33-2.25 1.474-2.25 2.845 0 1.627 1.346 2.95 3 2.95a2.99 2.99 0 0 0 2.894-2.213h6.357c.414 0 .75-.33.75-.738a.742.742 0 0 0-.75-.736zm-9.25 2.212c-.827 0-1.5-.661-1.5-1.475 0-.813.673-1.475 1.5-1.475s1.5.662 1.5 1.475c0 .813-.673 1.475-1.5 1.475z"/>
    <path fill="#888887" d="M43.148 14.462a21.146 21.146 0 0 0-7.612-7.61c-.014-.01-.024-.025-.039-.034-.016-.009-.034-.009-.05-.017a20.867 20.867 0 0 0-10.448-2.796 20.857 20.857 0 0 0-10.448 2.796c-.016.008-.035.007-.05.017-.016.009-.024.024-.039.034a21.146 21.146 0 0 0-7.612 7.61c-.01.016-.026.024-.035.04-.009.016-.009.034-.016.05a20.85 20.85 0 0 0-2.796 10.446 20.86 20.86 0 0 0 2.796 10.446c.008.017.007.034.016.05.013.023.032.039.047.06a21.15 21.15 0 0 0 7.6 7.589c.015.01.024.025.039.035.024.014.049.019.073.03a20.864 20.864 0 0 0 10.425 2.782c3.793 0 7.351-1.016 10.425-2.782.024-.011.049-.016.073-.03.016-.009.024-.025.039-.035a21.141 21.141 0 0 0 7.6-7.589c.014-.021.034-.038.046-.06.009-.016.009-.034.016-.05a20.855 20.855 0 0 0 2.796-10.446 20.85 20.85 0 0 0-2.796-10.446c-.008-.016-.007-.034-.016-.05-.009-.016-.024-.025-.034-.04zm-7.471 27.142l-.449-.778a.942.942 0 0 0-1.631.941l.451.781a19.634 19.634 0 0 1-8.108 2.166v-.894a.94.94 0 1 0-1.882 0v.894a19.588 19.588 0 0 1-8.108-2.166l.451-.781a.94.94 0 1 0-1.631-.941l-.449.778a19.906 19.906 0 0 1-5.934-5.935l.778-.449a.943.943 0 0 0-.941-1.631l-.781.451a19.627 19.627 0 0 1-2.165-8.11h.893a.94.94 0 1 0 0-1.883h-.895a19.623 19.623 0 0 1 2.165-8.11l.78.451a.942.942 0 0 0 .941-1.631l-.778-.451a19.91 19.91 0 0 1 5.934-5.936l.449.778a.943.943 0 0 0 1.286.345.942.942 0 0 0 .344-1.286l-.451-.781a19.634 19.634 0 0 1 8.108-2.166v.894a.941.941 0 1 0 1.882 0V5.26c2.911.138 5.657.897 8.108 2.166l-.451.781a.942.942 0 0 0 1.63.941l.449-.778a19.898 19.898 0 0 1 5.934 5.936l-.778.449a.943.943 0 0 0 .471 1.757.947.947 0 0 0 .47-.126l.78-.451a19.627 19.627 0 0 1 2.165 8.11h-.893a.94.94 0 1 0 0 1.884h.893a19.627 19.627 0 0 1-2.165 8.11l-.78-.451a.943.943 0 0 0-.941 1.632l.778.449a19.843 19.843 0 0 1-5.929 5.935z"/>
    <path fill-rule="evenodd" clip-rule="evenodd" fill="#888887" d="M0 24.999c0 13.785 11.215 25 25 25s25-11.215 25-25C50 11.215 38.785 0 25 0S0 11.215 0 24.999zm1.25 0c0-13.096 10.654-23.75 23.75-23.75s23.75 10.654 23.75 23.75S38.096 48.749 25 48.749c-13.096.001-23.75-10.653-23.75-23.75z"/>
</svg>