<svg xmlns="http://www.w3.org/2000/svg" viewBox="0 0 48 50">
    <path fill="#888887" d="M38.572 22.818v4.795h6.283v-4.795h-6.283zm4.712 3.197h-3.141v-1.598h3.141v1.598zM38.572 29.211v4.795h6.283v-4.795h-6.283zm4.712 3.197h-3.141V30.81h3.141v1.598zM38.572 35.604v4.795h6.283v-4.795h-6.283zm4.712 3.197h-3.141v-1.598h3.141v1.598zM38.572 41.997v4.795h6.283v-4.795h-6.283zm4.712 3.197h-3.141v-1.598h3.141v1.598zM27.137 10.033V5.238h-6.283v4.795h-4.712v6.393h4.712v4.794h6.283v-4.794h4.712v-6.393h-4.712zm3.142 4.795h-4.712v4.795h-3.142v-4.795h-4.712v-3.196h4.712V6.836h3.142v4.795h4.712v3.197z"/>
    <path fill="#888887" d="M37.001 19.622V-.005h-26.01v19.628H-.004v30.366h48V19.622H37.001zM10.991 48.39H1.567V21.22h9.424v27.17zm12.22 0h-3.927V34.006h3.927V48.39zm5.497 0h-3.927V34.006h3.927V48.39zm6.723 0h-5.152V32.408H17.713V48.39h-5.152V1.593H35.43V48.39zm10.994 0h-9.424V21.22h9.424v27.17z"/>
    <path fill="#888887" d="M3.137 22.818v4.795H9.42v-4.795H3.137zm4.712 3.197H4.708v-1.598h3.141v1.598zM3.137 29.211v4.795H9.42v-4.795H3.137zm4.712 3.197H4.708V30.81h3.141v1.598zM3.137 35.604v4.795H9.42v-4.795H3.137zm4.712 3.197H4.708v-1.598h3.141v1.598zM3.137 41.997v4.795H9.42v-4.795H3.137zm4.712 3.197H4.708v-1.598h3.141v1.598z"/>
</svg>