<svg xmlns="http://www.w3.org/2000/svg" viewBox="0 0 34 50">
    <path fill="#888887" d="M32.629 40.032V26.351a14.4 14.4 0 0 0-1.921-7.189.728.728 0 0 0-.997-.267.734.734 0 0 0-.266 1.001 12.931 12.931 0 0 1 1.724 6.455v13.682a.731.731 0 0 1-.73.732h-3.435l-.223-1.443-.004-.022h2.202a.73.73 0 0 0 .73-.732V26.351c0-2.849-1.052-5.582-2.963-7.695a11.381 11.381 0 0 0-7.27-3.704.732.732 0 1 0-.151 1.457 9.928 9.928 0 0 1 6.34 3.232 9.989 9.989 0 0 1 2.584 6.711v11.484h-1.946c-.808-1.572-2.45-2.636-4.286-2.636-2.365 0-4.408 1.764-4.76 4.101h-1.336c-2.491 0-4.523-2.005-4.582-4.491h5.543c.403 0 .73-.328.73-.732v-3.125a.731.731 0 0 0-.73-.732H4.333a.731.731 0 0 0-.73.732v3.125c0 .404.327.732.73.732h5.548c.059 3.294 2.745 5.956 6.041 5.956h1.109l-.505 3.271H.733a.731.731 0 0 0-.73.732v4.492c0 .404.327.732.73.732h32.539c.403 0 .73-.328.73-.732v-4.492a.731.731 0 0 0-.73-.732H27.51l-.279-1.806h3.208a2.199 2.199 0 0 0 2.19-2.199zM5.063 33.343v-1.66h11.092v1.66H5.063zm13.636 6.192a3.377 3.377 0 0 1 3.32-2.872 3.38 3.38 0 0 1 3.321 2.877l.695 4.495h-8.031l.695-4.5zM32.543 45.5v3.027H1.463V45.5H32.543z"/>
    <path fill="#888887" d="M28.86 16.636a14.355 14.355 0 0 0-10.57-4.675h-1.155V8.755a.731.731 0 0 0-.73-.732h-1.828V1.464h1.828a.731.731 0 0 0 0-1.464H4.811a.731.731 0 0 0 0 1.464h1.828v6.558H4.811a.731.731 0 0 0-.73.732V22.04c0 .404.327.732.73.732h.787v2.32c0 .405.327.733.73.733h2.567c.403 0 .73-.328.73-.733v-2.32h1.969v2.32c0 .405.327.733.73.733h2.567c.403 0 .73-.328.73-.733v-2.32h.787c.403 0 .73-.328.73-.732v-8.616h1.155c3.596 0 7.056 1.531 9.494 4.201a.726.726 0 0 0 1.031.046.738.738 0 0 0 .042-1.035zM8.099 1.464h5.02v6.558h-5.02V1.464zm.066 22.897H7.057v-1.588h1.107v1.588zm5.995 0h-1.107v-1.588h1.107v1.588zm1.517-3.053H5.541V9.487h10.136v11.821zM22.019 37.835a2.196 2.196 0 0 0-2.189 2.197c0 1.211.982 2.197 2.189 2.197s2.189-.986 2.189-2.197a2.196 2.196 0 0 0-2.189-2.197zm0 2.929a.731.731 0 0 1 0-1.465.732.732 0 0 1 0 1.465z"/>
    <path fill="#888887" d="M10.609 11.541a2.196 2.196 0 0 0-2.189 2.197c0 1.211.982 2.197 2.189 2.197s2.189-.986 2.189-2.197a2.195 2.195 0 0 0-2.189-2.197zm0 2.929a.732.732 0 0 1 0-1.464.731.731 0 0 1 0 1.464z"/>
</svg>