<svg xmlns="http://www.w3.org/2000/svg" viewBox="0 0 30 20">
    <path fill="#888887" d="M22.637 2.285h-2.734c-.626 0-1.133.512-1.133 1.143v3.429c0 .631.507 1.143 1.133 1.143h5.566a.565.565 0 0 0 .495-.294.576.576 0 0 0-.015-.58l-2.832-4.572a.565.565 0 0 0-.48-.269zm-2.734 4.572V3.428h2.421l2.124 3.429h-4.545zM12.265 8h3.203c.626 0 1.133-.512 1.133-1.143V3.428c0-.631-.507-1.143-1.133-1.143h-3.203c-.626 0-1.133.512-1.133 1.143v3.429A1.14 1.14 0 0 0 12.265 8zm0-4.572h3.203v3.429h-3.203V3.428zM7.734 2.285H4.531c-.626 0-1.133.512-1.133 1.143v3.429C3.398 7.488 3.905 8 4.531 8h3.203c.626 0 1.133-.512 1.133-1.143V3.428c0-.631-.507-1.143-1.133-1.143zm0 4.572H4.531V3.428h3.203v3.429zM6.035 9.714H4.903a.568.568 0 0 0-.566.571.57.57 0 0 0 .566.572h1.133a.569.569 0 0 0 .566-.572.57.57 0 0 0-.567-.571zM12.637 9.714a.568.568 0 0 0-.566.571c0 .316.253.572.566.572h1.133a.569.569 0 0 0 .566-.572.57.57 0 0 0-.566-.571h-1.133zM21.504 9.714h-1.133a.568.568 0 0 0-.566.571c0 .316.253.572.566.572h1.133a.569.569 0 0 0 .566-.572.568.568 0 0 0-.566-.571z"/>
    <path fill="#888887" d="M23.142-.001H1.699C.761-.001 0 .767 0 1.714v13.715c0 .947.761 1.714 1.699 1.714h.423C2.396 18.792 3.812 20 5.469 20s3.072-1.208 3.347-2.857H19.29A3.404 3.404 0 0 0 22.637 20a3.403 3.403 0 0 0 3.347-2.857H28.3c.938 0 1.699-.768 1.699-1.714v-5.387c0-.321-.09-.636-.258-.909L24.582.805A1.727 1.727 0 0 0 24.335.5c.001.001-.38-.501-1.193-.501zM5.469 18.857a2.275 2.275 0 0 1-2.265-2.286c0-1.262 1.014-2.286 2.265-2.286s2.265 1.023 2.265 2.286a2.275 2.275 0 0 1-2.265 2.286zm17.168 0a2.275 2.275 0 0 1-2.265-2.286 2.276 2.276 0 0 1 2.265-2.286 2.276 2.276 0 0 1 2.266 2.286 2.276 2.276 0 0 1-2.266 2.286zm6.144-9.118a.579.579 0 0 1 .086.303v3.672h-1.699a.568.568 0 0 0-.566.571c0 .316.254.571.566.571h1.699v.572a.568.568 0 0 1-.566.571h-2.316a3.404 3.404 0 0 0-3.347-2.857 3.404 3.404 0 0 0-3.347 2.857H8.816c-.275-1.649-1.69-2.857-3.347-2.857S2.396 14.351 2.122 16h-.423a.568.568 0 0 1-.566-.571v-.572h.137a.568.568 0 0 0 .566-.571.568.568 0 0 0-.566-.571h-.137V1.714c0-.316.253-.571.566-.571h21.443a.56.56 0 0 1 .48.269l5.159 8.327z"/>
    <path fill="#888887" d="M18.106 13.714H10a.568.568 0 0 0-.566.571c0 .316.254.571.566.571h8.106a.568.568 0 0 0 .566-.571.568.568 0 0 0-.566-.571z"/>
</svg>