<svg xmlns="http://www.w3.org/2000/svg" width="20" height="20">
    <g>
        <title>background</title>
        <rect fill="none" id="canvas_background" height="402" width="582" y="-1" x="-1"/>
    </g>
    <g>
        <title>Layer 1</title>
        <path id="svg_3" d="m10.71,12.614l0.027,-0.451c0.049,-0.483 0.241,-0.905 0.577,-1.265l0.538,-0.57c0.42,-0.454 0.715,-0.867 0.883,-1.239c0.168,-0.372 0.252,-0.768 0.252,-1.188c0,-0.922 -0.259,-1.636 -0.777,-2.142s-1.245,-0.759 -2.184,-0.759c-0.929,0 -1.663,0.266 -2.2,0.799c-0.537,0.533 -0.811,1.27 -0.82,2.212l1.925,0c0.009,-0.395 0.112,-0.705 0.309,-0.929c0.197,-0.225 0.459,-0.337 0.786,-0.337c0.69,0 1.036,0.417 1.036,1.252c0,0.277 -0.066,0.539 -0.199,0.789c-0.133,0.249 -0.399,0.572 -0.8,0.97c-0.4,0.397 -0.676,0.8 -0.826,1.21c-0.151,0.409 -0.226,0.959 -0.226,1.65l1.699,0l0,-0.002zm-1.596,3.071c0.197,0.211 0.457,0.317 0.78,0.317s0.583,-0.106 0.78,-0.317c0.197,-0.211 0.295,-0.479 0.295,-0.803c0,-0.329 -0.101,-0.601 -0.302,-0.814a1.014,1.014 0 0 0 -0.773,-0.321c-0.314,0 -0.572,0.107 -0.773,0.321c-0.201,0.214 -0.302,0.485 -0.302,0.814c-0.001,0.324 0.098,0.592 0.295,0.803z" fill="#888887"/>
        <ellipse stroke="#888888" ry="8.961593" rx="8.969298" id="svg_5" cy="9.986911" cx="10.003853" stroke-width="2" fill="none"/>
    </g>
</svg>