<svg xmlns="http://www.w3.org/2000/svg" width="18" height="18" viewBox="14 -1 18 18">
    <path fill="none" d="M-1-1h34v18H-1z"/>
    <path stroke="null"
          d="M30.195 14.291l-1.435-1.68a7.65 7.65 0 0 0 1.735-4.864C30.495 3.574 27.178.18 23.1.18c-4.078 0-7.395 3.394-7.395 7.567 0 4.172 3.317 7.566 7.395 7.566 1.53 0 2.99-.472 4.236-1.369l1.47 1.715a.945.945 0 0 0 1.362.028 1.006 1.006 0 0 0 .027-1.396zM23.099 2.154c3.014 0 5.465 2.51 5.465 5.593 0 3.084-2.452 5.592-5.465 5.592-3.015 0-5.466-2.508-5.466-5.592 0-3.084 2.451-5.593 5.466-5.593z" fill="#898988"/>
</svg>