<svg xmlns="http://www.w3.org/2000/svg" viewBox="0 0 50 48">
  <path fill="#888887" d="M23.173 42.488H11.011a.73.73 0 0 0-.732.729.73.73 0 0 0 .732.729h12.162a.73.73 0 0 0 .733-.729.73.73 0 0 0-.733-.729z"/>
  <path fill="#888887" d="M42.166 17.733a.73.73 0 0 0 .732-.729V4.157a4.12 4.12 0 0 0-1.225-2.941 4.168 4.168 0 0 0-2.955-1.217H4.181C1.876-.001 0 1.864 0 4.157v7.006a.73.73 0 0 0 .732.729h3.967a.73.73 0 1 0 0-1.458H1.465V4.157a2.712 2.712 0 0 1 2.716-2.701c.724 0 1.407.281 1.92.791.513.51.795 1.188.795 1.91v43.098a.73.73 0 0 0 .732.729h34.537a.73.73 0 0 0 .732-.729v-2.498a.73.73 0 0 0-.732-.728.73.73 0 0 0-.732.728v1.769H8.361V4.157a4.36 4.36 0 0 0-.005-.198l-.004-.064-.01-.131-.008-.077c-.005-.04-.009-.08-.015-.119l-.012-.079-.02-.114a2.263 2.263 0 0 0-.016-.08l-.025-.111-.02-.078a4.597 4.597 0 0 0-.09-.3l-.025-.07a4.408 4.408 0 0 0-.047-.122l-.023-.058a3.534 3.534 0 0 0-.074-.167l-.004-.01a5.617 5.617 0 0 0-.088-.173l-.029-.051a2.715 2.715 0 0 0-.067-.117l-.039-.063-.064-.102-.046-.066c-.022-.031-.043-.063-.066-.093l-.05-.067a6.9 6.9 0 0 0-.069-.089l-.055-.066-.03-.035h31.358a2.71 2.71 0 0 1 2.715 2.701v12.846a.73.73 0 0 0 .733.729z"/>
  <path fill="#888887" d="M49.98 25.36a.73.73 0 0 0-.606-.686 6.674 6.674 0 0 1-5.247-4.698.731.731 0 0 0-.704-.528H31.471a.732.732 0 0 0-.704.528 6.499 6.499 0 0 1-.726 1.633h-19.03a.73.73 0 0 0-.732.729.73.73 0 0 0 .732.729h17.811a6.66 6.66 0 0 1-3.302 1.608.73.73 0 0 0-.606.686 20.267 20.267 0 0 0 .114 3.209H11.011a.73.73 0 0 0-.732.729.73.73 0 0 0 .732.729h14.241a20.022 20.022 0 0 0 1.916 5.502H11.011a.73.73 0 0 0-.732.729.73.73 0 0 0 .732.729h16.997a20.185 20.185 0 0 0 9.15 7.766.738.738 0 0 0 .577 0C45.186 41.574 50 34.311 50 26.249c0-.287-.007-.586-.02-.889zM37.447 43.286a18.718 18.718 0 0 1-8.429-7.451 18.58 18.58 0 0 1-2.658-9.587l.002-.264a8.168 8.168 0 0 0 4.639-3.178.678.678 0 0 0 .072-.103 7.968 7.968 0 0 0 .931-1.799H42.89a8.157 8.157 0 0 0 5.643 5.079l.002.264c0 7.376-4.341 14.029-11.088 17.039z"/>
  <path fill="#888887" d="M42.648 28.535h-2.497V26.05a.73.73 0 0 0-.732-.729h-3.943a.73.73 0 0 0-.732.729v2.485h-2.497a.73.73 0 0 0-.733.729v3.922a.73.73 0 0 0 .733.728h2.497v2.485a.73.73 0 0 0 .732.729h3.943a.73.73 0 0 0 .732-.729v-2.485h2.497a.73.73 0 0 0 .732-.728v-3.922a.73.73 0 0 0-.732-.729zm-3.23 3.922a.73.73 0 0 0-.732.729v2.485h-2.478v-2.485a.73.73 0 0 0-.732-.729h-2.497v-2.465h2.497a.73.73 0 0 0 .732-.729v-2.484h2.478v2.484a.73.73 0 0 0 .732.729h2.497v2.465h-2.497zM17.563 3.575c-4.016 0-7.284 3.251-7.284 7.247a7.27 7.27 0 0 0 7.767 7.23 7.27 7.27 0 0 0 6.8-7.229c.001-3.997-3.267-7.248-7.283-7.248zm2.572 12.44l-.022.01a6.138 6.138 0 0 1-.261.119l-.027.012c-.09.038-.182.073-.274.106-.017.006-.033.013-.05.018-.09.032-.182.061-.274.089l-.049.014a4.68 4.68 0 0 1-.288.075l-.018.004c-.095.022-.19.041-.287.058l-.039.007c-.096.017-.192.03-.289.042l-.055.006c-.096.01-.193.019-.29.025l-.047.002a6.215 6.215 0 0 1-.306.009c-.102 0-.204-.004-.306-.009l-.047-.003a7.081 7.081 0 0 1-.29-.024l-.055-.006a6.926 6.926 0 0 1-.289-.041l-.039-.007a5.53 5.53 0 0 1-.285-.058l-.02-.004a5.726 5.726 0 0 1-.286-.075l-.05-.014a6.623 6.623 0 0 1-.272-.088l-.052-.019a6.324 6.324 0 0 1-.271-.105l-.03-.013a5.948 5.948 0 0 1-.257-.117l-.024-.011v-.466c0-.762.343-1.477.918-1.959l.023.014c.045.029.091.057.137.083l.044.025c.055.03.111.059.167.085l.036.016a2.543 2.543 0 0 0 .195.08c.058.021.116.041.176.059l.036.01c.05.014.101.028.152.04l.058.013a3.916 3.916 0 0 0 .213.038c.054.007.109.013.163.017l.061.005c.059.004.118.006.177.006h.032c.059 0 .118-.003.177-.006l.06-.005c.057-.004.113-.01.169-.018l.025-.003c.062-.009.123-.021.184-.034l.055-.012c.055-.012.109-.027.162-.042l.025-.007c.06-.018.119-.038.178-.06l.051-.019c.051-.02.101-.041.151-.064.009-.005.019-.008.028-.012a2.887 2.887 0 0 0 .348-.193.382.382 0 0 0 .027-.016 2.535 2.535 0 0 1 .917 1.959v.464h.004zm-4.116-4.926v-1.32a1.54 1.54 0 0 1 1.543-1.535 1.54 1.54 0 0 1 1.543 1.535v1.32c0 .408-.158.791-.443 1.078l-.008.008a1.71 1.71 0 0 1-.1.091l-.015.013c-.031.026-.064.049-.097.072-.008.006-.016.013-.025.018a.946.946 0 0 1-.097.057l-.033.019a1.821 1.821 0 0 1-.1.047l-.035.016a1.437 1.437 0 0 1-.14.05 1.519 1.519 0 0 1-.133.033l-.012.003a1.533 1.533 0 0 1-1.401-.427 1.514 1.514 0 0 1-.447-1.078zm5.545 3.932a3.977 3.977 0 0 0-1.356-2.506 2.97 2.97 0 0 0 .362-1.426v-1.32a3.004 3.004 0 0 0-3.008-2.993 3.004 3.004 0 0 0-3.008 2.993v1.32c0 .506.126.994.363 1.427a4.021 4.021 0 0 0-1.357 2.505 5.8 5.8 0 0 1-1.817-4.2c0-3.192 2.611-5.789 5.819-5.789 3.209 0 5.819 2.597 5.819 5.789a5.79 5.79 0 0 1-1.817 4.2zM38.783 7.403H27.612a.73.73 0 0 0-.732.729v5.38a.73.73 0 0 0 .732.729h11.171a.73.73 0 0 0 .732-.729v-5.38a.73.73 0 0 0-.732-.729zm-.732 5.38h-9.706V8.86h9.706v3.923z"/>
</svg>