<svg version="1.1" id="Layer_1" xmlns="http://www.w3.org/2000/svg" xmlns:xlink="http://www.w3.org/1999/xlink" x="0px" y="0px" viewBox="0 0 512.853 512.853" style="enable-background:new 0 0 512.853 512.853;" xml:space="preserve"><g transform="translate(1 1)"><g><g><path d="M328.387,182.893h-61.44c-11.093,0-20.48,9.387-20.48,20.48v78.507c0,11.093,9.387,20.48,20.48,20.48h61.44 c11.093,0,20.48-9.387,20.48-20.48v-78.507C348.867,192.28,339.48,182.893,328.387,182.893z M331.8,281.88 c0,1.707-1.707,3.413-3.413,3.413h-61.44c-1.707,0-3.413-1.707-3.413-3.413v-78.507c0-1.707,1.707-3.413,3.413-3.413h61.44 c1.707,0,3.413,1.707,3.413,3.413V281.88z" fill="#000000" style="fill: rgb(136, 136, 135);"></path><path d="M200.387,182.893h-61.44c-11.093,0-20.48,9.387-20.48,20.48v78.507c0,11.093,9.387,20.48,20.48,20.48h61.44 c11.093,0,20.48-9.387,20.48-20.48v-78.507C220.867,192.28,211.48,182.893,200.387,182.893z M203.8,281.88 c0,1.707-1.707,3.413-3.413,3.413h-61.44c-1.707,0-3.413-1.707-3.413-3.413v-78.507c0-1.707,1.707-3.413,3.413-3.413h61.44 c1.707,0,3.413,1.707,3.413,3.413V281.88z" fill="#000000" style="fill: rgb(136, 136, 135);"></path><path d="M408.6,430.36c-9.387,0-17.067,7.68-17.067,17.067s7.68,17.067,17.067,17.067s17.067-7.68,17.067-17.067 S417.987,430.36,408.6,430.36z" fill="#000000" style="fill: rgb(136, 136, 135);"></path><path d="M101.4,430.36c-9.387,0-17.067,7.68-17.067,17.067s7.68,17.067,17.067,17.067c9.387,0,17.067-7.68,17.067-17.067 S110.787,430.36,101.4,430.36z" fill="#000000" style="fill: rgb(136, 136, 135);"></path><path d="M504.173,240.067l-74.24-81.92c-5.973-5.973-13.653-9.387-21.333-9.387h-79.644l-15.076-45.227 c-0.853-3.413-4.267-5.973-7.68-5.973h-13.653L201.24,6.253c-3.413-3.413-8.533-3.413-11.947,0s-3.413,8.533,0,11.947 l79.36,79.36h-52.907L124.44,6.253c-3.413-3.413-8.533-3.413-11.947,0s-3.413,8.533,0,11.947l79.36,79.36h-22.187 c-3.413,0-6.827,2.56-7.68,5.973l-15.076,45.227H24.6c-13.653,0-25.6,11.093-25.6,25.6v8.533V302.36v128 c0,13.653,11.093,25.6,25.6,25.6h17.669c4.075,29.155,28.753,51.2,59.131,51.2c30.378,0,55.056-22.045,59.131-51.2h188.938 c4.075,29.155,28.753,51.2,59.131,51.2s55.056-22.045,59.131-51.2H485.4c13.653,0,25.6-11.947,26.453-25.6V259.693 C511.853,252.013,509.293,245.187,504.173,240.067z M465.489,223.854l24.177,27.306c2.56,1.707,3.413,5.12,3.413,7.68v26.453 H391.533V199.96h52.053L465.489,223.854z M175.64,114.627h124.587l11.093,34.133H164.547L175.64,114.627z M16.067,199.96h58.027 c0.853,0,1.707,0.853,1.707,1.707v81.92c0,0.853-0.853,1.707-1.707,1.707H16.067V199.96z M101.4,490.093 c-23.893,0-42.667-18.773-42.667-42.667S77.507,404.76,101.4,404.76c23.893,0,42.667,18.773,42.667,42.667 S125.293,490.093,101.4,490.093z M408.6,490.093c-23.893,0-42.667-18.773-42.667-42.667s18.773-42.667,42.667-42.667 c23.893,0,42.667,18.773,42.667,42.667S432.493,490.093,408.6,490.093z M484.547,438.893h-16.816 c-4.075-29.155-28.753-51.2-59.131-51.2c-0.276,0-0.548,0.017-0.823,0.02c-0.295-0.004-0.588-0.02-0.883-0.02 c-29.867,0-54.613,22.187-58.88,51.2H160.531c-4.075-29.155-28.753-51.2-59.131-51.2c-0.138,0-0.274,0.009-0.412,0.01 c-0.148-0.001-0.293-0.01-0.441-0.01c-29.867,0-54.613,22.187-58.88,51.2H24.6c-4.267,0-8.533-3.413-8.533-8.533v-59.733h298.667 c5.12,0,8.533-3.413,8.533-8.533s-3.413-8.533-8.533-8.533H16.067v-17.067H280.6c5.12,0,8.533-3.413,8.533-8.533 s-3.413-8.533-8.533-8.533H16.067V302.36h58.027c10.24,0,18.773-8.533,18.773-18.773v-81.92c0-10.24-8.533-18.773-18.773-18.773 H16.067v-8.533c0-4.267,3.413-8.533,8.533-8.533h128h170.667H408.6c3.413,0,5.973,0.853,8.533,3.413l12.089,13.653h-40.249 c-7.68,0-14.507,6.827-14.507,14.507v90.453c0,7.68,6.827,14.507,14.507,14.507H493.08v42.667h-41.813 c-5.12,0-8.533,3.413-8.533,8.533c0,5.12,3.413,8.533,8.533,8.533h41.813v68.267C493.08,434.627,489.667,438.893,484.547,438.893 z" fill="#000000" style="fill: rgb(136, 136, 135);"></path></g></g></g></svg>